<svg width="68" height="54" viewBox="0 0 68 54" fill="none" xmlns="http://www.w3.org/2000/svg">
<g opacity="0.6">
<path d="M18.1133 49.5234V51H12.8223V49.5234H18.1133ZM13.3965 41.0469V51H11.5166V41.0469H13.3965ZM17.4229 45.1553V46.5977H12.8223V45.1553H17.4229ZM18.0928 41.0469V42.5303H12.8223V41.0469H18.0928ZM20.6973 43.6035L22.0166 45.9551L23.3564 43.6035H25.3184L23.1445 47.2266L25.4072 51H23.4453L22.0303 48.5322L20.6084 51H18.6465L20.9023 47.2266L18.7422 43.6035H20.6973ZM28.1689 45.0254V53.8438H26.3574V43.6035H28.0322L28.1689 45.0254ZM32.9199 47.2266V47.3701C32.9199 47.9079 32.8561 48.4069 32.7285 48.8672C32.6055 49.3229 32.4232 49.7217 32.1816 50.0635C31.9401 50.4007 31.6393 50.665 31.2793 50.8564C30.9238 51.0433 30.5137 51.1367 30.0488 51.1367C29.5931 51.1367 29.1966 51.0501 28.8594 50.877C28.5221 50.6992 28.2373 50.4486 28.0049 50.125C27.7725 49.8014 27.5856 49.4255 27.4443 48.9971C27.3076 48.5641 27.2051 48.0924 27.1367 47.582V47.124C27.2051 46.5817 27.3076 46.0895 27.4443 45.6475C27.5856 45.2008 27.7725 44.8158 28.0049 44.4922C28.2373 44.1641 28.5199 43.9111 28.8525 43.7334C29.1898 43.5557 29.584 43.4668 30.0352 43.4668C30.5046 43.4668 30.917 43.5557 31.2725 43.7334C31.6325 43.9111 31.9355 44.1663 32.1816 44.499C32.4277 44.8317 32.6123 45.2282 32.7354 45.6885C32.8584 46.1488 32.9199 46.6615 32.9199 47.2266ZM31.1084 47.3701V47.2266C31.1084 46.8984 31.0788 46.5954 31.0195 46.3174C30.9603 46.0348 30.8691 45.7887 30.7461 45.5791C30.623 45.3649 30.4635 45.1986 30.2676 45.0801C30.0716 44.9616 29.8346 44.9023 29.5566 44.9023C29.2786 44.9023 29.0394 44.9479 28.8389 45.0391C28.6383 45.1302 28.4743 45.2601 28.3467 45.4287C28.2191 45.5973 28.1188 45.7979 28.0459 46.0303C27.9775 46.2581 27.932 46.5111 27.9092 46.7891V47.9238C27.9502 48.2611 28.0299 48.5641 28.1484 48.833C28.2669 49.1019 28.4401 49.3161 28.668 49.4756C28.9004 49.6351 29.2012 49.7148 29.5703 49.7148C29.8483 49.7148 30.0853 49.6533 30.2812 49.5303C30.4772 49.4072 30.6367 49.2386 30.7598 49.0244C30.8828 48.8057 30.9717 48.555 31.0264 48.2725C31.0811 47.9899 31.1084 47.6891 31.1084 47.3701ZM36.1533 40.5V51H34.3418V40.5H36.1533ZM37.5547 47.377V47.2334C37.5547 46.6911 37.6322 46.1921 37.7871 45.7363C37.9421 45.276 38.1676 44.8773 38.4639 44.54C38.7601 44.2028 39.1224 43.9408 39.5508 43.7539C39.9792 43.5625 40.4668 43.4668 41.0137 43.4668C41.5697 43.4668 42.0618 43.5625 42.4902 43.7539C42.9232 43.9408 43.2878 44.2028 43.584 44.54C43.8802 44.8773 44.1058 45.276 44.2607 45.7363C44.4157 46.1921 44.4932 46.6911 44.4932 47.2334V47.377C44.4932 47.9147 44.4157 48.4137 44.2607 48.874C44.1058 49.3298 43.8802 49.7285 43.584 50.0703C43.2878 50.4076 42.9255 50.6696 42.4971 50.8564C42.0687 51.0433 41.5788 51.1367 41.0273 51.1367C40.4805 51.1367 39.9906 51.0433 39.5576 50.8564C39.1247 50.6696 38.7601 50.4076 38.4639 50.0703C38.1676 49.7285 37.9421 49.3298 37.7871 48.874C37.6322 48.4137 37.5547 47.9147 37.5547 47.377ZM39.3594 47.2334V47.377C39.3594 47.7005 39.3913 48.0036 39.4551 48.2861C39.5189 48.5687 39.6169 48.8171 39.749 49.0312C39.8812 49.2454 40.0521 49.4141 40.2617 49.5371C40.4759 49.6556 40.7311 49.7148 41.0273 49.7148C41.319 49.7148 41.5697 49.6556 41.7793 49.5371C41.9889 49.4141 42.1598 49.2454 42.292 49.0312C42.4287 48.8171 42.529 48.5687 42.5928 48.2861C42.6566 48.0036 42.6885 47.7005 42.6885 47.377V47.2334C42.6885 46.9144 42.6566 46.6159 42.5928 46.3379C42.529 46.0553 42.4287 45.807 42.292 45.5928C42.1598 45.374 41.9867 45.2031 41.7725 45.0801C41.5628 44.9525 41.3099 44.8887 41.0137 44.8887C40.722 44.8887 40.4714 44.9525 40.2617 45.0801C40.0521 45.2031 39.8812 45.374 39.749 45.5928C39.6169 45.807 39.5189 46.0553 39.4551 46.3379C39.3913 46.6159 39.3594 46.9144 39.3594 47.2334ZM47.6104 45.1143V51H45.8057V43.6035H47.5146L47.6104 45.1143ZM49.8594 43.5557L49.832 45.2373C49.7318 45.2191 49.6178 45.2054 49.4902 45.1963C49.3672 45.1872 49.251 45.1826 49.1416 45.1826C48.8636 45.1826 48.6198 45.2214 48.4102 45.2988C48.2005 45.3717 48.0251 45.4788 47.8838 45.6201C47.7471 45.7614 47.6423 45.9346 47.5693 46.1396C47.4964 46.3402 47.4554 46.568 47.4463 46.8232L47.0566 46.7754C47.0566 46.306 47.1045 45.8708 47.2002 45.4697C47.2959 45.0687 47.4349 44.7178 47.6172 44.417C47.7995 44.1162 48.0273 43.8838 48.3008 43.7197C48.5788 43.5511 48.8978 43.4668 49.2578 43.4668C49.3581 43.4668 49.4652 43.4759 49.5791 43.4941C49.6976 43.5078 49.791 43.5283 49.8594 43.5557ZM54.0361 51.1367C53.4756 51.1367 52.972 51.0456 52.5254 50.8633C52.0788 50.681 51.6982 50.4281 51.3838 50.1045C51.0739 49.7764 50.8346 49.3958 50.666 48.9629C50.502 48.5254 50.4199 48.056 50.4199 47.5547V47.2812C50.4199 46.7116 50.502 46.1943 50.666 45.7295C50.8301 45.2601 51.0625 44.8568 51.3633 44.5195C51.6641 44.1823 52.0241 43.9225 52.4434 43.7402C52.8626 43.5579 53.3252 43.4668 53.8311 43.4668C54.3551 43.4668 54.8177 43.5557 55.2188 43.7334C55.6198 43.9066 55.9548 44.1527 56.2236 44.4717C56.4925 44.7907 56.6953 45.1735 56.832 45.6201C56.9688 46.0622 57.0371 46.5521 57.0371 47.0898V47.8486H51.2402V46.6045H55.2598V46.4678C55.2507 46.1807 55.196 45.9186 55.0957 45.6816C54.9954 45.4401 54.8405 45.2487 54.6309 45.1074C54.4212 44.9616 54.1501 44.8887 53.8174 44.8887C53.5485 44.8887 53.3138 44.9479 53.1133 45.0664C52.9173 45.1803 52.7533 45.3444 52.6211 45.5586C52.4935 45.7682 52.3978 46.0189 52.334 46.3105C52.2702 46.6022 52.2383 46.9258 52.2383 47.2812V47.5547C52.2383 47.8646 52.2793 48.1517 52.3613 48.416C52.4479 48.6803 52.5732 48.9105 52.7373 49.1064C52.9059 49.2979 53.1064 49.4482 53.3389 49.5576C53.5758 49.6624 53.8447 49.7148 54.1455 49.7148C54.5238 49.7148 54.8656 49.6419 55.1709 49.4961C55.4808 49.3457 55.7497 49.1247 55.9775 48.833L56.8867 49.7764C56.7318 50.0042 56.5221 50.223 56.2578 50.4326C55.998 50.6423 55.6836 50.8132 55.3145 50.9453C54.9453 51.0729 54.5192 51.1367 54.0361 51.1367Z" fill="white"/>
<path d="M37.3668 21.5887L27.7844 25.2742C26.4363 25.7723 25.2277 24.5039 25.7258 23.2156L29.4113 13.6332C29.6238 13.0688 30.0688 12.6238 30.6332 12.4113L40.2156 8.72578C41.5039 8.22773 42.7723 9.43633 42.2742 10.7844L38.5887 20.3668C38.3762 20.9313 37.9313 21.3762 37.3668 21.5887ZM33.9402 14.875C32.8246 14.875 31.8152 15.8246 31.8152 17C31.8152 18.1754 32.8246 19.125 33.9402 19.125C35.1754 19.125 36.125 18.1754 36.125 17C36.125 15.8246 35.1754 14.875 33.9402 14.875ZM51 17C51 26.3898 43.3898 34 34 34C24.6102 34 17 26.3898 17 17C17 7.61016 24.6102 0 34 0C43.3898 0 51 7.61016 51 17ZM34 3.1875C26.3699 3.1875 20.1875 9.36992 20.1875 17C20.1875 24.6301 26.3699 30.8125 34 30.8125C41.6301 30.8125 47.8125 24.6301 47.8125 17C47.8125 9.36992 41.6301 3.1875 34 3.1875Z" fill="white"/>
</g>
</svg>
