<svg width="68" height="54" viewBox="0 0 68 54" fill="none" xmlns="http://www.w3.org/2000/svg">
<g opacity="0.6">
<path d="M36.125 7.79167C37.6833 7.79167 38.9583 6.51667 38.9583 4.95833C38.9583 3.4 37.6833 2.125 36.125 2.125C34.5667 2.125 33.2917 3.4 33.2917 4.95833C33.2917 6.51667 34.5667 7.79167 36.125 7.79167ZM41.7917 15.2717C40.0492 14.7475 38.6467 13.6142 37.825 12.1833L36.4083 9.91667C35.8275 8.99583 34.8358 8.5 33.8017 8.5C32.6967 8.5 31.5492 9.20833 31.28 10.54C31.0108 11.8717 26.9167 32.5833 26.9167 32.5833H29.8917L32.4417 21.25L35.4167 24.0833V32.5833H38.25V21.9583L35.275 19.125L36.125 14.875C37.5417 16.5042 39.5392 17.7225 41.7917 18.19V32.5833H43.9167V12.75H41.7917V15.2717ZM27.5258 18.6008L24.5225 18.02C23.7575 17.8642 23.2475 17.1275 23.4033 16.3625L24.48 10.795C24.7775 9.265 26.265 8.25917 27.795 8.55667L29.4383 8.8825L27.5258 18.6008Z" fill="white"/>
<path d="M3.40918 41.0469H5.03613L7.75684 48.5391L10.4707 41.0469H12.1045L8.40625 51H7.10059L3.40918 41.0469ZM2.58887 41.0469H4.18164L4.46875 47.9307V51H2.58887V41.0469ZM11.3252 41.0469H12.9248V51H11.0449V47.9307L11.3252 41.0469ZM16.8691 50.1797L18.8516 43.6035H20.7861L17.8193 52.1211C17.751 52.3034 17.6621 52.5016 17.5527 52.7158C17.4479 52.93 17.3066 53.1328 17.1289 53.3242C16.9512 53.5202 16.7279 53.6797 16.459 53.8027C16.1947 53.9258 15.8734 53.9873 15.4951 53.9873C15.3311 53.9873 15.1852 53.9759 15.0576 53.9531C14.93 53.9303 14.7956 53.9007 14.6543 53.8643V52.5107C14.6999 52.5153 14.7523 52.5176 14.8115 52.5176C14.8753 52.5221 14.93 52.5244 14.9756 52.5244C15.2399 52.5244 15.4587 52.4925 15.6318 52.4287C15.805 52.3695 15.944 52.2715 16.0488 52.1348C16.1582 52.0026 16.2493 51.8294 16.3223 51.6152L16.8691 50.1797ZM15.8916 43.6035L17.5664 49.0518L17.8604 50.959L16.6162 51.1846L13.9434 43.6035H15.8916ZM29.2148 41.0469V51H27.3418V41.0469H29.2148ZM32.3047 41.0469V42.5303H24.2861V41.0469H32.3047ZM34.7451 45.1143V51H32.9404V43.6035H34.6494L34.7451 45.1143ZM36.9941 43.5557L36.9668 45.2373C36.8665 45.2191 36.7526 45.2054 36.625 45.1963C36.502 45.1872 36.3857 45.1826 36.2764 45.1826C35.9984 45.1826 35.7546 45.2214 35.5449 45.2988C35.3353 45.3717 35.1598 45.4788 35.0186 45.6201C34.8818 45.7614 34.777 45.9346 34.7041 46.1396C34.6312 46.3402 34.5902 46.568 34.5811 46.8232L34.1914 46.7754C34.1914 46.306 34.2393 45.8708 34.335 45.4697C34.4307 45.0687 34.5697 44.7178 34.752 44.417C34.9342 44.1162 35.1621 43.8838 35.4355 43.7197C35.7135 43.5511 36.0326 43.4668 36.3926 43.4668C36.4928 43.4668 36.5999 43.4759 36.7139 43.4941C36.8324 43.5078 36.9258 43.5283 36.9941 43.5557ZM41.8271 49.4277V46.0166C41.8271 45.766 41.7839 45.5495 41.6973 45.3672C41.6107 45.1849 41.4785 45.0436 41.3008 44.9434C41.123 44.8431 40.8975 44.793 40.624 44.793C40.3825 44.793 40.1706 44.834 39.9883 44.916C39.8105 44.998 39.6738 45.1143 39.5781 45.2646C39.4824 45.4105 39.4346 45.5791 39.4346 45.7705H37.623C37.623 45.4652 37.696 45.1758 37.8418 44.9023C37.9876 44.6243 38.195 44.3783 38.4639 44.1641C38.7373 43.9453 39.0632 43.7744 39.4414 43.6514C39.8242 43.5283 40.2526 43.4668 40.7266 43.4668C41.2871 43.4668 41.7861 43.5625 42.2236 43.7539C42.6657 43.9408 43.012 44.2233 43.2627 44.6016C43.5179 44.9798 43.6455 45.4561 43.6455 46.0303V49.2568C43.6455 49.626 43.6683 49.9427 43.7139 50.207C43.764 50.4668 43.8369 50.6924 43.9326 50.8838V51H42.0938C42.0072 50.8132 41.9411 50.5762 41.8955 50.2891C41.8499 49.9974 41.8271 49.7103 41.8271 49.4277ZM42.0801 46.4951L42.0938 47.5684H40.9521C40.6696 47.5684 40.4212 47.598 40.207 47.6572C39.9928 47.7119 39.8174 47.7939 39.6807 47.9033C39.5439 48.0081 39.4414 48.1357 39.373 48.2861C39.3047 48.432 39.2705 48.5983 39.2705 48.7852C39.2705 48.9674 39.3115 49.1315 39.3936 49.2773C39.4801 49.4232 39.6032 49.5394 39.7627 49.626C39.9268 49.708 40.1182 49.749 40.3369 49.749C40.6559 49.749 40.9339 49.6852 41.1709 49.5576C41.4079 49.4255 41.5924 49.266 41.7246 49.0791C41.8568 48.8923 41.9274 48.7145 41.9365 48.5459L42.4561 49.3252C42.3923 49.512 42.2965 49.7103 42.1689 49.9199C42.0413 50.1296 41.8773 50.3255 41.6768 50.5078C41.4762 50.6901 41.2347 50.8405 40.9521 50.959C40.6696 51.0775 40.3415 51.1367 39.9678 51.1367C39.4893 51.1367 39.0609 51.041 38.6826 50.8496C38.3044 50.6582 38.0059 50.3962 37.7871 50.0635C37.5684 49.7308 37.459 49.3525 37.459 48.9287C37.459 48.5368 37.5319 48.1904 37.6777 47.8896C37.8236 47.5889 38.04 47.3359 38.3271 47.1309C38.6143 46.9212 38.9697 46.764 39.3936 46.6592C39.8219 46.5498 40.3118 46.4951 40.8633 46.4951H42.0801ZM48.3076 49.7148C48.5628 49.7148 48.7907 49.6647 48.9912 49.5645C49.1917 49.4642 49.3512 49.3229 49.4697 49.1406C49.5928 48.9583 49.6589 48.7464 49.668 48.5049H51.3701C51.361 49.0062 51.2197 49.4551 50.9463 49.8516C50.6729 50.248 50.3083 50.5625 49.8525 50.7949C49.4014 51.0228 48.8955 51.1367 48.335 51.1367C47.7653 51.1367 47.2686 51.041 46.8447 50.8496C46.4209 50.6582 46.0677 50.3916 45.7852 50.0498C45.5072 49.708 45.2975 49.3115 45.1562 48.8604C45.0195 48.4092 44.9512 47.9261 44.9512 47.4111V47.1924C44.9512 46.6774 45.0195 46.1943 45.1562 45.7432C45.2975 45.292 45.5072 44.8955 45.7852 44.5537C46.0677 44.2119 46.4209 43.9453 46.8447 43.7539C47.2686 43.5625 47.763 43.4668 48.3281 43.4668C48.9251 43.4668 49.4492 43.583 49.9004 43.8154C50.3561 44.0479 50.7116 44.376 50.9668 44.7998C51.2266 45.2236 51.361 45.7227 51.3701 46.2969H49.668C49.6589 46.0326 49.5996 45.7956 49.4902 45.5859C49.3809 45.3763 49.2259 45.2077 49.0254 45.0801C48.8249 44.9525 48.5811 44.8887 48.2939 44.8887C47.9886 44.8887 47.7334 44.9525 47.5283 45.0801C47.3278 45.2077 47.1706 45.3831 47.0566 45.6064C46.9473 45.8252 46.8698 46.0713 46.8242 46.3447C46.7832 46.6136 46.7627 46.8962 46.7627 47.1924V47.4111C46.7627 47.7119 46.7832 47.999 46.8242 48.2725C46.8698 48.5459 46.9473 48.792 47.0566 49.0107C47.1706 49.2249 47.3278 49.3958 47.5283 49.5234C47.7334 49.651 47.9932 49.7148 48.3076 49.7148ZM54.3779 40.4932V51H52.5732V40.4932H54.3779ZM59.0127 43.6035L55.793 47.2197L54.0498 48.9902L53.4756 47.5889L54.8223 45.8936L56.832 43.6035H59.0127ZM57.167 51L54.877 47.5547L56.0801 46.3857L59.2588 51H57.167ZM64.0371 48.9766C64.0371 48.8216 63.9961 48.6826 63.9141 48.5596C63.832 48.4365 63.6771 48.3249 63.4492 48.2246C63.2259 48.1198 62.8978 48.0218 62.4648 47.9307C62.082 47.8486 61.7288 47.7461 61.4053 47.623C61.0817 47.5 60.8037 47.3519 60.5713 47.1787C60.3389 47.001 60.1566 46.7936 60.0244 46.5566C59.8968 46.3151 59.833 46.0371 59.833 45.7227C59.833 45.4173 59.8991 45.1302 60.0312 44.8613C60.1634 44.5879 60.3548 44.3486 60.6055 44.1436C60.8561 43.9339 61.1615 43.7699 61.5215 43.6514C61.8815 43.5283 62.2871 43.4668 62.7383 43.4668C63.3672 43.4668 63.9072 43.5693 64.3584 43.7744C64.8141 43.9795 65.1628 44.262 65.4043 44.6221C65.6458 44.9775 65.7666 45.3786 65.7666 45.8252H63.9619C63.9619 45.6292 63.9163 45.4515 63.8252 45.292C63.7386 45.1325 63.6042 45.0049 63.4219 44.9092C63.2396 44.8089 63.0094 44.7588 62.7314 44.7588C62.4808 44.7588 62.2689 44.7998 62.0957 44.8818C61.9271 44.9639 61.7995 45.071 61.7129 45.2031C61.6263 45.3353 61.583 45.4811 61.583 45.6406C61.583 45.7591 61.6058 45.8662 61.6514 45.9619C61.7015 46.0531 61.7812 46.1374 61.8906 46.2148C62 46.2923 62.1481 46.363 62.335 46.4268C62.5264 46.4906 62.7611 46.5521 63.0391 46.6113C63.5905 46.7207 64.0713 46.8665 64.4814 47.0488C64.8962 47.2266 65.2197 47.4635 65.4521 47.7598C65.6846 48.056 65.8008 48.4342 65.8008 48.8945C65.8008 49.2227 65.7301 49.5234 65.5889 49.7969C65.4476 50.0658 65.2425 50.3005 64.9736 50.501C64.7048 50.7015 64.3835 50.8587 64.0098 50.9727C63.6361 51.082 63.2145 51.1367 62.7451 51.1367C62.0661 51.1367 61.4919 51.016 61.0225 50.7744C60.5531 50.5283 60.1976 50.2184 59.9561 49.8447C59.7145 49.4665 59.5938 49.0745 59.5938 48.6689H61.3232C61.3369 48.9561 61.4144 49.1862 61.5557 49.3594C61.6969 49.5326 61.8747 49.6579 62.0889 49.7354C62.3076 49.8083 62.5378 49.8447 62.7793 49.8447C63.0527 49.8447 63.2829 49.8083 63.4697 49.7354C63.6566 49.6579 63.7979 49.5553 63.8936 49.4277C63.9893 49.2956 64.0371 49.1452 64.0371 48.9766Z" fill="white"/>
</g>
</svg>
