<svg width="28" height="47" viewBox="0 0 28 47" fill="none" xmlns="http://www.w3.org/2000/svg">
<g clip-path="url(#clip0_12_123)">
<path fill-rule="evenodd" clip-rule="evenodd" d="M16.1538 9.61366C18.5231 9.61366 20.4615 7.69093 20.4615 5.34093C20.4615 2.99093 18.5231 1.06821 16.1538 1.06821C13.7846 1.06821 11.8462 2.99093 11.8462 5.34093C11.8462 7.69093 13.7846 9.61366 16.1538 9.61366ZM8.18462 16.8773L2.67077 44.4578C2.39077 45.7609 3.42462 47 4.78154 47H4.95385C5.96615 47 6.82769 46.3164 7.06462 45.3337L10.5538 29.9091L15.0769 34.1818V44.8637C15.0769 46.0387 16.0462 47 17.2308 47C18.4154 47 19.3846 46.0387 19.3846 44.8637V32.8146C19.3846 31.6396 18.9108 30.5287 18.0492 29.7168L14.8615 26.7046L16.1538 20.2955C18.4585 22.9446 21.7969 24.8459 25.5446 25.4441C26.8369 25.6364 28 24.6109 28 23.3078C28 22.2609 27.2246 21.385 26.1692 21.2141C22.8954 20.68 20.1815 18.7573 18.7385 16.2364L16.5846 12.8182C15.3785 10.9168 12.9662 10.1478 10.8769 11.0237L2.62769 14.4846C1.03385 15.1682 0 16.7064 0 18.4368V23.5C0 24.675 0.969231 25.6364 2.15385 25.6364C3.33846 25.6364 4.30769 24.675 4.30769 23.5V18.3728L8.18462 16.8773Z" fill="#1D1D1D"/>
</g>
<defs>
<clipPath id="clip0_12_123">
<rect width="28" height="47" fill="white"/>
</clipPath>
</defs>
</svg>
