<svg width="31" height="31" viewBox="0 0 31 31" fill="none" xmlns="http://www.w3.org/2000/svg">
<path d="M29.3421 20.4435H19.0866C18.5246 20.4435 18.0692 19.988 18.0692 19.426C18.0692 18.8641 18.5246 18.4086 19.0866 18.4086H29.3418C29.9038 18.4086 30.3593 18.8641 30.3593 19.426C30.3593 19.988 29.9041 20.4435 29.3421 20.4435Z" fill="#273F45"/>
<path d="M16.6199 22.9103C14.6989 22.9103 13.136 21.3475 13.136 19.4264C13.136 17.5051 14.6989 15.9423 16.6199 15.9423C18.5412 15.9423 20.1041 17.5051 20.1041 19.4264C20.1041 21.3471 18.5412 22.9103 16.6199 22.9103ZM16.6199 17.9769C15.8208 17.9769 15.171 18.627 15.171 19.4261C15.171 20.2248 15.8212 20.875 16.6199 20.875C17.419 20.875 18.0691 20.2248 18.0691 19.4261C18.0691 18.627 17.419 17.9769 16.6199 17.9769Z" fill="#273F45"/>
<path d="M14.1532 20.4435H1.65823C1.09624 20.4435 0.640747 19.988 0.640747 19.426C0.640747 18.8641 1.09624 18.4086 1.65823 18.4086H14.1535C14.7155 18.4086 15.171 18.8641 15.171 19.426C15.171 19.988 14.7152 20.4435 14.1532 20.4435Z" fill="#273F45"/>
<path d="M29.3421 12.5914H9.74209C9.1801 12.5914 8.72461 12.1359 8.72461 11.5739C8.72461 11.0119 9.1801 10.5564 9.74209 10.5564H29.3421C29.9041 10.5564 30.3596 11.0119 30.3596 11.5739C30.3596 12.1359 29.9041 12.5914 29.3421 12.5914Z" fill="#273F45"/>
<path d="M7.27538 15.0581C5.35404 15.0581 3.7912 13.4952 3.7912 11.5739C3.7912 9.65257 5.35404 8.08972 7.27538 8.08972C9.19672 8.08972 10.7596 9.65257 10.7596 11.5739C10.7596 13.4952 9.19638 15.0581 7.27538 15.0581ZM7.27538 10.1247C6.47632 10.1247 5.82615 10.7748 5.82615 11.5739C5.82615 12.373 6.47632 13.0231 7.27538 13.0231C8.07444 13.0231 8.72461 12.373 8.72461 11.5739C8.72461 10.7748 8.0741 10.1247 7.27538 10.1247Z" fill="#273F45"/>
<path d="M4.80868 12.5914H1.65823C1.09624 12.5914 0.640747 12.1359 0.640747 11.5739C0.640747 11.0119 1.09624 10.5564 1.65823 10.5564H4.80868C5.37066 10.5564 5.82615 11.0119 5.82615 11.5739C5.82615 12.1359 5.37032 12.5914 4.80868 12.5914Z" fill="#273F45"/>
<path d="M19.786 4.73942H1.65823C1.09624 4.73942 0.640747 4.28393 0.640747 3.72195C0.640747 3.15996 1.09624 2.70447 1.65823 2.70447H19.786C20.3479 2.70447 20.8034 3.15996 20.8034 3.72195C20.8034 4.28393 20.3479 4.73942 19.786 4.73942Z" fill="#273F45"/>
<path d="M22.2523 7.20616C20.3313 7.20616 18.7685 5.64331 18.7685 3.72198C18.7685 1.80064 20.3313 0.237793 22.2523 0.237793C24.1737 0.237793 25.7365 1.80064 25.7365 3.72198C25.7365 5.64331 24.1737 7.20616 22.2523 7.20616ZM22.2523 2.27275C21.4536 2.27275 20.8034 2.92292 20.8034 3.72198C20.8034 4.52104 21.4536 5.1712 22.2523 5.1712C23.0514 5.1712 23.7016 4.52104 23.7016 3.72198C23.7016 2.92292 23.0517 2.27275 22.2523 2.27275Z" fill="#273F45"/>
<path d="M29.3421 4.73942H24.7194C24.1574 4.73942 23.7019 4.28393 23.7019 3.72195C23.7019 3.15996 24.1574 2.70447 24.7194 2.70447H29.3421C29.9041 2.70447 30.3596 3.15996 30.3596 3.72195C30.3596 4.28393 29.9041 4.73942 29.3421 4.73942Z" fill="#273F45"/>
<path d="M29.3421 28.2958H9.74209C9.1801 28.2958 8.72461 27.8403 8.72461 27.2783C8.72461 26.7164 9.1801 26.2609 9.74209 26.2609H29.3421C29.9041 26.2609 30.3596 26.7164 30.3596 27.2783C30.3596 27.8403 29.9041 28.2958 29.3421 28.2958Z" fill="#273F45"/>
<path d="M7.27538 30.7621C5.35404 30.7621 3.7912 29.1992 3.7912 27.2782C3.7912 25.3569 5.35404 23.7941 7.27538 23.7941C9.19672 23.7941 10.7596 25.3569 10.7596 27.2782C10.7592 29.1992 9.19638 30.7621 7.27538 30.7621ZM7.27538 25.8287C6.47632 25.8287 5.82615 26.4789 5.82615 27.2779C5.82615 28.0766 6.47632 28.7268 7.27538 28.7268C8.07444 28.7268 8.72461 28.0766 8.72461 27.2779C8.72427 26.4789 8.0741 25.8287 7.27538 25.8287Z" fill="#273F45"/>
<path d="M4.80868 28.2958H1.65823C1.09624 28.2958 0.640747 27.8403 0.640747 27.2783C0.640747 26.7164 1.09624 26.2609 1.65823 26.2609H4.80868C5.37066 26.2609 5.82615 26.7164 5.82615 27.2783C5.82615 27.8403 5.37032 28.2958 4.80868 28.2958Z" fill="#273F45"/>
</svg>
