<svg width="30" height="30" viewBox="0 0 30 30" fill="none" xmlns="http://www.w3.org/2000/svg">
<g clip-path="url(#clip0_47_5)">
<path d="M14.0625 28.125H1.87502V1.87507H14.0625C14.58 1.87507 15 1.45504 15 0.937595C15 0.420154 14.5799 0.00012207 14.0625 0.00012207H0.937473C0.420032 0.00012207 0 0.420076 0 0.937595V29.0625C0 29.58 0.420032 30 0.937473 30H14.0624C14.5799 30 14.9999 29.5799 14.9999 29.0625C15 28.545 14.5799 28.125 14.0625 28.125Z" fill="#273F45"/>
<path d="M29.728 14.3456L23.2593 7.7841C22.8927 7.41378 22.2993 7.41472 21.9337 7.7841C21.5671 8.15348 21.5671 8.75344 21.9337 9.12282L26.8087 14.0681H7.50281C6.98529 14.0681 6.56534 14.4919 6.56534 15.015C6.56534 15.5382 6.98537 15.9619 7.50281 15.9619H26.8087L21.9337 20.9072C21.5671 21.2776 21.5671 21.8766 21.9337 22.246C22.3002 22.6163 22.8937 22.6163 23.2593 22.246L29.7271 15.6844C30.089 15.3197 30.0927 14.7094 29.728 14.3456Z" fill="#273F45"/>
</g>
<defs>
<clipPath id="clip0_47_5">
<rect width="30" height="30" fill="white"/>
</clipPath>
</defs>
</svg>
