<svg width="59" height="59" viewBox="0 0 59 59" fill="none" xmlns="http://www.w3.org/2000/svg">
<path d="M29.5 0C13.1956 0 0 13.194 0 29.5C0 45.8045 13.1938 59 29.5 59C45.8045 59 59 45.806 59 29.5C59 13.1955 45.806 0 29.5 0ZM40.129 32.7747L26.267 40.7843C25.0976 41.4601 23.6557 41.4612 22.4843 40.7854C21.3137 40.1099 20.5927 38.8611 20.5927 37.5097V21.4904C20.5927 20.1389 21.3139 18.8903 22.4843 18.2148C23.0692 17.8771 23.722 17.7083 24.3748 17.7083C25.0282 17.7083 25.6817 17.8775 26.267 18.2156L40.1291 26.2252C41.2986 26.9009 42.0189 28.1491 42.0189 29.4999C42.0189 30.8508 41.2985 32.0989 40.129 32.7747Z" fill="#5D9447"/>
</svg>
