<svg width="58" height="58" viewBox="0 0 58 58" fill="none" xmlns="http://www.w3.org/2000/svg">
<path fill-rule="evenodd" clip-rule="evenodd" d="M29 4.83334C15.66 4.83334 4.83331 15.66 4.83331 29C4.83331 42.34 15.66 53.1667 29 53.1667C42.34 53.1667 53.1666 42.34 53.1666 29C53.1666 15.66 42.34 4.83334 29 4.83334ZM29 12.0833C33.0116 12.0833 36.25 15.3217 36.25 19.3333C36.25 23.345 33.0116 26.5833 29 26.5833C24.9883 26.5833 21.75 23.345 21.75 19.3333C21.75 15.3217 24.9883 12.0833 29 12.0833ZM29 46.4C22.9583 46.4 17.6175 43.3067 14.5 38.6183C14.5725 33.8092 24.1666 31.175 29 31.175C33.8091 31.175 43.4275 33.8092 43.5 38.6183C40.3825 43.3067 35.0416 46.4 29 46.4Z" fill="#1D1D1D"/>
</svg>
