<svg width="67" height="76" viewBox="0 0 67 76" fill="none" xmlns="http://www.w3.org/2000/svg">
<path d="M28.999 68C27.894 68 26.999 68.896 26.999 70V74C26.999 75.104 27.894 76 28.999 76C30.103 76 30.999 75.104 30.999 74V70C30.999 68.896 30.103 68 28.999 68ZM25.442 13.271C25.833 13.662 26.344 13.857 26.856 13.857C27.368 13.857 27.88 13.662 28.27 13.271C29.051 12.49 29.051 11.224 28.27 10.443L25.442 7.615C24.661 6.834 23.395 6.834 22.614 7.615C21.833 8.396 21.833 9.662 22.614 10.443L25.442 13.271ZM40.999 8C42.103 8 42.999 7.104 42.999 6V2C42.999 0.896 42.103 0 40.999 0C39.894 0 38.999 0.896 38.999 2V6C38.999 7.104 39.894 8 40.999 8ZM55.142 13.857C55.654 13.857 56.165 13.662 56.556 13.271L59.384 10.443C60.165 9.662 60.165 8.396 59.384 7.615C58.603 6.834 57.337 6.834 56.556 7.615L53.728 10.443C52.947 11.224 52.947 12.49 53.728 13.271C54.118 13.662 54.63 13.857 55.142 13.857ZM19.999 62C18.894 62 17.999 62.896 17.999 64V68C17.999 69.104 18.894 70 19.999 70C21.103 70 21.999 69.104 21.999 68V64C21.999 62.896 21.103 62 19.999 62ZM64.999 24H60.999C59.894 24 58.999 24.896 58.999 26C58.999 27.104 59.894 28 60.999 28H64.999C66.103 28 66.999 27.104 66.999 26C66.999 24.896 66.103 24 64.999 24ZM28.999 56C27.894 56 26.999 56.896 26.999 58V62C26.999 63.104 27.894 64 28.999 64C30.103 64 30.999 63.104 30.999 62V58C30.999 56.896 30.103 56 28.999 56ZM53.555 32.187C54.5 30.271 54.999 28.166 54.999 26C54.999 18.28 48.719 12 40.999 12C36.398 12 32.104 14.281 29.503 18.021C29.335 18.016 29.169 18 29 18C21.336 18 14.781 23.012 12.688 30.184C12.112 30.079 11.507 30 11 30C4.934 30 0 34.935 0 41C0 47.065 4.934 52 11 52H17.999V56C17.999 57.104 18.894 58 19.999 58C21.103 58 21.999 57.104 21.999 56V52H35.999V56C35.999 57.104 36.894 58 37.999 58C39.103 58 39.999 57.104 39.999 56V52H47C53.065 52 58 47.065 58 41C58 37.392 56.246 34.194 53.555 32.187ZM40.999 16C46.513 16 50.999 20.486 50.999 26C50.999 27.548 50.639 29.05 49.963 30.417C49.018 30.152 48.027 30 47 30C46.492 30 45.888 30.079 45.31 30.184C43.702 24.673 39.456 20.449 34.1 18.783C35.938 17.03 38.396 16 40.999 16ZM47 48H11C7.141 48 4 44.859 4 41C4 37.141 7.141 34 11 34C11.277 34 11.723 34.068 12.192 34.162V36C12.192 37.104 13.088 38 14.192 38C15.296 38 16.192 37.104 16.192 36V32.786C17.263 26.53 22.627 22 29 22C35.37 22 40.733 26.528 41.806 32.781V36C41.806 37.104 42.702 38 43.806 38C44.91 38 45.806 37.104 45.806 36V34.163C46.277 34.069 46.726 34 47 34C50.859 34 54 37.141 54 41C54 44.859 50.859 48 47 48ZM37.999 62C36.894 62 35.999 62.896 35.999 64V68C35.999 69.104 36.894 70 37.999 70C39.103 70 39.999 69.104 39.999 68V64C39.999 62.896 39.103 62 37.999 62Z" fill="black"/>
</svg>
