<svg width="58" height="52" viewBox="0 0 58 52" fill="none" xmlns="http://www.w3.org/2000/svg">
<path d="M47 12C46.493 12 45.888 12.079 45.312 12.184C43.217 5.012 36.663 0 29 0C21.337 0 14.782 5.012 12.689 12.184C12.112 12.079 11.507 12 11 12C4.935 12 0 16.935 0 23C0 29.065 4.935 34 11 34C12.104 34 13 33.104 13 32C13 30.896 12.104 30 11 30C7.14 30 4 26.859 4 23C4 19.141 7.14 16 11 16C11.277 16 11.723 16.068 12.193 16.162V18C12.193 19.104 13.089 20 14.193 20C15.297 20 16.193 19.104 16.193 18V14.779C17.267 8.527 22.63 4 29 4C35.37 4 40.732 8.527 41.807 14.779V18C41.807 19.104 42.703 20 43.807 20C44.911 20 45.807 19.104 45.807 18V16.162C46.277 16.068 46.722 16 47 16C50.859 16 54 19.141 54 23C54 26.859 50.859 30 47 30C45.896 30 45 30.896 45 32C45 33.104 45.896 34 47 34C53.065 34 58 29.065 58 23C58 16.935 53.065 12 47 12Z" fill="black"/>
<path d="M30.485 24.06C29.412 23.79 28.327 24.444 28.059 25.515L22.059 49.515C21.791 50.587 22.443 51.672 23.514 51.941C23.677 51.981 23.84 52 24.001 52C24.897 52 25.712 51.394 25.94 50.485L31.94 26.485C32.208 25.413 31.557 24.328 30.485 24.06Z" fill="black"/>
<path d="M38.484 30.06C37.412 29.789 36.327 30.444 36.059 31.515L33.059 43.515C32.791 44.587 33.443 45.673 34.515 45.941C34.678 45.982 34.841 46.001 35.001 46.001C35.897 46.001 36.713 45.395 36.94 44.486L39.939 32.486C40.208 31.413 39.556 30.327 38.484 30.06Z" fill="black"/>
<path d="M19.484 30.06C18.415 29.789 17.327 30.444 17.059 31.515L14.059 43.515C13.791 44.587 14.443 45.673 15.515 45.941C15.678 45.982 15.841 46.001 16.001 46.001C16.897 46.001 17.713 45.395 17.94 44.486L20.94 32.486C21.208 31.413 20.556 30.327 19.484 30.06Z" fill="black"/>
</svg>
