<svg width="52" height="52" viewBox="0 0 52 52" fill="none" xmlns="http://www.w3.org/2000/svg">
<path d="M41.5206 13.2366L41.5206 13.2367C41.1404 13.6179 40.6413 13.808 40.142 13.808C39.6427 13.808 39.1436 13.6179 38.7634 13.2367L38.7634 13.2366C38.0019 12.4752 38.0019 11.2408 38.7634 10.4794L41.5924 7.65036L41.5924 7.65033C42.3528 6.8889 43.5882 6.88887 44.3496 7.65035C45.1111 8.41183 45.1111 9.64617 44.3496 10.4076L41.5206 13.2366ZM10.4794 38.7634L10.4794 38.7633C11.2398 38.0019 12.4762 38.0019 13.2366 38.7633L13.2366 38.7634C13.9981 39.5248 13.9981 40.7592 13.2366 41.5206L10.4076 44.3496L10.4076 44.3497C10.0274 44.7309 9.52831 44.921 9.029 44.921C8.52969 44.921 8.03061 44.7309 7.6504 44.3497L7.65035 44.3496C6.88888 43.5882 6.88888 42.3538 7.65035 41.5924L10.4794 38.7634ZM10.4794 13.2367L10.4794 13.2366L7.65036 10.4076C6.88888 9.64617 6.88888 8.41183 7.65036 7.65036L7.65038 7.65033C8.41085 6.88889 9.64715 6.88889 10.4076 7.65033L10.4076 7.65035L13.2366 10.4794C13.9981 11.2408 13.9981 12.4752 13.2366 13.2366L13.2366 13.2367C12.8564 13.6179 12.3573 13.808 11.858 13.808C11.3587 13.808 10.8596 13.6179 10.4794 13.2367ZM41.5206 38.7633L41.5206 38.7634L44.3496 41.5924C45.1111 42.3538 45.1111 43.5882 44.3496 44.3496C43.9684 44.7309 43.4703 44.921 42.971 44.921C42.4717 44.921 41.9726 44.7309 41.5924 44.3497L41.5924 44.3496L38.7634 41.5206C38.0019 40.7592 38.0019 39.5248 38.7634 38.7634L38.7634 38.7633C39.5238 38.0019 40.7602 38.0019 41.5206 38.7633ZM6 24.05C7.07639 24.05 7.95 24.9236 7.95 26C7.95 27.0764 7.07639 27.95 6 27.95H2C0.923614 27.95 0.05 27.0764 0.05 26C0.05 24.9236 0.923614 24.05 2 24.05H6ZM27.95 6C27.95 7.07639 27.0764 7.95 26 7.95C24.9236 7.95 24.05 7.07639 24.05 6V2C24.05 0.923614 24.9236 0.05 26 0.05C27.0764 0.05 27.95 0.923614 27.95 2V6ZM46 24.05H50C51.0764 24.05 51.95 24.9236 51.95 26C51.95 27.0764 51.0764 27.95 50 27.95H46C44.9236 27.95 44.05 27.0764 44.05 26C44.05 24.9236 44.9236 24.05 46 24.05ZM24.05 46C24.05 44.9236 24.9236 44.05 26 44.05C27.0764 44.05 27.95 44.9236 27.95 46V50C27.95 51.0764 27.0764 51.95 26 51.95C24.9236 51.95 24.05 51.0764 24.05 50V46ZM12.05 26C12.05 18.3076 18.3076 12.05 26 12.05C33.6924 12.05 39.95 18.3076 39.95 26C39.95 33.6924 33.6924 39.95 26 39.95C18.3076 39.95 12.05 33.6924 12.05 26ZM15.95 26C15.95 31.5416 20.4584 36.05 26 36.05C31.5416 36.05 36.05 31.5416 36.05 26C36.05 20.4584 31.5416 15.95 26 15.95C20.4584 15.95 15.95 20.4584 15.95 26ZM44.385 41.557L41.556 38.728H38.728C37.947 39.509 37.947 40.775 38.728 41.556L41.557 44.385C41.947 44.776 42.459 44.971 42.971 44.971C43.483 44.971 43.994 44.776 44.385 44.385C45.166 43.604 45.166 42.338 44.385 41.557Z" fill="black" stroke="black" stroke-width="0.1"/>
</svg>
