<svg width="52" height="52" viewBox="0 0 52 52" fill="none" xmlns="http://www.w3.org/2000/svg">
<path d="M26 8C27.104 8 28 7.104 28 6V2C28 0.896 27.104 0 26 0C24.895 0 24 0.896 24 2V6C24 7.104 24.895 8 26 8Z" fill="black"/>
<path d="M6 24H2C0.895 24 0 24.896 0 26C0 27.104 0.895 28 2 28H6C7.104 28 8 27.104 8 26C8 24.896 7.104 24 6 24Z" fill="black"/>
<path d="M50 24H46C44.895 24 44 24.896 44 26C44 27.104 44.895 28 46 28H50C51.104 28 52 27.104 52 26C52 24.896 51.104 24 50 24Z" fill="black"/>
<path d="M44.385 7.61505C43.604 6.83405 42.338 6.83405 41.557 7.61505L38.729 10.443C37.948 11.224 37.948 12.49 38.729 13.271C39.12 13.662 39.631 13.857 40.143 13.857C40.655 13.857 41.166 13.662 41.557 13.271L44.385 10.443C45.166 9.66205 45.166 8.39605 44.385 7.61505Z" fill="black"/>
<path d="M13.271 10.443L10.443 7.61505C9.66199 6.83405 8.39599 6.83405 7.61499 7.61505C6.83399 8.39605 6.83399 9.66205 7.61499 10.443L10.443 13.271C10.834 13.662 11.345 13.857 11.857 13.857C12.369 13.857 12.881 13.662 13.271 13.271C14.053 12.49 14.053 11.225 13.271 10.443Z" fill="black"/>
<path d="M26 12C18.28 12 12 18.28 12 26C12 28.449 12.652 30.871 13.888 33.003C14.245 33.62 14.904 34 15.618 34H36.382C37.096 34 37.755 33.62 38.113 33.003C39.348 30.871 40 28.449 40 26C40 18.28 33.72 12 26 12ZM35.157 30H16.843C16.289 28.738 16 27.375 16 26C16 20.486 20.486 16 26 16C31.514 16 36 20.486 36 26C36 27.375 35.711 28.738 35.157 30Z" fill="black"/>
<path d="M27.414 38.586C26.633 37.805 25.367 37.805 24.586 38.586L18.586 44.586C17.805 45.367 17.805 46.633 18.586 47.414C19.367 48.195 20.633 48.195 21.414 47.414L24 44.828V50C24 51.104 24.895 52 26 52C27.104 52 28 51.104 28 50V44.828L30.586 47.414C30.977 47.805 31.488 48 32 48C32.512 48 33.023 47.805 33.414 47.414C34.195 46.633 34.195 45.367 33.414 44.586L27.414 38.586Z" fill="black"/>
</svg>
