<svg width="58" height="52" viewBox="0 0 58 52" fill="none" xmlns="http://www.w3.org/2000/svg">
<path d="M47 12C46.492 12 45.888 12.079 45.311 12.184C43.218 5.012 36.663 0 29 0C21.336 0 14.781 5.012 12.688 12.184C12.112 12.079 11.507 12 11 12C4.935 12 0 16.935 0 23C0 29.065 4.935 34 11 34H22.263L18.336 39.891C17.927 40.504 17.889 41.293 18.236 41.944C18.585 42.594 19.263 43 20 43H22.263L18.336 48.891C17.724 49.81 17.972 51.052 18.891 51.664C19.231 51.892 19.617 52 19.998 52C20.644 52 21.278 51.687 21.664 51.109L27.664 42.109C28.073 41.496 28.111 40.707 27.764 40.056C27.415 39.406 26.737 39 26 39H23.737L27.07 34H32.262L30.335 36.891C29.926 37.504 29.888 38.293 30.235 38.944C30.585 39.594 31.263 40 32 40H34.263L32.336 42.891C31.724 43.81 31.972 45.052 32.891 45.664C33.231 45.892 33.617 46 33.998 46C34.644 46 35.278 45.687 35.664 45.109L39.664 39.109C40.073 38.496 40.111 37.707 39.764 37.056C39.415 36.406 38.737 36 38 36H35.737L37.07 34H47C53.065 34 58 29.065 58 23C58 16.935 53.065 12 47 12ZM47 30H11C7.141 30 4 26.859 4 23C4 19.141 7.141 16 11 16C11.277 16 11.723 16.068 12.193 16.162V18C12.193 19.104 13.088 20 14.193 20C15.298 20 16.193 19.104 16.193 18V14.781C17.266 8.528 22.629 4 29 4C35.37 4 40.733 8.528 41.807 14.782V18C41.807 19.104 42.703 20 43.807 20C44.911 20 45.807 19.104 45.807 18V16.163C46.277 16.069 46.726 16 47 16C50.859 16 54 19.141 54 23C54 26.859 50.859 30 47 30Z" fill="black"/>
</svg>
