<svg width="121" height="148" viewBox="0 0 121 148" fill="none" xmlns="http://www.w3.org/2000/svg">
<rect width="120" height="120" rx="19" fill="white"/>
<path d="M12.873 135.646V141.184C12.6647 141.451 12.3359 141.74 11.8867 142.053C11.444 142.365 10.8646 142.635 10.1484 142.863C9.43229 143.085 8.55339 143.195 7.51172 143.195C6.60677 143.195 5.77995 143.046 5.03125 142.746C4.28255 142.44 3.63802 141.994 3.09766 141.408C2.55729 140.822 2.14062 140.106 1.84766 139.26C1.55469 138.413 1.4082 137.447 1.4082 136.359V135.422C1.4082 134.335 1.54492 133.368 1.81836 132.521C2.09831 131.675 2.49544 130.959 3.00977 130.373C3.5306 129.787 4.15234 129.341 4.875 129.035C5.60417 128.729 6.41797 128.576 7.31641 128.576C8.52083 128.576 9.51042 128.775 10.2852 129.172C11.0664 129.569 11.6654 130.116 12.082 130.812C12.4987 131.503 12.7591 132.297 12.8633 133.195H10.2461C10.1745 132.701 10.0312 132.268 9.81641 131.896C9.60156 131.519 9.29557 131.226 8.89844 131.018C8.50781 130.803 8 130.695 7.375 130.695C6.84766 130.695 6.38216 130.799 5.97852 131.008C5.57487 131.216 5.23633 131.519 4.96289 131.916C4.68945 132.313 4.48112 132.805 4.33789 133.391C4.20117 133.977 4.13281 134.647 4.13281 135.402V136.359C4.13281 137.121 4.21094 137.798 4.36719 138.391C4.52344 138.977 4.74805 139.471 5.04102 139.875C5.34049 140.272 5.70833 140.575 6.14453 140.783C6.58724 140.985 7.08854 141.086 7.64844 141.086C8.15625 141.086 8.57617 141.044 8.9082 140.959C9.24674 140.868 9.51693 140.76 9.71875 140.637C9.92057 140.513 10.0768 140.393 10.1875 140.275V137.609H7.36523V135.646H12.873ZM19.9629 143.195C19.1621 143.195 18.4427 143.065 17.8047 142.805C17.1667 142.544 16.623 142.183 16.1738 141.721C15.7311 141.252 15.3893 140.708 15.1484 140.09C14.9141 139.465 14.7969 138.794 14.7969 138.078V137.688C14.7969 136.874 14.9141 136.135 15.1484 135.471C15.3828 134.8 15.7148 134.224 16.1445 133.742C16.5742 133.26 17.0885 132.889 17.6875 132.629C18.2865 132.368 18.9473 132.238 19.6699 132.238C20.4186 132.238 21.0794 132.365 21.6523 132.619C22.2253 132.867 22.7038 133.218 23.0879 133.674C23.472 134.13 23.7617 134.676 23.957 135.314C24.1523 135.946 24.25 136.646 24.25 137.414V138.498H15.9688V136.721H21.7109V136.525C21.6979 136.115 21.6198 135.741 21.4766 135.402C21.3333 135.057 21.112 134.784 20.8125 134.582C20.513 134.374 20.1257 134.27 19.6504 134.27C19.2663 134.27 18.931 134.354 18.6445 134.523C18.3646 134.686 18.1302 134.921 17.9414 135.227C17.7591 135.526 17.6224 135.884 17.5312 136.301C17.4401 136.717 17.3945 137.18 17.3945 137.688V138.078C17.3945 138.521 17.4531 138.931 17.5703 139.309C17.694 139.686 17.873 140.015 18.1074 140.295C18.3483 140.568 18.6348 140.783 18.9668 140.939C19.3053 141.089 19.6895 141.164 20.1191 141.164C20.6595 141.164 21.1478 141.06 21.584 140.852C22.0267 140.637 22.4108 140.321 22.7363 139.904L24.0352 141.252C23.8138 141.577 23.5143 141.89 23.1367 142.189C22.7656 142.489 22.3164 142.733 21.7891 142.922C21.2617 143.104 20.653 143.195 19.9629 143.195ZM30.9785 132.434V134.289H24.9238V132.434H30.9785ZM26.5449 129.836H29.1328V139.953C29.1328 140.266 29.1751 140.507 29.2598 140.676C29.3444 140.845 29.4714 140.959 29.6406 141.018C29.8099 141.076 30.0117 141.105 30.2461 141.105C30.4154 141.105 30.5716 141.096 30.7148 141.076C30.8581 141.057 30.9785 141.037 31.0762 141.018L31.0859 142.951C30.8711 143.023 30.627 143.081 30.3535 143.127C30.0866 143.173 29.7839 143.195 29.4453 143.195C28.8659 143.195 28.3581 143.098 27.9219 142.902C27.4857 142.701 27.1471 142.378 26.9062 141.936C26.6654 141.486 26.5449 140.894 26.5449 140.158V129.836ZM43.4883 128.781V143H40.8125V128.781H43.4883ZM47.9023 128.781V130.9H36.4473V128.781H47.9023ZM52.0234 128V143H49.4355V128H52.0234ZM51.6133 137.336H50.8516C50.8516 136.6 50.9492 135.923 51.1445 135.305C51.3398 134.686 51.6165 134.149 51.9746 133.693C52.3327 133.231 52.7591 132.873 53.2539 132.619C53.7552 132.365 54.3086 132.238 54.9141 132.238C55.4349 132.238 55.9069 132.313 56.3301 132.463C56.7598 132.606 57.1276 132.837 57.4336 133.156C57.7396 133.475 57.974 133.892 58.1367 134.406C58.306 134.914 58.3906 135.533 58.3906 136.262V143H55.793V136.242C55.793 135.754 55.7214 135.37 55.5781 135.09C55.4349 134.803 55.2298 134.598 54.9629 134.475C54.7025 134.351 54.3802 134.289 53.9961 134.289C53.5794 134.289 53.2214 134.37 52.9219 134.533C52.6224 134.689 52.375 134.908 52.1797 135.188C51.9909 135.467 51.8477 135.79 51.75 136.154C51.6589 136.519 51.6133 136.913 51.6133 137.336ZM65.4121 143.195C64.6113 143.195 63.8919 143.065 63.2539 142.805C62.6159 142.544 62.0723 142.183 61.623 141.721C61.1803 141.252 60.8385 140.708 60.5977 140.09C60.3633 139.465 60.2461 138.794 60.2461 138.078V137.688C60.2461 136.874 60.3633 136.135 60.5977 135.471C60.832 134.8 61.1641 134.224 61.5938 133.742C62.0234 133.26 62.5378 132.889 63.1367 132.629C63.7357 132.368 64.3965 132.238 65.1191 132.238C65.8678 132.238 66.5286 132.365 67.1016 132.619C67.6745 132.867 68.153 133.218 68.5371 133.674C68.9212 134.13 69.2109 134.676 69.4062 135.314C69.6016 135.946 69.6992 136.646 69.6992 137.414V138.498H61.418V136.721H67.1602V136.525C67.1471 136.115 67.069 135.741 66.9258 135.402C66.7826 135.057 66.5612 134.784 66.2617 134.582C65.9622 134.374 65.5749 134.27 65.0996 134.27C64.7155 134.27 64.3802 134.354 64.0938 134.523C63.8138 134.686 63.5794 134.921 63.3906 135.227C63.2083 135.526 63.0716 135.884 62.9805 136.301C62.8893 136.717 62.8438 137.18 62.8438 137.688V138.078C62.8438 138.521 62.9023 138.931 63.0195 139.309C63.1432 139.686 63.3223 140.015 63.5566 140.295C63.7975 140.568 64.084 140.783 64.416 140.939C64.7546 141.089 65.1387 141.164 65.5684 141.164C66.1087 141.164 66.597 141.06 67.0332 140.852C67.4759 140.637 67.86 140.321 68.1855 139.904L69.4844 141.252C69.263 141.577 68.9635 141.89 68.5859 142.189C68.2148 142.489 67.7656 142.733 67.2383 142.922C66.7109 143.104 66.1022 143.195 65.4121 143.195ZM82.0527 136.662H78.4199L78.4004 134.768H81.5156C82.0495 134.768 82.4954 134.693 82.8535 134.543C83.2116 134.393 83.4818 134.175 83.6641 133.889C83.8529 133.602 83.9473 133.254 83.9473 132.844C83.9473 132.388 83.8594 132.017 83.6836 131.73C83.5143 131.444 83.2474 131.236 82.8828 131.105C82.5182 130.969 82.056 130.9 81.4961 130.9H79.2891V143H76.6035V128.781H81.4961C82.3034 128.781 83.0228 128.859 83.6543 129.016C84.2923 129.165 84.8327 129.4 85.2754 129.719C85.7181 130.038 86.0534 130.438 86.2812 130.92C86.5156 131.402 86.6328 131.975 86.6328 132.639C86.6328 133.225 86.4961 133.765 86.2227 134.26C85.9557 134.748 85.5423 135.145 84.9824 135.451C84.429 135.757 83.7259 135.933 82.873 135.979L82.0527 136.662ZM81.9355 143H77.6289L78.752 140.891H81.9355C82.4694 140.891 82.9089 140.803 83.2539 140.627C83.6055 140.451 83.8659 140.21 84.0352 139.904C84.2109 139.592 84.2988 139.234 84.2988 138.83C84.2988 138.387 84.2207 138.003 84.0645 137.678C83.9147 137.352 83.6738 137.102 83.3418 136.926C83.0163 136.75 82.5866 136.662 82.0527 136.662H79.2598L79.2793 134.768H82.834L83.4492 135.5C84.2695 135.507 84.9368 135.669 85.4512 135.988C85.972 136.307 86.3561 136.717 86.6035 137.219C86.8509 137.72 86.9746 138.26 86.9746 138.84C86.9746 139.751 86.776 140.516 86.3789 141.135C85.9883 141.753 85.4154 142.219 84.6602 142.531C83.9115 142.844 83.0033 143 81.9355 143ZM95.3926 140.49V132.434H97.9902V143H95.5488L95.3926 140.49ZM95.7246 138.303L96.5254 138.283C96.5254 138.993 96.4473 139.647 96.291 140.246C96.1348 140.845 95.8906 141.366 95.5586 141.809C95.2331 142.245 94.8197 142.587 94.3184 142.834C93.8171 143.075 93.2246 143.195 92.541 143.195C92.0202 143.195 91.5449 143.124 91.1152 142.98C90.6855 142.831 90.3145 142.6 90.002 142.287C89.696 141.968 89.4583 141.561 89.2891 141.066C89.1198 140.565 89.0352 139.963 89.0352 139.26V132.434H91.6133V139.279C91.6133 139.631 91.6523 139.924 91.7305 140.158C91.8151 140.393 91.929 140.585 92.0723 140.734C92.222 140.878 92.3945 140.982 92.5898 141.047C92.7917 141.105 93.0065 141.135 93.2344 141.135C93.8594 141.135 94.3509 141.011 94.709 140.764C95.0736 140.51 95.334 140.171 95.4902 139.748C95.6465 139.318 95.7246 138.837 95.7246 138.303ZM106.086 140.109C106.086 139.888 106.027 139.689 105.91 139.514C105.793 139.338 105.572 139.178 105.246 139.035C104.927 138.885 104.458 138.745 103.84 138.615C103.293 138.498 102.788 138.352 102.326 138.176C101.864 138 101.467 137.788 101.135 137.541C100.803 137.287 100.542 136.991 100.354 136.652C100.171 136.307 100.08 135.91 100.08 135.461C100.08 135.025 100.174 134.615 100.363 134.23C100.552 133.84 100.826 133.498 101.184 133.205C101.542 132.906 101.978 132.671 102.492 132.502C103.007 132.326 103.586 132.238 104.23 132.238C105.129 132.238 105.9 132.385 106.545 132.678C107.196 132.971 107.694 133.374 108.039 133.889C108.384 134.396 108.557 134.969 108.557 135.607H105.979C105.979 135.327 105.913 135.074 105.783 134.846C105.66 134.618 105.467 134.436 105.207 134.299C104.947 134.156 104.618 134.084 104.221 134.084C103.863 134.084 103.56 134.143 103.312 134.26C103.072 134.377 102.889 134.53 102.766 134.719C102.642 134.908 102.58 135.116 102.58 135.344C102.58 135.513 102.613 135.666 102.678 135.803C102.749 135.933 102.863 136.053 103.02 136.164C103.176 136.275 103.387 136.376 103.654 136.467C103.928 136.558 104.263 136.646 104.66 136.73C105.448 136.887 106.135 137.095 106.721 137.355C107.313 137.609 107.775 137.948 108.107 138.371C108.439 138.794 108.605 139.335 108.605 139.992C108.605 140.461 108.505 140.891 108.303 141.281C108.101 141.665 107.808 142.001 107.424 142.287C107.04 142.574 106.581 142.798 106.047 142.961C105.513 143.117 104.911 143.195 104.24 143.195C103.27 143.195 102.45 143.023 101.779 142.678C101.109 142.326 100.601 141.883 100.256 141.35C99.9108 140.809 99.7383 140.249 99.7383 139.67H102.209C102.229 140.08 102.339 140.409 102.541 140.656C102.743 140.904 102.997 141.083 103.303 141.193C103.615 141.298 103.944 141.35 104.289 141.35C104.68 141.35 105.008 141.298 105.275 141.193C105.542 141.083 105.744 140.936 105.881 140.754C106.018 140.565 106.086 140.35 106.086 140.109ZM113.098 128V143H110.51V128H113.098ZM112.688 137.336H111.926C111.926 136.6 112.023 135.923 112.219 135.305C112.414 134.686 112.691 134.149 113.049 133.693C113.407 133.231 113.833 132.873 114.328 132.619C114.829 132.365 115.383 132.238 115.988 132.238C116.509 132.238 116.981 132.313 117.404 132.463C117.834 132.606 118.202 132.837 118.508 133.156C118.814 133.475 119.048 133.892 119.211 134.406C119.38 134.914 119.465 135.533 119.465 136.262V143H116.867V136.242C116.867 135.754 116.796 135.37 116.652 135.09C116.509 134.803 116.304 134.598 116.037 134.475C115.777 134.351 115.454 134.289 115.07 134.289C114.654 134.289 114.296 134.37 113.996 134.533C113.697 134.689 113.449 134.908 113.254 135.188C113.065 135.467 112.922 135.79 112.824 136.154C112.733 136.519 112.688 136.913 112.688 137.336Z" fill="white"/>
<line x1="19" y1="59.5" x2="29" y2="59.5" stroke="white"/>
<line x1="91" y1="59.5" x2="101" y2="59.5" stroke="white"/>
<line x1="59.5" y1="101" x2="59.5" y2="91" stroke="white"/>
<line x1="60.5" y1="29" x2="60.5" y2="19" stroke="white"/>
<path d="M56.6047 36.3307C56.5496 36.643 56.5956 37.1941 56.715 37.6166C56.7609 37.7911 56.6966 37.8186 55.5944 38.0115C54.9423 38.1217 54.3636 38.2503 54.2901 38.2871C54.088 38.3973 54.9239 39.0678 55.6311 39.3617C56.1639 39.5822 56.3751 39.6189 57.2109 39.6189L58.1754 39.6281L57.5324 40.0873C56.219 41.0242 56.1179 41.0793 55.9618 40.914C55.7689 40.7303 55.1994 40.7395 54.4003 40.9507L53.739 41.1161L53.7023 40.2802C53.6564 39.2515 53.4635 38.8657 52.499 37.8646C51.7551 37.093 51.406 36.9001 51.1672 37.1389C50.9927 37.3135 50.9835 37.7911 51.1029 40.0138L51.1672 41.2263L50.6253 41.0426C50.3314 40.9415 49.569 40.7762 48.9261 40.6844C48.2831 40.5833 47.6126 40.4823 47.4289 40.4455C47.1534 40.3996 47.1074 40.418 47.1074 40.5558C47.1074 40.7946 47.5024 41.6212 47.6861 41.7774C47.7779 41.8417 47.8422 41.9335 47.8422 41.9703C47.8422 42.007 47.5024 42.0529 47.0891 42.0805C45.9134 42.1448 45.4174 42.4754 45.6929 43.0357C45.9961 43.6603 46.9146 43.8991 49.1006 43.9083C50.1109 43.9175 50.7171 43.8899 50.8457 43.8164C51.2223 43.6236 51.2774 43.7154 50.9651 44.0369C50.7355 44.2665 50.5518 44.3675 50.2395 44.4135C50.0099 44.4502 49.5507 44.5788 49.22 44.6982C48.8159 44.8452 48.3474 44.937 47.7779 44.9738C46.8594 45.0289 46.887 45.0105 46.9237 45.5983C46.988 46.774 49.3853 47.8854 50.9008 47.4445C51.3693 47.3067 51.4703 47.2241 51.9296 46.6546C52.2143 46.2964 52.6093 45.9014 52.8021 45.7729L53.1604 45.534L53.6839 45.9749C54.6116 46.774 55.2821 47.5731 55.6495 48.3538C55.9893 49.0795 55.9985 49.0978 55.9526 49.9796L55.9067 50.8797L55.1535 50.1174C54.7494 49.6948 54.2717 49.254 54.1156 49.1437L53.8125 48.9417V49.3091C53.8125 49.5203 53.8952 49.8877 53.987 50.1449C54.088 50.3929 54.1523 50.6042 54.1523 50.6042C54.1432 50.6042 53.8492 50.5031 53.491 50.3745C53.142 50.2551 52.747 50.1449 52.6184 50.1449C52.4347 50.1449 52.4164 50.1265 52.5266 50.0531C52.7562 49.9061 51.4428 49.9428 50.8274 50.099C49.5966 50.4205 48.4576 51.3022 47.631 52.5606C47.3554 52.9739 47.1074 53.3964 47.0707 53.4974C46.9513 53.8648 46.6849 54.0761 46.1981 54.1771C45.9409 54.2322 45.7021 54.2782 45.6838 54.2782C45.6654 54.2782 45.794 54.0026 45.9685 53.672C46.3359 52.9647 46.391 52.4412 46.0971 52.4412C45.9961 52.4412 45.7572 52.5055 45.5735 52.5789C45.1418 52.7626 45.0867 52.7535 45.0867 52.5055C45.0867 52.2299 44.7561 51.2287 44.5173 50.7603C44.4162 50.5582 44.3519 50.3929 44.3703 50.3837C44.3887 50.3654 45.1602 50.3837 46.0971 50.4205C47.9525 50.4756 48.6138 50.4021 49.1373 50.0806C49.4864 49.8602 49.5231 49.8785 48.4852 49.603C48.1086 49.4928 47.4473 49.3091 47.0156 49.1805C45.9869 48.8682 44.6275 48.7763 44.0488 48.9784C43.5528 49.1437 43.4334 49.0703 43.4334 48.5835C43.4334 48.3538 43.3416 48.1242 43.1671 47.8762L42.9007 47.5088L44.1682 47.4078C45.6378 47.2976 46.0328 47.1598 45.9869 46.7648C45.9685 46.6087 45.8583 46.4709 45.6838 46.3607C45.0224 45.9841 42.7078 45.9014 42.0465 46.2505C41.8261 46.3607 41.7618 46.3699 41.8352 46.278C42.0373 46.03 42.1475 45.2677 42.1475 44.2022C42.1475 42.6132 41.9363 42.2917 41.4403 43.1092C41.1096 43.6603 40.981 44.1287 40.88 45.2769L40.8157 46.0576L40.0809 46.1035C39.5023 46.1403 39.0889 46.2505 38.1521 46.5995C36.71 47.1414 36.6273 47.2057 36.958 47.4629C37.7663 48.0967 40.4116 48.5284 40.9351 48.1058C41.0637 48.0048 41.0729 48.014 41.0086 48.1701C40.5769 49.2723 40.3105 50.4848 40.3105 51.3941C40.3105 52.0646 40.3565 52.0921 40.9719 51.7982C41.2474 51.6696 41.5413 51.6145 42.0098 51.6145C42.7446 51.6145 43.4426 51.44 43.7274 51.192C43.8743 51.045 43.9202 51.045 43.9845 51.1553C44.1039 51.339 44.0948 51.4308 43.957 51.7064C43.8559 51.8993 43.8651 52.037 44.0029 52.533C44.0948 52.8545 44.1682 53.2403 44.1682 53.3872C44.1682 53.6352 44.1591 53.6444 43.9662 53.5066C43.7274 53.3321 42.2853 53.2954 42.1935 53.4607C42.1567 53.5158 42.4506 53.8648 42.8364 54.2414C43.2222 54.6272 43.5253 54.9579 43.4977 54.9762C43.4702 55.0038 43.2957 54.9119 43.1028 54.7833C42.6894 54.4986 42.2945 54.5078 42.2578 54.7925C42.2394 54.8936 42.3496 55.2059 42.5057 55.4906L42.7721 56.005L42.4598 55.8764C41.9179 55.6467 40.2187 55.757 40.2187 56.0141C40.2187 56.2621 41.7801 57.346 42.5425 57.6307L42.9834 57.796L42.6435 57.9154C42.2302 58.0532 41.9179 58.3471 41.9914 58.5308C42.0189 58.6043 42.2118 58.687 42.4231 58.7237L42.8089 58.7788L42.5517 59.2197C42.4139 59.4585 42.0649 59.9637 41.7801 60.3403C41.1464 61.1761 40.8616 61.7088 40.8616 62.0854C40.8616 62.3885 40.8433 62.4069 40.5953 62.2508C40.4483 62.1589 40.4391 62.1038 40.5126 61.8191C40.6779 61.222 40.4391 59.3116 40.1268 58.6778C39.8145 58.0808 39.7227 58.0716 39.3553 58.5676C38.9695 59.0819 38.8777 59.385 38.7766 60.3678L38.7032 61.0934L37.6469 60.3862C36.7651 59.7984 36.5447 59.5963 36.3334 59.2289L36.0854 58.7788L36.2691 58.4114C36.6916 57.594 36.857 56.3264 36.5998 55.9682C36.4712 55.8029 36.4253 55.8304 35.7088 56.5285C35.3047 56.9326 34.8455 57.4194 34.7077 57.6123L34.4505 57.9614L34.1107 57.5388C33.8902 57.2817 33.6973 57.1255 33.5687 57.1255C33.2656 57.1255 32.2002 55.9223 32.4022 55.8029C32.4482 55.7753 32.8247 55.858 33.2473 55.9866C33.6698 56.1152 34.2944 56.2438 34.6434 56.2713L35.2588 56.3264V56.0692C35.2588 55.8764 35.0843 55.6375 34.5515 55.0864C33.8902 54.4068 33.8535 54.3516 34.1107 54.3976C34.2668 54.4343 34.5699 54.4619 34.7995 54.4802C35.1669 54.4986 35.2129 54.4802 35.2404 54.3057C35.2771 54.021 34.974 53.3689 34.6158 52.9555L34.3127 52.6157L35.0934 52.68C35.9752 52.7443 36.2691 52.6616 36.2691 52.3034C36.2691 52.0554 36.0671 51.8258 35.7272 51.688C35.268 51.5227 34.0188 51.2563 33.1554 51.1461C32.4298 51.0634 32.2369 51.0726 31.9154 51.1828C31.7134 51.2655 31.2725 51.339 30.9418 51.3573C30.6112 51.3757 30.1978 51.4676 30.0233 51.5594C29.6835 51.7339 28.9487 51.9819 28.7742 51.9819C28.719 51.9819 28.618 51.8625 28.5537 51.7064C28.4894 51.5594 28.3608 51.4124 28.2598 51.3757C28.1679 51.3481 28.0945 51.293 28.1128 51.2655C28.2047 51.0726 28.765 49.998 28.7925 49.9704C28.8017 49.952 28.9487 50.0898 29.1048 50.2643C29.4447 50.6501 30.0601 50.9716 30.4642 50.9716C30.7214 50.9716 30.7581 50.9348 30.8132 50.6409C30.8867 50.2643 30.7949 48.8039 30.6571 47.9956C30.602 47.7017 30.5836 47.4445 30.602 47.4262C30.6203 47.3986 30.9694 47.4904 31.3643 47.6282C32.2461 47.9313 33.6238 48.0048 33.679 47.7476C33.6881 47.6741 33.4769 47.3159 33.1921 46.9669L32.687 46.3331L32.9901 46.2872C33.9729 46.1219 32.0257 44.8176 30.1152 44.3584C29.2334 44.1471 29.2242 44.1471 29.1599 43.4123C29.1324 43.0449 29.0405 42.5581 28.9579 42.3193C28.8201 41.8876 28.4711 41.511 28.2231 41.511C27.8005 41.511 26.7167 43.0908 26.8361 43.5317C26.8637 43.6419 26.6065 43.4399 26.184 43.0265C25.5043 42.3652 24.448 41.511 24.3102 41.511C24.1725 41.511 24.2368 41.8325 24.4664 42.3193C24.595 42.5948 24.9532 43.0725 25.2563 43.4031L25.8258 43.991H24.6776C23.3826 43.991 22.7304 44.092 22.1518 44.3675C21.8303 44.5237 21.7752 44.588 21.8578 44.689C22.014 44.8819 22.5375 45.0013 23.5295 45.0656C24.0163 45.0932 24.4205 45.1575 24.4205 45.2034C24.4205 45.2401 24.3562 45.2769 24.2827 45.2769C24.2092 45.2769 23.4377 45.5708 22.5743 45.9382L21.0036 46.5995L21.2425 46.8108C21.371 46.921 21.6558 47.0587 21.8762 47.123C22.0875 47.1782 22.3171 47.2425 22.3814 47.2608C22.4641 47.2884 22.4549 47.3802 22.3079 47.6558C22.2069 47.8578 22.1242 48.0507 22.1242 48.0783C22.1242 48.161 23.3826 48.1242 23.851 48.0232C24.099 47.9773 24.7052 47.7293 25.2012 47.4904L26.1013 47.0496L26.037 48.5284C26.0003 49.3366 25.9544 50.0163 25.936 50.0347C25.9176 50.0531 25.7523 50.0255 25.5502 49.9704C24.6776 49.7224 23.8602 49.952 23.0243 50.6868C22.7855 50.8981 22.4549 51.0726 22.1793 51.1461C20.5352 51.5502 21.1139 51.9819 23.3183 51.9911C23.998 51.9911 24.6409 52.0187 24.7511 52.0462C24.9256 52.083 24.8797 52.2115 24.0898 53.7087C23.1897 55.4263 22.9325 56.1703 22.8039 57.4011L22.7396 58.0899L22.5467 57.5021C22.3355 56.8592 21.6558 55.9958 21.2884 55.9039C21.0955 55.8488 21.0863 55.8672 21.1322 56.7673C21.169 57.5388 21.2149 57.7317 21.3894 57.9705L21.6007 58.2553L21.3802 58.191C21.2608 58.1542 20.7281 58.044 20.2045 57.943C19.4422 57.8052 19.2309 57.796 19.1666 57.8787C18.9646 58.2094 19.2309 59.0084 19.5983 59.1462C19.7361 59.2013 20.1311 59.2381 20.4893 59.2381C21.123 59.2381 21.1414 59.2381 20.9853 59.4126C20.8934 59.5136 20.526 59.7432 20.1678 59.9361C19.8004 60.129 19.2952 60.4413 19.0289 60.6342C18.7625 60.8271 18.4869 60.9832 18.4135 60.9832C18.34 60.9832 18.2573 61.02 18.2298 61.0659C18.1379 61.2037 18.6431 61.2771 19.7269 61.268C20.6546 61.2588 20.7556 61.268 20.6546 61.3966C20.5903 61.47 20.3882 61.5343 20.1954 61.5343C19.8739 61.5343 19.828 61.5711 19.5524 62.0303C19.2677 62.4988 19.2217 62.5263 18.836 62.563C18.4594 62.5906 18.3767 62.5539 17.8624 62.1405C17.1643 61.5711 15.7866 60.6709 15.7314 60.7352C15.7039 60.7628 15.7866 61.0475 15.9243 61.369C16.3468 62.3702 16.3652 62.3059 15.6396 62.2416C15.2906 62.214 14.4823 62.1405 13.8393 62.0854C13.1964 62.0211 12.5534 62.0028 12.4157 62.0395L12.1585 62.1038L12.3697 62.2691C12.5902 62.4528 13.5362 62.7651 14.1792 62.8753L14.5466 62.9396L14.1333 63.0223C12.6361 63.307 11.5982 63.6836 11.2951 64.051C11.1114 64.2715 11.24 64.4552 11.5798 64.4919L11.8829 64.5195L11.5155 64.7399C10.6246 65.2726 10 65.6951 10 65.7686C10 65.9431 10.7899 66.0534 11.5615 65.9891L12.3422 65.9248L11.8278 66.3932C11.5339 66.6504 11.2583 66.981 11.2124 67.128C11.1114 67.4035 11.1206 67.4035 11.5339 67.4678C12.3238 67.5872 14.0322 67.3668 14.6109 67.0729C14.8405 66.9627 14.8864 66.9719 15.0701 67.1556L15.263 67.3484L15.1161 68.2761C15.0334 68.7905 14.9324 69.2957 14.9048 69.4151C14.8681 69.5345 14.8864 69.6171 14.9507 69.6171C15.1895 69.6171 16.1448 69.0569 16.5857 68.6619L17.0541 68.2394L17.3847 68.3772C17.5593 68.4506 17.8624 68.5149 18.0461 68.5149H18.3859L18.3308 67.6699C18.2849 66.9167 18.2941 66.7973 18.4594 66.5677L18.6523 66.3013L19.0932 66.9443C19.3412 67.2933 19.8188 67.8628 20.1494 68.2026C20.4801 68.5517 20.7465 68.8364 20.7465 68.8456C20.7465 68.8548 20.6454 68.8364 20.5168 68.8089C20.3882 68.7905 20.1035 68.7997 19.8739 68.8364C19.4146 68.9007 19.2034 69.0752 18.239 70.1866C17.6511 70.8663 17.6603 70.9122 18.4043 70.9949C18.7166 71.0316 18.8543 71.0867 18.836 71.1602C18.7901 71.3807 19.0013 71.9869 19.1483 72.042C19.4514 72.1614 19.9841 71.794 20.9577 70.802L21.9405 69.7825L22.611 70.1958C23.2723 70.6091 27.5985 72.4829 28.1679 72.6023C28.4159 72.6574 28.5078 72.74 28.6088 72.9972C28.6823 73.1901 28.8017 73.4473 28.8752 73.5851C28.9487 73.732 28.9946 73.8422 28.9762 73.8422C28.9579 73.8422 28.6272 73.6953 28.2322 73.5116C27.8465 73.3371 27.5158 73.1993 27.4974 73.2177C27.4056 73.3279 27.6352 74.3474 27.8005 74.577C28.021 74.871 27.9751 74.9261 27.6903 74.7148C27.5893 74.6413 27.4148 74.577 27.2954 74.577C27.13 74.577 27.0841 74.6322 27.0841 74.8159C27.0841 75.0455 27.0657 75.0547 26.68 74.9996C26.4595 74.9628 26.2483 74.972 26.2207 75.0179C26.1564 75.119 26.4871 75.4312 26.882 75.6241C27.0382 75.7068 27.176 75.8354 27.176 75.9181C27.176 76.2212 26.882 76.1293 26.1472 75.6149C25.7247 75.321 25.192 74.9536 24.9532 74.8067C24.6042 74.5954 24.5123 74.476 24.5123 74.2923C24.5123 73.9433 24.4113 73.4748 24.3286 73.4748C24.2919 73.4748 24.1633 73.6585 24.0439 73.8882C23.7683 74.4025 23.5754 74.4209 22.9784 73.9892C22.5192 73.6677 21.5915 73.1717 21.2149 73.0615L20.9945 72.9972L21.0404 73.9708C21.0679 74.5036 21.0679 74.9444 21.0496 74.9444C21.0312 74.9444 20.4066 74.5403 19.6626 74.0443C17.9818 72.9146 17.8624 72.8686 17.3388 73.0431C16.9806 73.1717 16.9347 73.2177 16.9531 73.4381C16.9806 73.7688 17.3939 74.2739 17.9267 74.6322C18.1563 74.7975 18.5329 75.1465 18.7533 75.4312L19.1666 75.9272L18.5604 75.9915C18.2298 76.0283 17.8256 76.1201 17.6695 76.1844C17.3756 76.3314 15.6672 77.6724 15.6212 77.801C15.5661 77.9296 17.7338 77.8928 18.4686 77.7551C18.836 77.6816 19.4238 77.5162 19.7729 77.3877C20.425 77.1397 20.7465 77.0845 20.7465 77.2315C20.7465 77.2774 20.6822 77.3601 20.5995 77.4336C20.526 77.4979 20.3791 77.7091 20.2688 77.9112C20.0576 78.3429 20.1035 78.6827 20.4066 78.7562C20.5903 78.8021 20.6271 78.9032 20.7189 79.5829C20.8842 80.8045 21.2057 81.2086 21.5915 80.7218C21.913 80.3085 22.9509 78.7011 22.9509 78.6184C22.9509 78.4899 23.0152 78.5082 23.2907 78.6827C23.6214 78.9032 24.7511 78.9032 25.0818 78.6919L25.3114 78.5358L25.2655 79.3441C25.2379 79.8401 25.2563 80.1799 25.3206 80.2075C25.4767 80.3085 25.8441 79.9411 26.0738 79.4543L26.285 78.9858L26.5055 79.6564C26.8361 80.731 27.6168 81.4566 28.4343 81.4658C28.7099 81.4658 28.7282 81.4382 28.7833 81.0617C28.8476 80.6575 28.8476 80.6575 29.4355 80.4646C29.7661 80.3544 30.1887 80.2717 30.3907 80.2717C30.7398 80.2717 30.7581 80.2534 30.7581 79.9962C30.7581 79.7666 30.8683 79.6472 31.4837 79.1695L32.2185 78.6184L32.1726 78.9675C31.9246 80.7126 31.548 81.1535 29.9315 81.5209C28.9303 81.7505 29.215 81.8791 30.6938 81.8791C31.8603 81.8791 31.9246 81.8699 32.5216 81.5852C33.2656 81.2362 33.4493 80.979 33.4585 80.3085C33.4677 80.0329 33.4861 79.8125 33.5044 79.8125C33.5228 79.8125 33.6147 79.9135 33.7157 80.0421C33.9912 80.3912 34.4872 80.3085 34.6434 79.886C34.6893 79.739 34.6893 79.739 35.0567 80.3085C35.222 80.5565 35.3506 80.8504 35.3506 80.9606C35.3506 81.1535 34.9189 81.8424 34.7169 81.971C34.2944 82.2282 35.1394 82.421 36.361 82.3384C37.4815 82.2741 38.1245 82.1179 38.6021 81.7873C38.7858 81.6587 38.9603 81.5576 38.9787 81.5576C39.0889 81.5576 39.0063 82.219 38.8685 82.467C38.7766 82.6139 38.7307 82.7609 38.7583 82.7976C38.8869 82.917 40.3656 82.8803 40.733 82.7425L41.1096 82.5956L40.8433 82.9813C40.6963 83.1926 40.5493 83.5416 40.5218 83.7621L40.4667 84.157L40.733 84.0927C41.4403 83.9366 43.8468 82.963 44.0856 82.7425C44.3336 82.5129 44.3428 82.5129 44.3887 82.6966C44.4162 82.816 44.3703 82.9905 44.2601 83.1375C44.0213 83.4589 44.0305 83.4865 44.306 83.4865C44.453 83.4865 44.5356 83.5416 44.5356 83.6243C44.5356 83.8172 44.7102 83.7988 44.8847 83.5875C44.9765 83.4865 45.2153 83.3855 45.4266 83.3487C45.7664 83.2936 45.8124 83.312 45.8675 83.5049C45.9777 83.8539 46.3726 84.3132 46.7125 84.4785C47.1258 84.6714 47.1901 84.5703 47.2085 83.7161C47.2085 83.3579 47.2452 82.9997 47.2728 82.9078C47.3371 82.7609 47.3738 82.7793 47.6126 83.0273C48.1913 83.6335 49.6149 84.2672 50.6345 84.3683C51.2407 84.4326 51.2407 84.4326 51.2407 84.1937C51.2407 84.0652 51.158 83.7621 51.057 83.5232C50.956 83.2844 50.8917 83.0732 50.9192 83.0456C50.9468 83.0181 51.4152 83.064 51.9571 83.1467C53.3441 83.3671 53.9043 83.3487 53.9043 83.0824C53.9043 82.9446 53.5186 82.568 53.3808 82.568C53.2614 82.568 53.0593 82.1179 53.1236 82.0077C53.1604 81.9618 53.2522 81.8883 53.3532 81.8332C53.5002 81.7597 53.5645 81.8148 53.8125 82.2282C54.2534 82.9446 54.832 83.6702 54.9606 83.6702C55.1443 83.6702 55.2821 82.8619 55.2821 81.8424V80.9331L55.5668 80.878C55.9985 80.7953 56.0169 80.8045 56.0169 81.08C56.0169 81.4934 56.467 82.2741 57.0364 82.8527C57.8355 83.6702 58.1754 83.6059 58.7265 82.5221C58.8643 82.2465 58.9928 82.0169 59.0204 82.0169C59.0388 82.0169 59.048 82.4027 59.0388 82.8803C59.0112 83.9274 59.0755 84.0376 59.6817 84.0376C59.9113 84.0376 60.3706 84.1203 60.6921 84.2213C61.0227 84.3315 61.3442 84.3866 61.4085 84.3683C61.4728 84.3407 61.5279 84.1754 61.5279 83.9917C61.5279 83.6243 61.6657 83.3028 61.8126 83.3028C61.8677 83.3028 62.2903 83.4957 62.7587 83.7253C63.2179 83.9549 63.769 84.1662 63.9711 84.1937C64.3385 84.2397 64.3477 84.2397 64.4947 83.8447C64.5773 83.6151 64.6508 83.1283 64.66 82.7241C64.6692 82.3384 64.6967 82.0169 64.7151 82.0169C64.7427 82.0169 64.8896 82.1088 65.0458 82.219C65.2938 82.3935 65.4866 82.4394 66.2214 82.4578L67.094 82.4945L67.4339 82.0812C67.985 81.4015 67.838 80.7861 66.993 80.2534L66.7174 80.0697L67.1767 80.1248C67.4339 80.1523 68.1779 80.2626 68.83 80.3636C69.4913 80.4646 70.2628 80.5473 70.5568 80.5473H71.0803V80.235C71.0803 80.0054 71.0068 79.8492 70.7864 79.638C70.6302 79.4818 70.4282 79.3441 70.3547 79.3349C70.272 79.3349 70.4741 79.2981 70.8048 79.2614C71.1354 79.2247 71.5487 79.1695 71.7233 79.1236L72.0447 79.0501L71.8427 79.2706C71.5855 79.5461 71.3283 80.1615 71.3926 80.3269C71.5396 80.7034 73.0367 80.2717 73.5052 79.7115L73.7164 79.4635L73.8266 79.7849C73.9828 80.1983 74.5522 80.6024 75.1676 80.731C75.7647 80.8596 76.0402 80.7494 76.0402 80.4003C76.0402 80.0513 76.2055 79.8125 76.4535 79.8125C76.8209 79.8125 77.0965 79.9595 77.3169 80.2901C77.6017 80.6943 78.2354 81.1719 78.5937 81.2454C79.0713 81.3464 79.3927 81.1443 79.705 80.5473C79.8704 80.2442 80.0357 79.9778 80.0816 79.9503C80.1551 79.9043 80.4123 80.1432 80.7705 80.6024C80.9083 80.7677 80.9175 80.7677 81.0736 80.5473C81.5788 79.8217 81.8451 79.8125 82.0748 80.5106L82.2493 81.0249L82.8188 80.5106C83.526 79.8768 83.6638 79.8584 83.6638 80.382C83.6638 80.9147 83.8291 81.4658 84.0036 81.5301C84.2792 81.6403 84.3986 81.3005 84.3986 80.382V79.5186L84.6558 79.5737C84.9497 79.6472 85.3906 79.9595 86.1345 80.6208L86.6765 81.0984L86.9428 80.4554L87.2184 79.8033L86.7499 78.4899C86.4928 77.7642 86.1988 77.0845 86.107 76.9743L85.9325 76.7814H86.5846C87.1082 76.7814 87.2827 76.8182 87.4204 76.956C87.6501 77.1856 88.7155 77.5346 89.2115 77.5346C89.5789 77.5346 89.6157 77.553 89.6708 77.801C89.7167 78.049 89.7534 78.0673 90.1392 78.0673C90.5985 78.0673 90.8465 77.9755 91.1771 77.6632C91.37 77.4887 91.3976 77.4887 91.4802 77.6265C91.8844 78.3429 92.9223 79.2522 93.5468 79.4359C94.4102 79.6839 94.9522 78.5817 94.8419 76.809C94.796 76.0742 94.8052 76.065 94.9981 76.1293C95.1542 76.1936 95.2001 76.3038 95.2461 76.7447C95.3379 77.7459 96.1095 79.0777 97.3311 80.382C98.1118 81.2086 98.6629 81.6495 98.9293 81.6495C99.0854 81.6495 99.0946 81.5576 99.0946 80.4646V79.2798L99.7192 79.5829C100.059 79.7574 100.537 79.9595 100.785 80.0421C101.372 80.235 102.612 80.4003 102.916 80.3269C103.118 80.2717 103.145 80.2258 103.09 80.0146C102.98 79.5553 102.172 78.3062 101.575 77.6724C101.106 77.1764 100.867 77.0111 100.472 76.8733C100.077 76.7355 100.022 76.6988 100.234 76.6896C100.684 76.6896 101.593 76.414 102.392 76.0375C103.154 75.6884 103.173 75.6792 103.338 75.8446C103.485 75.9823 103.494 76.0558 103.412 76.2671C103.366 76.4049 103.32 76.8549 103.32 77.2683C103.329 78.5725 103.99 80.0238 105.065 81.0433C105.901 81.8424 105.919 81.8148 106.02 79.1879C106.094 77.2223 106.038 75.9732 105.846 75.468C105.781 75.3302 105.855 75.3118 106.59 75.3118C107.765 75.3118 108.518 75.1649 109.152 74.8159C109.676 74.5311 110.126 74.0076 109.979 73.8606C109.951 73.8239 108.886 73.7779 107.627 73.7596C105.533 73.732 105.34 73.7228 105.34 73.5759C105.34 73.1258 105.138 71.3715 105.046 71.0867C105.001 70.9122 104.89 70.7193 104.817 70.6642C104.514 70.4162 103.457 71.2796 102.888 72.2532C102.723 72.538 102.622 72.6298 102.548 72.5655C102.006 72.1155 100.142 71.5276 99.9947 71.7572C99.8845 71.9226 99.9029 72.1614 100.05 72.5104C100.151 72.7492 100.16 72.9054 100.087 73.1717C100.041 73.3554 100.022 73.7045 100.05 73.9433C100.105 74.3566 100.096 74.375 99.8202 74.4852C99.6641 74.5495 99.3701 74.7424 99.1681 74.9169C98.6721 75.3302 98.5343 75.3027 98.3047 74.7699C98.0475 74.1821 97.2392 73.5391 96.4769 73.3003C95.9717 73.1442 95.9533 73.1258 96.2013 73.0799C96.3575 73.0523 96.9361 72.9972 97.4872 72.9697C98.6905 72.8962 99.1497 72.7951 99.2783 72.5563C99.4436 72.2532 99.3793 72.2165 98.617 72.1522C97.524 72.0603 97.2025 71.9501 96.7432 71.5276C96.3024 71.1235 96.2381 70.9857 96.5228 71.0592C96.6238 71.0867 96.8075 71.0408 96.9361 70.9581C97.0555 70.8755 97.2392 70.8112 97.3311 70.8112C97.9373 70.8112 97.9373 69.4151 97.3494 68.1108C97.1933 67.7801 97.0739 67.4678 97.0739 67.4127C97.0739 67.3576 97.1749 67.1647 97.2943 66.9902L97.5148 66.6687L97.726 67.7985C97.8914 68.717 97.9832 68.9926 98.2128 69.3048C98.369 69.5161 98.6445 69.9294 98.8374 70.2325C99.0579 70.5999 99.2783 70.8296 99.4895 70.9306C99.8294 71.0959 100.619 71.1327 100.831 71.0041C101.005 70.8939 100.904 70.2876 100.619 69.7182C100.344 69.1763 99.4895 68.322 98.9844 68.0649C98.7547 67.9546 98.6537 67.8628 98.7364 67.8352C98.8099 67.8169 99.3793 67.6699 100.013 67.5046C101.18 67.2015 101.722 66.9902 101.942 66.733C102.043 66.6045 102.034 66.5861 101.914 66.6412C101.832 66.6687 101.281 66.4942 100.684 66.2554C99.9764 65.9615 99.4712 65.8145 99.2324 65.8145C98.865 65.8237 98.2404 66.0717 97.8087 66.3748L97.5791 66.5402L97.8087 66.2187C98.8833 64.6664 101.079 61.8099 101.18 61.8099C101.207 61.8099 101.207 61.865 101.18 61.9385C101.042 62.2967 101.758 64.3449 102.236 64.9603C102.576 65.4012 103.053 64.6389 103.375 63.1325C103.503 62.5355 103.623 62.0303 103.641 62.0028C103.669 61.9844 103.705 62.0487 103.733 62.1405C103.761 62.2324 103.935 62.6182 104.119 62.9947C104.578 63.9224 105.34 64.6848 106.305 65.1808C107.168 65.6308 108.123 65.9615 108.316 65.888C108.546 65.8054 108.675 65.3369 108.61 64.8409C108.518 64.1521 107.866 62.3334 107.37 61.3782C107.122 60.9189 106.838 60.2484 106.727 59.8902C106.617 59.532 106.507 59.183 106.479 59.1003C106.443 59.0268 106.47 58.9625 106.534 58.9625C106.985 58.9625 108.463 56.9235 108.463 56.2989C108.463 56.1152 108.427 56.106 108.078 56.1611C107.857 56.1978 107.177 56.3907 106.571 56.5836C105.956 56.7857 105.432 56.9418 105.405 56.9418C105.377 56.9418 105.396 56.7673 105.451 56.5469C105.552 56.0968 105.478 54.9762 105.294 54.3241C105.046 53.4515 104.128 52.6892 103.145 52.5422C102.741 52.4871 102.723 52.4687 102.75 52.2115C102.824 51.587 102.116 50.595 101.51 50.4572C101.005 50.347 100.794 50.2276 100.638 49.9612C100.555 49.8143 100.344 49.603 100.178 49.502L99.8753 49.3091L100.243 49.355C100.445 49.3826 100.821 49.4285 101.088 49.456C101.483 49.5111 101.565 49.5479 101.611 49.7316C101.758 50.3102 102.925 50.6409 104.652 50.5858C105.754 50.5491 106.259 50.4205 106.259 50.1817C106.259 50.1174 106.075 49.9061 105.846 49.704C105.184 49.1254 103.513 48.5835 102.355 48.5835C101.372 48.5835 101.317 48.5559 101.372 48.0783C101.409 47.7017 101.391 47.6466 100.959 47.1873C100.592 46.7924 100.472 46.5811 100.335 46.076C100.243 45.7269 100.114 45.4238 100.041 45.3963C99.8753 45.332 99.5814 45.5983 99.5079 45.8923C99.462 46.0943 99.4253 46.1127 99.1405 46.0668C98.8558 46.0117 98.819 46.03 98.819 46.1954C98.819 46.5536 99.1956 47.867 99.4253 48.3263L99.6457 48.7672H99.3058C99.113 48.7672 98.8558 48.7947 98.7364 48.8315C98.5343 48.8866 98.5251 48.9141 98.571 49.4377L98.617 49.9888L97.9005 51.0083C97.1566 52.0646 96.137 53.8189 95.9625 54.3516C95.9074 54.517 95.6961 54.9303 95.4941 55.2701C95.2828 55.6008 95.0899 55.9866 95.0532 56.1152C95.0256 56.2438 94.943 56.3448 94.8879 56.3448C94.8327 56.3448 94.4562 56.0233 94.052 55.6284C93.2805 54.8844 92.9223 54.7374 92.8029 55.1048C92.7386 55.2977 92.8855 55.9315 93.0784 56.3081L93.207 56.5469L92.7018 56.6387C92.2518 56.7214 92.2058 56.7122 92.2609 56.5836C92.3804 56.2897 92.4906 55.8212 92.4538 55.7845C92.4355 55.757 92.3069 55.7937 92.1691 55.8488C91.9854 55.9407 91.6639 55.9315 90.7362 55.8396C89.7075 55.7386 89.5422 55.7018 89.5789 55.5733C89.6708 55.2518 89.7351 54.37 89.6708 54.37C89.634 54.37 89.4228 54.4802 89.1932 54.6088L88.7798 54.8476L88.8349 54.0394C88.8717 53.5893 88.9268 52.8178 88.9543 52.3218L89.0186 51.4216L89.3493 51.2839C90.3413 50.8705 90.1759 50.347 88.9268 49.9612C88.4859 49.8234 88.0726 49.7775 87.3653 49.7775H86.4009L86.6765 49.502C86.9061 49.2723 86.9704 49.1254 87.0163 48.6569C87.1082 47.8027 86.8326 46.4709 86.5662 46.4709C86.3182 46.4801 85.6845 46.8475 85.363 47.1598C84.9497 47.5823 84.5823 48.3263 84.5823 48.7763C84.5823 48.96 84.518 49.1621 84.4445 49.2264C84.3159 49.3274 84.3067 49.2815 84.3618 48.8406C84.4721 47.8762 84.1047 46.9302 83.4617 46.4985C83.1678 46.3056 82.9382 46.2597 82.4789 46.278L82.2585 46.2872L82.3136 47.5915C82.3411 48.3171 82.4054 49.0427 82.4605 49.208C82.5432 49.4836 82.534 49.5111 82.3962 49.456C81.8727 49.254 81.34 49.2999 81.2389 49.5571C81.2114 49.6306 81.2573 49.9245 81.3583 50.2C81.4502 50.4756 81.5145 50.696 81.4961 50.696C81.4777 50.696 81.3216 50.6133 81.1379 50.5031L80.8164 50.3102L80.6695 50.6593C80.5225 51.0083 80.5225 51.3573 80.6603 53.3597C80.6786 53.6628 80.6603 53.6811 80.1735 53.874C79.8979 53.9842 79.5213 54.0945 79.3468 54.1128L79.0253 54.1404L78.9978 53.6628C78.9794 53.3964 79.0988 52.3126 79.2458 51.2563C79.5489 49.1713 79.7418 48.4916 80.5041 46.8108C80.844 46.0668 80.9909 45.8463 81.092 45.8923C81.3675 46.0025 82.9106 46.03 83.4066 45.929C84.0312 45.8004 84.3618 45.5616 84.9497 44.8176C85.2069 44.5053 85.4089 44.2481 85.4089 44.239C85.4089 44.2298 85.0415 44.239 84.5823 44.2481C83.8291 44.2849 83.7556 44.2665 83.7556 44.1104C83.7556 44.0185 83.673 43.7705 83.5719 43.5501L83.3974 43.1643L83.6454 43.2286C83.9944 43.3205 87.2551 43.3205 88.0083 43.2286C88.3573 43.1827 88.6237 43.1092 88.6237 43.0449C88.6237 42.9898 88.4124 42.751 88.1552 42.503C87.6041 41.9886 86.952 41.7223 86.0427 41.6396L85.3906 41.5753L85.6202 41.3824C85.9968 41.0701 86.1713 40.6109 86.2172 39.8301C86.2539 39.2331 86.2356 39.1229 86.1162 39.1229C85.9325 39.1229 85.5559 39.2882 85.115 39.5546C84.6741 39.8301 84.6466 39.821 84.7201 39.4811C84.7568 39.325 84.7568 38.93 84.7201 38.6085C84.6741 38.1493 84.6282 38.0207 84.5088 38.0207C84.2516 38.0207 83.2413 39.1688 82.9198 39.8118C82.7636 40.1424 82.6259 40.4088 82.6167 40.4088C82.6167 40.4088 82.6075 40.1884 82.5983 39.922C82.5891 39.1229 81.8635 37.9564 81.046 37.4145C80.844 37.2859 80.7889 37.2767 80.7246 37.3778C80.4215 37.8646 80.5868 39.426 81.0277 40.2618C81.3492 40.8681 82.0564 41.6947 82.2493 41.6947C82.4054 41.6947 82.4054 41.7682 82.2493 42.0529L82.1299 42.2734L82.0288 41.9978C81.9829 41.8417 81.7992 41.5753 81.6247 41.41C81.2849 41.0609 80.4949 40.6109 80.4031 40.7027C80.3664 40.7395 80.3204 41.015 80.2929 41.3273L80.2378 41.8876L79.953 41.8233C79.4295 41.7039 79.3927 41.7223 79.3652 42.0897L79.3376 42.4295L78.9519 42.1631C78.5477 41.8876 78.0242 41.6029 77.9231 41.6029C77.8864 41.6029 77.8772 42.2091 77.8956 42.9531C77.9323 44.3859 77.9966 44.6615 78.4651 45.1666C78.8784 45.6259 79.705 45.8555 79.999 45.5892C80.0908 45.5065 80.2286 45.4606 80.3021 45.4881C80.4123 45.534 80.348 45.7086 79.9898 46.3974C79.7418 46.8659 79.3927 47.619 79.209 48.0783C79.0162 48.5284 78.86 48.9141 78.8508 48.9233C78.8508 48.9325 78.8325 48.6018 78.8325 48.1885C78.8141 47.0863 78.364 45.9657 77.7027 45.332C77.5466 45.1758 77.418 45.0105 77.418 44.9462C77.418 44.7992 75.434 42.9898 75.1493 42.8796C74.6165 42.6775 74.2859 43.1368 74.488 43.7889C74.6165 44.2114 75.0666 44.8176 75.2687 44.8176C75.3422 44.8176 75.3973 44.8543 75.3973 44.8911C75.3973 44.9738 74.1114 45.185 73.6429 45.185C73.45 45.185 73.3674 45.1115 73.2388 44.8176C73.0551 44.4227 72.3387 43.6879 71.9529 43.5133C71.7876 43.4399 71.6222 43.2194 71.4569 42.8428C71.2181 42.3193 70.2445 41.1436 70.0516 41.1436C69.9689 41.1436 69.9965 43.0816 70.0883 43.6603C70.1343 43.9267 69.4086 44.0828 68.1227 44.0828C67.1124 44.0828 67.0389 44.092 67.0389 44.2573C67.0389 44.5329 67.1951 44.8819 67.4063 45.0932C67.6268 45.3136 67.6359 45.3136 67.1216 45.1391C66.8093 45.0289 66.7174 44.9554 66.7082 44.7901C66.6807 44.4227 65.9551 42.852 65.6612 42.5214C65.4958 42.3468 65.3489 42.2366 65.3305 42.2917C65.3213 42.3377 65.2754 42.751 65.2478 43.1919C65.1927 43.945 65.1744 43.991 65.0274 43.8624C64.6784 43.5409 63.7874 43.2286 63.1169 43.1827C62.722 43.1551 62.4464 43.1735 62.4464 43.2286C62.4464 43.4031 62.9148 43.743 63.7507 44.1838L64.6049 44.6247L62.9516 44.6523C62.0423 44.6706 61.0778 44.6706 60.8023 44.6615C60.2328 44.6431 60.2236 44.6247 61.1881 45.3136C61.8953 45.8188 62.5934 46.1035 63.1077 46.1035C63.4476 46.1035 63.4292 46.1954 63.0434 46.4525C62.6852 46.7005 62.2168 47.2792 62.2994 47.371C62.4097 47.4721 63.4016 47.5547 63.9436 47.4996C64.3201 47.4721 64.6233 47.3619 64.9723 47.1506L65.4775 46.8567L65.6795 47.1414C65.9183 47.4721 65.9183 47.6007 65.6428 49.1989C65.4132 50.5582 65.3489 50.6409 64.7518 50.3378C64.4396 50.1817 62.6944 49.6857 62.4556 49.6857C62.3362 49.6857 62.3729 49.9337 62.5566 50.3011C62.676 50.5399 63.2547 50.8338 63.8058 50.9256L64.1916 50.9899L63.9987 51.2563C63.7323 51.6329 63.4476 51.7982 62.9332 51.8809C62.5566 51.936 62.4923 51.9727 62.5107 52.1381C62.5291 52.2942 62.4648 52.3493 62.2351 52.3952C61.8402 52.4871 61.6198 52.6983 61.6198 53.0015C61.6198 53.4974 62.4831 54.0026 63.7782 54.2782C64.3569 54.4068 64.6416 54.5537 64.3018 54.5537C63.7323 54.5537 62.1892 55.3528 61.5279 55.9866C61.2064 56.2897 61.2064 56.2897 60.839 56.1611C60.637 56.0876 60.3706 56.0233 60.242 56.0141C59.9756 56.005 59.1949 55.1967 59.4429 55.1967C59.7644 55.1967 60.3155 54.9027 60.4165 54.6823C60.6461 54.1771 60.49 54.0026 59.8195 54.0026C59.6358 54.0026 59.4613 53.92 59.2959 53.7454C59.1674 53.6077 58.7265 53.3321 58.3223 53.13C57.9182 52.928 57.5875 52.7351 57.5783 52.7075C57.5783 52.6708 57.7804 52.6249 58.0284 52.5881C58.2764 52.5606 58.7265 52.4044 59.0388 52.2483C59.6082 51.9635 59.8011 51.7523 60.3706 50.7603C60.591 50.3745 60.6002 50.3194 60.4624 50.3654C60.3614 50.3929 60.1685 50.4388 60.0124 50.4664C59.8654 50.5031 59.6633 50.5491 59.5715 50.5766C59.4245 50.6133 59.4154 50.595 59.498 50.4388C59.7919 49.8877 59.4245 49.4285 58.8 49.5479C58.6163 49.5754 58.1754 49.75 57.8263 49.9337L57.1834 50.2551L57.2477 49.603C57.2936 49.0427 57.7345 46.7465 57.7988 46.6822C57.8172 46.6638 58.1295 46.8199 58.5152 47.0128C59.3602 47.4537 60.1685 47.6558 60.3798 47.4813C60.6645 47.2516 60.4624 45.9474 60.0583 45.4422C59.9022 45.2309 58.9837 44.7166 58.5795 44.5972C58.4693 44.5696 58.4417 44.4869 58.4693 44.3216C58.5152 44.1012 58.552 44.0828 59.0112 44.0828C59.6174 44.0828 59.6358 43.991 59.149 43.4674L58.7908 43.0908L58.9653 42.3193C59.0663 41.8968 59.2408 41.3457 59.3694 41.0793C59.498 40.8221 59.5991 40.5466 59.5991 40.4823C59.5991 40.2159 59.746 40.1241 60.0032 40.2251C60.3063 40.3353 61.6198 40.4915 61.7851 40.4272C62.0055 40.3445 61.8586 39.6005 61.5095 39.0953C61.2799 38.7739 60.637 38.4432 59.9205 38.2871C58.9928 38.085 58.6806 37.8921 57.7161 36.9185C57.2109 36.4133 56.7701 36 56.7333 36C56.6966 36 56.6415 36.147 56.6047 36.3307ZM57.9458 42.5214C57.9458 42.5673 57.9274 42.6132 57.909 42.6132C57.8815 42.6132 57.8355 42.5673 57.808 42.5214C57.7804 42.4662 57.7988 42.4295 57.8447 42.4295C57.8998 42.4295 57.9458 42.4662 57.9458 42.5214ZM57.56 44.193C57.5324 44.2573 57.2936 44.9646 57.0272 45.7637L56.5404 47.2057L56.2282 46.8475C56.0628 46.6454 55.723 46.3331 55.4658 46.1494C54.9882 45.8004 54.9606 45.6626 55.328 45.4238C55.5209 45.2952 55.5852 45.2952 55.9342 45.4146C56.1455 45.4881 56.4119 45.5524 56.5313 45.5524C56.7333 45.5524 56.7517 45.5157 56.7517 45.0564C56.7517 44.6982 56.6966 44.5053 56.5588 44.3216L56.3751 44.0828H56.9813C57.4406 44.0828 57.5875 44.1104 57.56 44.193ZM80.7797 44.8911C80.7062 45.038 80.5776 45.185 80.4949 45.2217C80.3664 45.2677 80.3572 45.2585 80.4949 45.0748C80.5684 44.9554 80.6327 44.7441 80.6327 44.5972C80.6327 44.34 80.6419 44.3308 80.7797 44.4686C80.9083 44.5972 80.9083 44.6339 80.7797 44.8911ZM68.6922 45.6534C68.8667 45.6994 69.1974 45.7361 69.427 45.7361H69.8403L69.3811 46.1494L68.9218 46.5536L68.7841 46.3515C68.7106 46.2413 68.4901 45.9933 68.2881 45.7912C67.985 45.4973 67.9574 45.4514 68.1503 45.5065C68.2697 45.5524 68.5177 45.6167 68.6922 45.6534ZM72.8622 46.7465C73.3215 46.9577 73.5603 46.9393 73.5603 46.7005C73.5603 46.5903 73.6889 46.5628 74.2675 46.5628H74.9656L74.7819 46.7648C74.4604 47.123 74.1114 47.7017 74.1114 47.867C74.1114 48.0691 74.5063 48.0875 74.8737 47.9038C75.2044 47.7201 75.2044 47.7844 74.7911 48.9692C74.0103 51.2196 73.101 52.3769 71.8978 52.6708C71.6773 52.7259 71.6406 52.6892 71.4661 52.2758C71.0895 51.4124 70.9793 50.7879 70.9793 49.6397C70.9701 48.0967 71.1262 46.9302 71.365 46.7648C71.4569 46.7005 71.6039 46.5168 71.6773 46.3699L71.8243 46.1035L72.1182 46.324C72.2836 46.4525 72.6234 46.6454 72.8622 46.7465ZM70.4925 47.4078C70.171 48.96 70.2628 51.3941 70.6762 52.5698C70.7497 52.7718 70.7956 52.9463 70.7772 52.9555C70.7588 52.9739 70.52 52.9004 70.2445 52.7994C69.6842 52.5789 69.0412 52.5422 68.8392 52.7075C68.683 52.8361 68.729 53.3413 68.9402 53.7546C69.0504 53.9751 69.0504 54.0118 68.9218 54.0577C68.6647 54.1588 68.5361 54.021 68.4901 53.5893C68.4626 53.3597 68.3064 52.9004 68.1411 52.5698C67.7921 51.8993 66.9379 50.9073 66.6348 50.8246C66.4235 50.7787 66.4235 50.7511 66.4327 49.456L66.4419 48.1426L67.1308 48.8039L67.8196 49.456L67.8656 49.0427C67.9207 48.5743 67.9666 48.5651 68.4718 48.9049C68.6555 49.0335 68.8484 49.1346 68.8851 49.1346C69.0872 49.1346 69.1698 48.6937 69.1331 47.9221L69.0872 47.1139H69.822H70.5568L70.4925 47.4078ZM28.122 48.9233C28.0577 49.0335 27.9842 49.2999 27.9475 49.5203C27.9108 49.8326 27.8097 49.9888 27.525 50.2551C27.3137 50.4388 27.0933 50.5674 27.029 50.5399C26.9004 50.4939 26.7535 49.8418 26.6892 49.0611L26.6524 48.5743L26.928 48.859C27.0749 49.0152 27.2403 49.1254 27.2954 49.107C27.3413 49.0978 27.5342 48.7212 27.7179 48.2895L28.0485 47.4904L28.1496 48.1058C28.2231 48.5835 28.2231 48.7672 28.122 48.9233ZM76.0586 49.7775C76.1413 49.952 76.325 50.2184 76.4811 50.3562L76.7567 50.6133L76.9587 50.2C77.0689 49.9704 77.2067 49.5295 77.2618 49.2264C77.3169 48.9233 77.3904 48.6753 77.418 48.6753C77.4455 48.6753 77.7486 48.8223 78.0793 48.9968L78.6947 49.3274L78.511 49.851C78.1711 50.8246 77.8772 52.2024 77.8129 53.1117C77.767 53.874 77.7394 54.0026 77.6109 53.9659C77.0965 53.8189 76.6648 53.8189 74.8462 53.9567C72.9265 54.0945 72.7979 54.0945 72.6326 53.9475C72.4673 53.8005 72.4764 53.7822 72.8622 53.5434C73.349 53.2311 73.9644 52.5973 74.2216 52.1381C74.3318 51.9544 74.4512 51.7982 74.4788 51.7982C74.5155 51.7982 74.6349 51.9084 74.7635 52.037C75.0391 52.3401 75.4983 52.5698 76.0861 52.7075C76.3433 52.7718 76.6189 52.8361 76.7199 52.8729C76.8761 52.9188 76.8852 52.8729 76.8485 52.3677C76.7842 51.4033 76.0494 50.5123 75.3422 50.5123C75.1676 50.5123 75.0299 50.4939 75.0299 50.4664C75.0299 50.347 75.5993 48.0415 75.7004 47.7568C75.8014 47.4537 75.8106 47.5088 75.8657 48.4457C75.8933 49.0427 75.9759 49.5846 76.0586 49.7775ZM42.864 49.0978C42.9834 49.3366 43.066 49.5295 43.0477 49.5387C43.0201 49.5571 42.6711 49.7224 42.3863 49.851C42.3496 49.8785 42.3312 49.7683 42.3588 49.6306C42.3863 49.4836 42.4323 49.208 42.469 49.0152C42.4966 48.8315 42.5517 48.6753 42.5884 48.6753C42.6343 48.6753 42.7537 48.8682 42.864 49.0978ZM83.6087 50.4205C83.4709 50.6776 83.3423 50.8613 83.3239 50.843C83.278 50.8062 83.5352 50.2643 83.6821 50.0714C83.8842 49.8326 83.8475 49.9796 83.6087 50.4205ZM84.3343 50.4939C84.3067 50.6042 84.2516 50.696 84.2057 50.696C84.0955 50.696 84.1047 50.6317 84.2241 50.4021C84.3435 50.1725 84.4078 50.2276 84.3343 50.4939ZM52.1225 50.7511C52.2051 50.9807 52.4347 51.3941 52.6276 51.6696C52.9675 52.1472 52.9767 52.1656 52.7746 52.2024C52.6644 52.2299 52.251 52.3126 51.8561 52.3861C50.7631 52.5973 50.6345 52.781 51.2407 53.2954C51.7734 53.7546 53.0042 54.0853 54.1615 54.0945C54.5197 54.0945 54.6575 54.1955 54.4646 54.3241C54.4187 54.3516 54.3544 54.4986 54.3177 54.6456C54.2809 54.8017 54.1983 54.9211 54.1248 54.9211C54.0513 54.9211 53.6104 55.0497 53.1604 55.2059L52.3337 55.4998L52.6276 55.8029C52.9399 56.1244 53.6564 56.5101 54.1432 56.6112C54.3177 56.6479 54.4554 56.7489 54.483 56.8408C54.5106 56.9694 54.584 56.9969 54.7861 56.9602L55.0525 56.9143L54.7953 57.1255C54.5565 57.3184 54.5473 57.346 54.6759 57.4837C54.7953 57.594 55.0157 57.6307 55.6036 57.6307C56.3567 57.6307 56.3843 57.6215 56.7058 57.3092C56.9905 57.0337 57.0456 57.0153 57.165 57.1255C57.2293 57.199 57.6243 57.9338 58.0284 58.7513C58.5611 59.8259 58.7265 60.2484 58.6254 60.2484C58.4601 60.2484 58.0284 60.0464 57.5324 59.7432C57.1191 59.4861 56.6782 59.4401 56.6047 59.6514C56.5588 59.7708 56.4119 59.78 55.6862 59.7341C54.8412 59.6698 54.8228 59.6698 54.8228 59.8718C54.8228 59.9821 54.8871 60.1933 54.9606 60.3311C55.126 60.6526 55.9342 61.3966 56.3751 61.6262L56.7058 61.8007L56.3843 61.8099C56.0628 61.8099 55.4107 62.0854 54.4554 62.6273C54.0054 62.8753 53.9778 62.9213 54.1523 62.9672C54.3177 63.0131 54.3544 63.0682 54.3085 63.2336C54.2442 63.4907 54.4371 63.555 55.3372 63.555C56.0445 63.555 56.7333 63.3805 57.4222 63.0315C57.8263 62.8294 57.8631 62.8294 57.8263 62.9764C57.7988 63.0682 57.7069 63.4632 57.6243 63.8489C57.4498 64.6297 57.4681 64.6205 56.7701 64.3725C56.6507 64.3266 56.3108 64.2898 56.0077 64.2898H55.4658L55.5209 64.6664L55.5852 65.0338L54.979 64.6113C53.8768 63.8489 51.8928 63.0039 51.1764 63.0039C50.91 63.0039 50.91 63.1601 51.1488 63.95C51.5071 65.0889 52.4439 66.1544 53.8033 66.9259C54.3269 67.229 54.3177 67.2198 54.2442 67.2841C54.1615 67.3668 52.4347 67.7801 52.1867 67.7801H51.9847L52.1592 67.477C52.251 67.3209 52.3704 67.0086 52.4256 66.7882C52.499 66.4299 52.4899 66.3932 52.3613 66.4483C51.8561 66.6596 51.4428 66.6779 50.4232 66.5402C49.8354 66.4575 48.972 66.3656 48.5036 66.3381C47.5391 66.2738 47.5667 66.3197 47.9892 65.4655C48.1821 65.0981 48.1913 64.9971 48.0994 64.8409C47.8698 64.4735 47.4197 64.3541 46.492 64.4092C45.7481 64.4552 45.6378 64.4368 45.6378 64.3082C45.6378 64.1888 45.6011 64.198 45.4358 64.3633C45.3164 64.4643 44.949 64.648 44.6183 64.7675L44.0213 64.9879L43.2314 64.2531C42.3955 63.4632 42.1475 63.0958 42.1475 62.6365C42.1475 62.3059 42.1751 62.2967 42.5517 62.5906C42.717 62.71 43.0017 62.8753 43.1854 62.958C43.5253 63.0958 45.2245 63.555 45.4358 63.555C45.7756 63.555 45.399 62.5355 44.6367 61.4057L44.1866 60.726L45.4174 60.6893C46.1522 60.6709 46.6849 60.6158 46.7492 60.5515C46.9054 60.3954 46.5563 60.1015 45.9593 59.9178C45.4541 59.7616 45.445 59.7432 45.4909 59.4861C45.5184 59.3391 45.546 58.8523 45.546 58.4022C45.546 57.447 45.5735 57.4286 46.244 57.8879C46.492 58.0532 46.887 58.3288 47.1166 58.4849C47.3554 58.6502 47.5759 58.7788 47.6126 58.7788C47.7871 58.7788 47.5483 57.8511 47.2177 57.199L46.8503 56.4826H47.0799C47.2085 56.4826 47.4381 56.4275 47.5942 56.354C47.7596 56.2805 48.1637 56.1978 48.5127 56.1611C48.8526 56.1244 49.1281 56.0601 49.1281 56.0141C49.1281 55.9682 49.3302 56.0876 49.5782 56.2897C50.1293 56.7214 51.3142 57.2266 51.9112 57.2909C52.3429 57.3368 52.3429 57.3276 52.3429 57.052C52.3429 56.354 50.956 55.2518 49.9272 55.1324C49.6609 55.1048 49.3578 55.0222 49.2475 54.9487C49.119 54.866 49.0363 54.8476 48.9904 54.9119C48.9628 54.967 48.7332 54.8109 48.4668 54.5445C47.9157 53.9934 47.9065 54.0302 48.7883 52.9372C49.119 52.5238 49.4129 52.1013 49.4496 51.9911C49.5507 51.6696 51.4795 50.3378 51.8561 50.3286C51.9112 50.3286 52.0306 50.5215 52.1225 50.7511ZM99.0027 50.8797C99.0027 51.0267 99.5722 51.339 99.8386 51.339C100.041 51.339 100.123 51.4216 100.307 51.789L100.527 52.2391L99.5906 52.2758C98.5251 52.3034 98.3047 52.4044 98.5986 52.7259C98.6905 52.8269 98.8925 52.9831 99.0395 53.0566C99.2967 53.1943 99.3058 53.2035 99.1405 53.3229C99.0027 53.424 98.9936 53.4699 99.0854 53.5801C99.1497 53.6628 99.2783 53.7454 99.3793 53.773C99.4895 53.8097 99.5538 53.92 99.5538 54.0577C99.5538 54.2598 99.5906 54.2782 99.9488 54.2782C100.16 54.2782 100.583 54.2139 100.886 54.1496C101.189 54.0761 101.455 54.0302 101.474 54.0485C101.519 54.1037 100.38 55.3804 100.279 55.3804C100.234 55.3804 100.197 55.2793 100.197 55.1507C100.197 55.0038 100.16 54.9395 100.077 54.9762C100.013 54.9946 99.8018 54.9487 99.609 54.8752C99.1681 54.6915 97.23 54.5813 96.8718 54.7282C96.6881 54.7925 96.6146 54.8936 96.6146 55.0589C96.6146 55.3344 97.0372 55.5733 97.8362 55.7478C98.121 55.8121 98.3598 55.8947 98.3598 55.9315C98.3598 55.9682 98.2679 56.0692 98.1669 56.1703C98.0567 56.2621 97.8454 56.5101 97.6985 56.7122C97.3954 57.1255 96.9453 57.3092 96.2105 57.3092C95.7696 57.3092 95.7696 57.3092 95.9717 57.1439L96.1738 56.9786L95.9441 56.8592L95.7145 56.7398L95.9717 56.0325C96.1095 55.6467 96.7157 54.4894 97.3219 53.4515C97.9189 52.4136 98.5159 51.3941 98.6353 51.1736C98.8374 50.8062 99.0027 50.6776 99.0027 50.8797ZM82.9106 51.5594L82.6167 51.9911L82.4514 51.7798C82.1023 51.339 82.0931 51.2747 82.3687 51.3206C82.5157 51.339 82.7453 51.293 82.8922 51.2196C83.0392 51.1461 83.1678 51.091 83.1862 51.1093C83.2045 51.1185 83.0759 51.3298 82.9106 51.5594ZM84.9864 51.8625C85.5283 51.9084 85.6386 51.8901 85.8682 51.7156C86.107 51.541 86.2539 51.5227 87.3745 51.5227H88.6053L88.4859 51.9084C88.4216 52.1289 88.3481 52.6341 88.3114 53.0382C88.1828 54.5721 88.0634 55.1324 87.7878 55.4447C87.4756 55.8029 87.3102 56.3724 87.3837 56.7949C87.4204 56.9786 87.3929 57.2266 87.301 57.447C87.1633 57.7593 87.1357 57.7777 86.9796 57.6674C85.3171 56.4366 85.3354 56.4458 85.2252 56.0233C85.1701 55.7937 84.9772 55.3896 84.7935 55.114C84.4904 54.6456 84.4812 54.618 84.6833 54.6823C84.8027 54.7099 85.2803 54.7833 85.7304 54.8385C87.0898 55.0038 87.4756 54.7925 87.0622 54.1128C86.7132 53.5526 85.611 53.2678 83.7464 53.2678H82.8371V52.9923C82.8371 52.8178 82.9933 52.4871 83.2505 52.083L83.673 51.4584L84.022 51.6329C84.2149 51.7247 84.6466 51.8258 84.9864 51.8625ZM66.5062 52.3218C66.598 52.7075 66.6623 53.0382 66.644 53.0474C66.6348 53.0657 66.497 52.9923 66.3408 52.9004L66.0653 52.7167L66.1571 52.1656C66.2031 51.8625 66.2674 51.6145 66.2949 51.6145C66.3317 51.6145 66.4235 51.936 66.5062 52.3218ZM31.2174 52.5789C31.2174 52.781 31.1806 52.8086 30.8775 52.8086H30.5377L30.85 52.5789C31.0245 52.4595 31.1806 52.3585 31.199 52.3493C31.2082 52.3493 31.2174 52.4504 31.2174 52.5789ZM31.4929 52.8086C31.4929 52.8545 31.4746 52.9004 31.4562 52.9004C31.4286 52.9004 31.3827 52.8545 31.3551 52.8086C31.3276 52.7535 31.346 52.7167 31.3919 52.7167C31.447 52.7167 31.4929 52.7535 31.4929 52.8086ZM30.7581 53.4699C30.7581 53.4883 30.8224 53.6903 30.8867 53.9291L31.0245 54.3608L30.2989 54.3425C29.7202 54.3241 29.5181 54.2782 29.3161 54.122L29.0589 53.9291L29.5641 53.6995C29.9682 53.5158 30.7581 53.3689 30.7581 53.4699ZM103.559 55.7753C103.797 56.0876 104.174 56.5285 104.394 56.7673L104.789 57.1806L104.404 57.3551C104.192 57.447 103.825 57.7134 103.595 57.943C103.182 58.3563 103.164 58.3655 102.925 58.2277C102.695 58.0991 102.677 58.044 102.677 57.5113C102.677 56.6663 102.438 55.7202 102.089 55.2059L101.786 54.765L102.153 54.3425L102.511 53.9108L102.824 54.5629C102.998 54.9211 103.329 55.463 103.559 55.7753ZM57.5967 54.4802C57.5141 54.5629 57.4681 54.5262 57.3946 54.3333C57.2569 53.9659 57.2752 53.9383 57.5049 54.1679C57.661 54.3241 57.6794 54.3976 57.5967 54.4802ZM46.3818 54.5353C46.2349 54.8109 46.0328 54.9395 45.8032 54.9027C45.6195 54.8752 45.6378 54.8476 46.0052 54.6272C46.5012 54.3241 46.492 54.3333 46.3818 54.5353ZM78.3273 57.0337C78.4926 57.5113 78.6671 57.9797 78.7222 58.0716C78.8416 58.292 78.7682 58.2553 77.9691 57.6307C77.6384 57.3827 76.8209 56.8408 76.1504 56.4366L74.938 55.7018L75.93 55.6559C77.0781 55.6008 77.3078 55.4998 77.62 54.8936L77.8221 54.5078L77.9231 55.3344C77.9874 55.7845 78.162 56.5561 78.3273 57.0337ZM30.2621 56.602C31.8603 57.9981 32.7237 58.6135 33.4493 58.889C33.7157 58.9901 34.0464 59.183 34.1841 59.3116L34.4413 59.5595L33.3483 59.6055C32.3655 59.6514 32.2002 59.679 31.7225 59.9269C31.1898 60.2025 30.7581 60.6434 30.8867 60.772C30.9235 60.8179 31.4286 60.8638 32.0073 60.873C33.1462 60.9097 33.3116 60.8546 34.1382 60.1933C34.4872 59.8994 34.5056 59.9729 34.2944 60.8455C34.2209 61.1486 34.1658 61.8007 34.1566 62.2875V63.1784L33.7708 63.206C33.4218 63.2336 33.3758 63.2611 33.3483 63.4815C33.3024 63.8398 33.78 64.3358 34.3954 64.5562C35.0475 64.8042 36.4069 64.9603 37.2795 64.8869C38.2163 64.8042 38.8226 64.5103 39.2543 63.9224C39.438 63.6652 39.6033 63.4632 39.6217 63.4632C39.6308 63.4632 39.5023 63.8398 39.3277 64.3082C38.9695 65.2726 38.8226 66.3013 38.8593 67.6056L38.8869 68.469L39.4104 68.4506C39.8788 68.4323 39.9339 68.4506 39.9799 68.6527C40.1268 69.2406 41.8077 70.2876 43.1028 70.5907C43.7549 70.7377 43.9019 70.8296 43.7274 70.9398C43.6906 70.9581 42.8364 70.903 41.8261 70.802C40.8157 70.7102 39.888 70.6367 39.7594 70.6459C39.539 70.6734 39.5298 70.6459 39.4839 70.1223L39.438 69.5712L39.0706 69.5988C38.5195 69.6355 38.1337 69.7917 37.9408 70.0305L37.7663 70.2509L37.6101 69.5069C37.5275 69.0936 37.3989 68.6619 37.3162 68.5333C37.1784 68.322 37.1693 68.322 36.9856 68.4874C36.609 68.8272 36.4253 69.3508 36.3702 70.2601C36.3242 70.9765 36.2967 71.0776 36.2416 70.7928C36.2048 70.6091 36.113 70.4346 36.0395 70.407C35.966 70.3795 35.9017 70.2968 35.9017 70.2142C35.9017 70.0396 35.2771 69.3416 35.121 69.3416C35.0567 69.3416 34.9649 69.4518 34.9189 69.5804L34.8363 69.8192L34.5883 69.4885C34.2301 69.0293 33.6881 68.5149 33.5595 68.5149C33.3758 68.5149 33.3207 69.0569 33.431 69.8743C33.4861 70.2968 33.5136 70.6642 33.4861 70.6826C33.4585 70.7102 33.3024 70.5816 33.1279 70.3887C32.7145 69.9294 32.2369 69.6447 31.6123 69.4794C30.9235 69.2957 30.0784 69.2957 29.9315 69.4794C29.6559 69.81 30.8316 71.2245 31.8879 71.8215C32.1818 71.9869 32.4114 72.1338 32.3931 72.143C32.2461 72.2716 26.9555 70.9122 25.5043 70.3795C24.8338 70.1315 24.8062 70.0856 25.0083 69.5345L25.1185 69.2314L25.3941 69.461C25.789 69.7917 26.5238 70.1682 26.781 70.1682C26.9004 70.1682 27.0657 70.0856 27.1576 69.9845C27.2862 69.8284 27.378 69.81 27.6995 69.8559C27.92 69.8835 28.1955 69.8835 28.3149 69.8559C28.8109 69.7365 29.013 69.2222 28.6272 69.0752C28.5078 69.0293 27.9108 68.7446 27.3046 68.4506L26.1932 67.9179L27.4056 67.9455C28.8936 67.9914 29.4998 67.8536 29.8947 67.3852L30.1427 67.0913L29.6008 67.027C28.866 66.9259 28.1955 66.7055 27.8648 66.4483C27.6168 66.2462 27.6077 66.2187 27.773 66.1728C28.5262 65.9248 28.8844 65.6768 29.0222 65.3186C29.1507 64.9879 29.0405 64.7491 28.765 64.7491C28.5445 64.7491 28.5353 64.7399 28.6639 64.5837C28.7466 64.5011 28.8568 64.3358 28.9119 64.2163C29.013 64.0235 28.9946 63.9959 28.6272 63.8306C28.4068 63.7295 28.1404 63.6469 28.021 63.6469C27.9108 63.6469 27.277 63.4724 26.6249 63.2611C25.4767 62.8937 25.44 62.8753 25.587 62.71C25.8074 62.462 25.6604 62.2691 25.0818 62.0303C24.3929 61.7548 24.3929 61.6905 25.0818 61.7364C25.4216 61.764 25.7247 61.764 25.7523 61.7364C25.835 61.6537 25.5043 61.3506 25.3298 61.3506C25.2379 61.3506 25.1369 61.3047 25.1093 61.2588C25.0726 61.2037 25.2287 61.1669 25.5135 61.1669C26.083 61.1669 26.1656 61.0475 26.1656 60.2117C26.1656 59.431 26.037 59.284 25.2563 59.2013C24.7603 59.1462 24.6868 59.1095 24.7511 58.9809C24.8981 58.6227 24.9073 58.3196 24.7511 58.3196C24.5766 58.3196 24.5674 58.2828 24.7144 58.0165C24.8613 57.7409 24.8154 57.1163 24.6134 56.5744L24.4388 56.1152L24.7695 56.0233C25.1093 55.9315 25.2471 56.005 25.2471 56.2897C25.2471 56.4734 25.6237 57.1072 25.7615 57.1623C25.9452 57.2357 26.4228 56.3999 26.5881 55.6835L26.7443 55.0313L27.0841 55.0773C27.3137 55.114 27.5342 55.0681 27.7822 54.9395L28.1404 54.7558L28.4711 55.0497C28.6548 55.2059 29.463 55.9039 30.2621 56.602ZM81.9186 56.3632C82.2677 56.7949 83.5168 57.6491 84.1322 57.8695C84.5639 58.0257 84.6741 58.0991 84.619 58.2185C84.5915 58.3012 84.5364 58.5584 84.518 58.7972L84.4721 59.2381L84.2975 59.0176C84.0128 58.6502 82.8371 58.2461 82.5616 58.4114C82.4514 58.4849 82.4605 58.5676 82.6534 58.935C82.782 59.1738 82.8922 59.4034 82.9106 59.431C82.9198 59.4677 82.6626 59.5044 82.332 59.532C81.6431 59.5779 81.4777 59.679 81.6523 59.9545C81.79 60.1658 82.2952 60.4321 82.5891 60.4413H82.7912L82.5891 60.5883C82.4422 60.6893 82.3779 60.8271 82.3779 61.0383C82.3779 61.3323 82.3962 61.3506 82.6994 61.3506H83.0116L82.8371 61.7364C82.7361 61.9568 82.6534 62.1956 82.6534 62.2875C82.6534 62.3793 82.433 62.5355 82.0472 62.7192C81.7166 62.8753 81.4318 63.0039 81.4134 63.0039C81.4043 63.0039 81.3675 62.6457 81.34 62.1956C81.2665 61.2312 81.0644 60.4321 80.5409 59.1462C80.3296 58.6135 80.0541 57.9154 79.9347 57.594L79.7142 57.0061L80.1459 57.4103C80.6695 57.8971 81.1379 58.1267 81.3032 57.9614C81.3583 57.9062 81.4226 57.4011 81.441 56.7398C81.4777 55.8121 81.5053 55.6559 81.588 55.8488C81.6431 55.9774 81.79 56.207 81.9186 56.3632ZM32.0991 56.3081C32.2277 56.5652 32.3196 56.7949 32.3012 56.8132C32.2461 56.8592 31.3092 56.0233 31.3092 55.9223C31.3092 55.8764 31.4286 55.8396 31.5848 55.8396C31.8236 55.8396 31.8879 55.9039 32.0991 56.3081ZM70.4374 55.9682C70.4374 55.9866 70.2904 56.1519 70.1159 56.3356C69.7944 56.6755 69.5556 57.3092 69.6475 57.5572C69.6934 57.6674 69.822 57.6858 70.2353 57.6583L70.768 57.6215L70.3271 59.4585C70.0791 60.4597 69.8954 61.2955 69.9046 61.3047C69.9965 61.3782 71.2273 61.1394 71.512 60.9924C72.1917 60.6434 72.7336 59.8718 72.8714 59.0727C72.9081 58.8523 72.9632 58.6962 72.9908 58.7329C73.0275 58.7605 73.1378 59.036 73.248 59.3299C73.5235 60.0831 73.992 60.8363 74.4604 61.2771C74.9288 61.6997 75.1952 61.7088 75.3973 61.3047C75.5993 60.8914 75.6361 59.0636 75.4524 58.1726C75.3697 57.7868 75.3146 57.447 75.333 57.4378C75.3697 57.3919 77.2435 58.6043 77.8037 59.036C78.0701 59.2381 78.4467 59.5504 78.6488 59.7341C78.8784 59.9453 79.0896 60.0647 79.255 60.0647C79.4754 60.0647 79.5305 60.1198 79.6959 60.5883C79.9806 61.3782 80.1551 62.1405 80.2286 62.9213L80.2929 63.6193L79.5764 64.3174L78.8692 65.0154L78.3365 64.648C78.0517 64.4552 77.7394 64.2898 77.6568 64.2898C77.4639 64.2898 77.4639 64.7399 77.6843 65.7686C77.7946 66.3197 77.8221 66.6045 77.7578 66.7514C77.6752 66.9443 77.6292 66.9167 76.922 66.2371C76.0678 65.4196 75.3422 64.9144 74.5706 64.6021C74.2675 64.4827 73.992 64.3817 73.9644 64.3817C73.845 64.3817 74.0195 65.2359 74.2032 65.5206C74.3869 65.8329 75.2595 66.6871 75.7096 66.9994L75.9667 67.1831H75.4983C75.085 67.1831 75.0115 67.1556 74.9748 66.9902C74.8462 66.4667 74.1022 66.0717 73.1102 65.9799C72.4764 65.9156 72.4673 65.9156 72.5958 65.7227C72.6693 65.6217 72.7336 65.5023 72.7336 65.4655C72.7336 65.3369 72.1182 65.392 71.9988 65.5298C71.9345 65.6033 71.8059 65.6676 71.7141 65.6676C71.6222 65.6676 71.4753 65.7686 71.3926 65.8972C71.3191 66.0166 71.0528 66.2095 70.8231 66.3197C70.5843 66.4299 69.9414 66.733 69.3811 67.0086C68.1044 67.624 67.342 67.7801 66.598 67.5872C66.1296 67.4678 66.0745 67.4311 66.102 67.2382C66.1388 66.8524 66.6715 65.8972 67.094 65.4288L67.4982 64.9787L67.4522 65.6676C67.3788 66.5493 67.4982 66.779 67.9482 66.5861C68.1044 66.5218 68.3156 66.3748 68.4075 66.2554C68.5269 66.1085 68.6738 66.035 68.8759 66.035C69.0321 66.035 69.2433 65.9982 69.3352 65.9431C69.5189 65.8421 69.7026 65.4012 69.7026 65.0522V64.8409L70.171 65.0797C70.4282 65.2083 70.6578 65.291 70.6854 65.2634C70.7129 65.2359 70.7037 65.0706 70.6762 64.896C70.6027 64.5286 70.1159 64.1061 69.7577 64.1061C69.6291 64.1061 69.5189 64.0602 69.5189 64.0143C69.5189 63.9592 69.7669 63.9224 70.07 63.9224C70.3731 63.9224 70.6211 63.8949 70.6211 63.8489C70.6119 63.6377 70.2077 63.3713 69.8954 63.3713C69.7852 63.3713 69.7026 63.3346 69.7026 63.2887C69.7026 63.2427 69.5832 63.1876 69.4454 63.1601C69.2617 63.1233 69.0596 62.9396 68.7932 62.5906C68.4534 62.1497 67.7002 61.5343 67.489 61.5343C67.4522 61.5343 67.3971 61.5986 67.3696 61.6813C67.3053 61.8466 67.489 62.2232 67.838 62.6457C68.0309 62.8662 68.0493 62.9304 67.9299 62.8845C67.7553 62.8202 65.1101 62.9672 65.0274 63.0499C65.009 63.0774 65.0274 63.2152 65.0733 63.353C65.1652 63.6101 65.6612 63.8398 66.4419 63.9775L66.8093 64.0326L66.35 64.1704C65.6795 64.3633 65.5785 64.4919 65.8724 64.7858C66.0653 64.9787 66.2031 65.0246 66.5797 65.0246C66.8277 65.0246 67.0389 65.0522 67.0389 65.0797C67.0389 65.1073 66.8736 65.3277 66.6623 65.5574C66.1571 66.1268 65.606 67.0821 65.2478 67.973L64.9631 68.7078L64.559 67.8995C64.063 66.8892 62.9424 65.7135 62.2168 65.4288L61.7575 65.2543L62.5842 65.1991C63.8242 65.1165 64.3385 64.7675 64.1273 64.1337C64.0262 63.8306 63.6772 63.6377 63.1169 63.5734C62.6301 63.5183 62.428 63.3254 62.7679 63.2427C63.2731 63.1141 62.8689 62.6549 62.0239 62.4069C61.0962 62.1405 61.4912 62.0579 63.4476 62.1222C64.4947 62.1589 65.3029 62.1497 65.3764 62.1038C65.5326 61.9936 65.4315 61.516 65.2019 61.3047C64.9815 61.1026 64.4855 60.9924 63.7139 60.974C63.3649 60.9649 63.0894 60.9373 63.0894 60.9189C63.0894 60.8914 63.2547 60.6893 63.4568 60.4597C63.6588 60.2301 63.8242 60.0096 63.8242 59.9729C63.8242 59.9361 63.9619 59.9086 64.1364 59.8994C64.4028 59.8902 64.4671 59.9269 64.5681 60.1749C64.7335 60.5699 65.2938 61.2588 65.7438 61.617C66.1112 61.9109 66.1388 61.9201 66.2582 61.7548C66.4694 61.4608 66.6807 60.5607 66.7358 59.6973L66.7909 58.8799L67.0481 59.0084C67.1859 59.0819 67.4155 59.1462 67.5533 59.1462H67.7921L67.7278 58.3563C67.691 57.9154 67.59 57.3 67.4982 56.9786C67.4155 56.6571 67.342 56.3907 67.3512 56.3907C67.3512 56.3907 67.6543 56.455 68.0033 56.5285C68.3616 56.602 68.8208 56.6663 69.0412 56.6663H69.427V56.2989V55.9315H69.9322C70.2077 55.9315 70.4374 55.9498 70.4374 55.9682ZM46.74 56.1152C46.74 56.1611 46.6941 56.207 46.639 56.207C46.5931 56.207 46.5747 56.1611 46.6023 56.1152C46.6298 56.0601 46.6757 56.0233 46.7033 56.0233C46.7217 56.0233 46.74 56.0601 46.74 56.1152ZM100.316 57.0061C100.399 58.0532 100.932 59.4126 101.501 60.028L101.676 60.2209L101.005 60.6618C99.9855 61.3231 98.7456 62.5998 97.8271 63.9224L97.0372 65.0706L96.8718 64.198C96.7892 63.7204 96.6881 63.1876 96.6606 63.0223L96.6055 62.7284H97.0004C97.4046 62.7284 98.0567 62.5998 98.1485 62.5079C98.3231 62.3334 96.9912 60.9832 96.6514 60.9832C96.4952 60.9832 96.4861 60.873 96.633 60.726C96.7065 60.6526 97.0463 60.6158 97.5515 60.6158C98.4884 60.6158 99.0946 60.4321 99.0946 60.1382C99.0946 59.6881 97.6066 58.8156 96.6698 58.7145C96.2748 58.6778 96.1738 58.6319 96.2472 58.5492C96.3024 58.4849 96.4769 58.4114 96.6422 58.3839C96.7983 58.3563 97.0096 58.3104 97.1014 58.2736C97.2209 58.2277 97.2576 58.2553 97.2576 58.4022C97.2576 58.6227 97.5607 58.8431 97.974 58.9258C98.2404 58.9809 98.3139 58.9442 98.6629 58.5768C98.8742 58.3563 99.2324 57.8236 99.4528 57.4011C99.8478 56.6295 100.077 56.2989 100.197 56.2989C100.234 56.2989 100.289 56.6203 100.316 57.0061ZM64.0079 56.9877C64.0079 57.2817 63.319 58.6594 62.7954 59.385C62.2994 60.0831 61.3718 60.9557 61.0687 60.9924C60.8482 61.0292 60.839 61.0108 60.839 60.4597C60.839 59.9178 60.8298 59.881 60.6278 59.881C60.5084 59.881 60.3063 59.9361 60.1685 60.0096C59.9205 60.1382 59.9113 60.129 59.7644 59.7708L59.6082 59.4126L60.1042 59.4677L60.6094 59.532V59.0911C60.6094 58.8431 60.5635 58.4849 60.5084 58.292C60.4441 58.044 60.4441 57.8695 60.5267 57.6399L60.637 57.3368L61.3166 57.3827C62.0147 57.4286 62.474 57.3276 63.4568 56.9418C64.0079 56.7214 64.0079 56.7214 64.0079 56.9877ZM92.711 57.8971C93.1152 57.9062 93.556 57.8787 93.6846 57.842C93.9051 57.7777 93.8959 57.796 93.5744 58.1267C93.3907 58.3288 92.9866 58.8615 92.6835 59.3116L92.1324 60.1382L92.0772 59.7984C92.013 59.3758 91.3884 58.4849 90.9475 58.1818C90.6536 57.9889 90.6352 57.9522 90.7913 57.9062C90.8832 57.8787 91.0669 57.796 91.1955 57.7317C91.3884 57.6307 91.471 57.6399 91.7007 57.7501C91.8752 57.842 92.2518 57.8971 92.711 57.8971ZM44.7193 58.7513C44.7193 58.9993 44.7469 59.2932 44.7836 59.4126C44.8387 59.6238 44.8296 59.633 44.3611 59.5871C44.1039 59.5595 43.8651 59.5228 43.8376 59.4953C43.7641 59.4126 44.4622 58.3196 44.5907 58.3196C44.6826 58.3196 44.7193 58.4482 44.7193 58.7513ZM94.7776 59.9637C94.7776 60.0096 94.8052 60.1749 94.8327 60.3311L94.897 60.6158L94.3827 60.5607C93.9326 60.5056 93.8683 60.524 93.7765 60.6893C93.7214 60.7903 93.6754 61.0475 93.6754 61.2496C93.6754 61.4608 93.6387 61.6262 93.5928 61.6262C93.5377 61.6262 93.3723 61.9017 93.207 62.2416C92.9866 62.6733 92.8947 63.0131 92.8672 63.4356C92.8212 64.0694 92.8304 64.0694 93.4917 64.0143C94.0612 63.9684 94.897 63.2703 95.0164 62.7467C95.1267 62.2508 95.145 62.2048 95.2369 62.361C95.3104 62.4988 95.8064 64.8869 95.9166 65.64C95.9809 66.0901 95.935 66.1176 95.6135 65.8145C95.2644 65.5023 93.6387 64.5103 93.1611 64.3266C92.6467 64.1337 92.5181 64.2163 92.6467 64.6848L92.7386 65.0154L92.2701 65.0614C92.0038 65.0889 91.37 65.1349 90.8648 65.1624L89.9371 65.2175L89.9831 64.9603C90.0014 64.8226 90.1851 64.4276 90.3872 64.0969C90.9934 63.059 91.0393 61.8925 90.5066 60.5883C90.3229 60.129 90.3137 60.0555 90.4423 60.1106C90.7454 60.2301 91.6731 60.3495 91.8568 60.2852C92.0221 60.2392 92.0405 60.2576 91.9762 60.3954C91.6547 61.1761 91.6639 61.2129 92.1875 61.1945C92.6283 61.1853 93.4734 60.8087 93.9142 60.4229C94.4562 59.9545 94.7776 59.78 94.7776 59.9637ZM102.622 60.4964C102.346 60.6985 102.263 60.6342 102.502 60.377C102.64 60.2301 102.732 60.1841 102.759 60.2576C102.778 60.3219 102.723 60.4229 102.622 60.4964ZM37.3989 61.9293C37.6101 62.1038 37.601 62.1405 37.2703 62.2599C36.857 62.3977 36.857 62.3977 36.8937 61.9936C36.9304 61.6078 36.9764 61.6078 37.3989 61.9293ZM83.5995 63.7387C83.3882 64.3725 83.3423 65.0981 83.5076 65.2634C83.6087 65.3737 84.2332 65.0889 84.766 64.694L85.3171 64.2898V65.1073C85.3171 65.8421 85.3354 65.9339 85.4916 65.9891C85.7488 66.0625 86.3642 65.7319 86.6489 65.3553C86.7775 65.19 86.9428 64.8593 87.0255 64.6205C87.1082 64.3909 87.1816 64.198 87.1908 64.198C87.2092 64.198 87.4388 64.4184 87.7144 64.6756C89.2942 66.2095 89.9188 66.7698 90.277 67.0086L90.6811 67.275L89.7443 67.3668C89.2299 67.4219 88.7615 67.5138 88.7063 67.5689C88.5502 67.725 88.8074 68.0832 89.3126 68.4415C89.6065 68.6527 89.6983 68.7629 89.634 68.8364C89.5606 68.9191 89.8085 69.0752 90.5709 69.4059C91.1404 69.6631 91.7741 69.9202 91.9762 69.9845C92.5641 70.1682 92.5181 70.2142 91.7558 70.2142C91.1679 70.2142 90.9934 70.2509 90.8373 70.3887C90.6352 70.5724 90.5801 70.9398 90.7362 71.0408C90.9199 71.1602 90.8189 71.2613 90.3229 71.445C89.7443 71.6654 89.6891 71.6746 89.7718 71.546C89.7994 71.5001 89.7351 71.3715 89.6248 71.2613C89.4503 71.0867 89.3493 71.0684 88.6696 71.1051L87.9164 71.1418L88.1001 70.8387C88.4124 70.2968 88.1552 69.3416 87.5215 68.7078C87.1082 68.2945 86.9245 68.3312 86.7499 68.8548C86.6765 69.1028 86.5662 69.5804 86.5111 69.9386C86.3734 70.7928 86.2539 71.0316 85.9233 71.0684C85.5834 71.1143 85.5008 70.9765 85.5008 70.3703V69.8835L85.115 69.9386C84.5731 70.0121 84.4721 69.9202 84.5915 69.4977C84.6833 69.1487 84.5823 68.3496 84.4078 68.0741C84.27 67.8444 82.5891 68.965 82.3136 69.4702C82.2309 69.6263 82.185 69.6263 81.6798 69.5161C81.3859 69.4518 81.1287 69.3967 81.1103 69.3875C81.1012 69.3691 81.1655 69.0569 81.2757 68.6894C81.4961 67.8812 81.5145 67.1188 81.3216 66.9535C81.1563 66.8157 80.697 66.9535 80.4031 67.229L80.2102 67.4127L79.8244 66.9443C79.6132 66.6779 79.4387 66.4208 79.4387 66.3656C79.4479 66.0442 80.8715 64.6572 81.689 64.1796C82.2125 63.8673 83.7924 63.0315 83.8199 63.0407C83.8199 63.0499 83.7281 63.3621 83.5995 63.7387ZM42.0189 64.795C42.5517 65.1349 43.1579 65.7319 43.1579 65.9064C43.1579 65.9707 43.0936 66.035 43.0201 66.0625C42.9007 66.1176 41.8169 65.9799 41.6883 65.8972C41.6607 65.8788 41.624 65.6676 41.6056 65.438C41.5964 65.2083 41.5505 64.9052 41.5046 64.7858C41.3484 64.3817 41.3668 64.3817 42.0189 64.795ZM21.3894 65.1073C21.3894 65.2634 21.2241 65.3002 21.169 65.1624C21.1414 65.0797 21.169 65.0246 21.2516 65.0246C21.3251 65.0246 21.3894 65.0614 21.3894 65.1073ZM22.8131 66.3013C22.7855 66.3565 22.7121 66.4024 22.6569 66.4024C22.6018 66.4024 22.6018 66.3473 22.6753 66.2646C22.8039 66.1085 22.9141 66.1452 22.8131 66.3013ZM19.9014 66.3748L20.5719 66.4299L20.5444 66.7147C20.4985 67.5046 20.5352 67.5964 21.0036 67.7985C21.3067 67.9363 21.665 68.0006 22.2069 68.0189C22.9692 68.0465 22.9876 68.0557 23.0978 68.3129C23.1621 68.4598 23.254 68.616 23.3183 68.6527C23.4744 68.7446 23.7683 68.4323 23.9153 68.0006L24.0439 67.6424L24.0531 68.2486C24.0531 68.7997 23.9337 69.3783 23.7867 69.5437C23.75 69.5804 23.4836 69.461 23.1805 69.2773C22.8406 69.0752 22.5284 68.9466 22.3722 68.965C21.8487 68.9926 20.8567 68.3588 19.8555 67.3576C18.9554 66.4575 18.7074 66.1176 19.0748 66.2646C19.1575 66.3013 19.534 66.3473 19.9014 66.3748ZM73.2572 67.0637C73.3766 67.2658 73.6521 67.5138 73.9093 67.6424C74.7635 68.1108 75.1309 68.3496 75.0758 68.4139C75.0207 68.4598 72.5407 68.7078 72.4856 68.6619C72.4764 68.6619 72.5499 68.322 72.651 67.9179C72.7428 67.5138 72.8255 66.9535 72.8347 66.6779C72.8438 66.2003 72.8438 66.1911 72.9357 66.4483C72.9908 66.5953 73.1378 66.88 73.2572 67.0637ZM42.0373 67.1831C42.2853 67.3117 42.6527 67.4495 42.8456 67.4862L43.2038 67.5689L42.9374 67.6791C42.6343 67.7985 41.6148 67.9638 41.1096 67.9638H40.7514L41.027 67.7342C41.1739 67.6148 41.3484 67.3852 41.4127 67.229C41.477 67.0821 41.5413 66.9535 41.5505 66.9535C41.5689 66.9535 41.7893 67.0545 42.0373 67.1831ZM71.4385 68.1567C71.4477 68.6252 71.4293 68.6803 71.2456 68.7354C70.9425 68.818 70.8966 68.8089 70.8966 68.6527C70.8966 68.5792 70.7405 68.3588 70.5476 68.1567L70.1986 67.7893L70.7588 67.3668L71.3099 66.9443L71.3742 67.2933C71.411 67.4862 71.4385 67.872 71.4385 68.1567ZM62.7771 68.9926L63.2547 69.2773L62.9883 69.5069C62.4923 69.9202 62.2719 70.4254 62.2076 71.2888L62.1433 72.0695L61.8218 72.1706C61.6381 72.2257 61.4912 72.2624 61.482 72.2532C61.4728 72.244 61.3166 72.042 61.1238 71.8032L60.7747 71.3623L60.9217 70.3336C61.0044 69.7641 61.0687 69.1028 61.0687 68.8731V68.4506L61.6932 68.5792C62.0331 68.6527 62.5199 68.8364 62.7771 68.9926ZM51.0386 68.8456C51.4795 69.1487 52.1133 69.3232 53.3532 69.4702C54.6024 69.6171 54.4554 69.6539 52.4347 69.6539C50.9651 69.6631 50.9192 69.6722 50.8917 69.8559C50.8733 69.9662 50.9284 70.1131 51.0019 70.1958C51.0845 70.2785 51.1488 70.3519 51.1488 70.3703C51.1488 70.3887 50.6437 70.3979 50.0283 70.3979C49.0271 70.3979 48.8985 70.3795 48.871 70.2325C48.8526 70.1499 48.8801 70.0764 48.9261 70.0764C48.972 70.0764 49.1557 69.9294 49.3394 69.7549C49.6241 69.4794 49.6792 69.36 49.6792 69.0293C49.6792 68.818 49.7068 68.6068 49.7435 68.57C49.8721 68.4415 50.708 68.6252 51.0386 68.8456ZM56.568 69.3875C56.5037 69.4702 56.3108 69.5253 56.1179 69.5161L55.7873 69.5069L56.1547 69.3875C56.6507 69.2314 56.7058 69.2222 56.568 69.3875ZM64.412 69.5437C64.66 69.5253 64.7518 69.562 64.7151 69.6447C64.6967 69.6998 64.6049 70.1591 64.513 70.6642C64.4212 71.1694 64.3201 71.5092 64.2834 71.445C64.2467 71.3715 64.1732 71.0041 64.1089 70.6275C64.0446 70.2233 63.9252 69.8284 63.815 69.6722L63.6221 69.4151L63.8333 69.4885C63.9527 69.5253 64.2099 69.5437 64.412 69.5437ZM71.3375 70.1682C71.3742 70.1682 71.5028 70.1039 71.613 70.0213C71.7967 69.8927 71.8978 69.8927 72.6601 70.0213C73.1194 70.1039 73.9369 70.1682 74.4604 70.1682C75.4156 70.1682 75.4248 70.1682 75.2595 70.3519C75.1217 70.5081 74.9748 70.5356 74.3685 70.5356C73.7807 70.5356 73.6337 70.5632 73.5878 70.6918C73.5511 70.7928 73.6246 70.9214 73.8358 71.0959C74.0563 71.2796 74.1022 71.3715 74.0103 71.399C73.9369 71.4174 73.7256 71.4909 73.5419 71.546C73.1102 71.6746 72.4948 72.1246 72.4213 72.3543C72.3662 72.5288 72.3387 72.5288 71.9345 72.4094C71.4385 72.2532 70.8048 72.244 70.8048 72.3726C70.8048 72.74 71.4661 73.6034 71.9621 73.8974C72.1733 74.0259 72.403 74.1821 72.4581 74.2556C72.5499 74.3658 72.5407 74.3933 72.3754 74.3933C72.1182 74.3933 72.1182 74.7975 72.3662 75.1741C72.4673 75.321 72.5499 75.4772 72.5499 75.5139C72.5499 75.6333 71.6682 75.073 70.9425 74.4944C70.0883 73.8147 69.9322 73.7228 69.7026 73.7963C69.4178 73.8882 69.4454 74.6964 69.7485 75.2659C69.8771 75.5047 69.9689 75.7068 69.9597 75.7252C69.9414 75.7344 69.7669 75.8354 69.5648 75.9548C69.3627 76.065 68.9402 76.3222 68.6279 76.5243L68.0676 76.8825L67.6084 76.6529C67.3512 76.5243 66.8919 76.3497 66.5888 76.2671L66.0286 76.1109V75.5047C66.0286 74.9628 66.0377 74.9169 66.1571 75.0914C66.3592 75.3761 67.3879 75.9732 67.7094 75.9915C67.9758 76.0007 68.0033 75.9732 68.0768 75.6241C68.1503 75.2843 68.0401 74.6046 67.8288 74.1086C67.7553 73.9341 68.1319 73.8422 68.9218 73.8422C69.179 73.8422 69.5556 73.7596 69.776 73.6585C70.1526 73.484 70.2537 73.3554 70.07 73.2452C69.9414 73.1625 68.1411 72.8594 67.3512 72.786C66.9562 72.74 66.6164 72.6574 66.4878 72.5563L66.2674 72.391L66.5888 72.2532C66.7542 72.1706 67.0114 72.0328 67.1399 71.9501C67.3788 71.794 67.3971 71.8032 67.6359 71.9869C68.233 72.4553 68.6187 72.1614 68.931 71.0316C69.0137 70.7102 69.1147 70.4438 69.1515 70.4438C69.1882 70.4438 69.3443 70.6275 69.5097 70.8663C69.8403 71.3164 70.4649 71.7848 70.6119 71.6838C70.667 71.6562 70.7129 71.3623 70.7129 71.0408C70.7129 70.5356 70.7497 70.4162 70.9425 70.2233C71.0711 70.0948 71.1813 69.9202 71.1813 69.8284C71.1905 69.7365 71.2181 69.7733 71.2365 69.9111C71.2548 70.058 71.3099 70.1682 71.3375 70.1682ZM58.2948 70.4438C58.4693 70.6918 58.8091 71.0867 59.0571 71.3164C59.3051 71.546 59.5072 71.7481 59.5072 71.7664C59.5072 71.7848 59.3511 71.7572 59.1674 71.7021C58.9745 71.647 58.6163 71.4174 58.3591 71.1878C58.1111 70.949 57.7988 70.6918 57.6702 70.6183L57.4406 70.4622L57.661 70.2233C57.7896 70.0948 57.909 69.9845 57.9366 69.9845C57.9641 69.9845 58.1295 70.1958 58.2948 70.4438ZM66.4878 70.8939C66.4143 70.9398 66.1939 70.9949 66.0102 71.0224C65.7438 71.0592 65.6612 71.0408 65.6612 70.9398C65.6612 70.8479 65.7806 70.8112 66.148 70.8112C66.4511 70.8112 66.5797 70.8479 66.4878 70.8939ZM39.7135 71.3623C39.7411 71.4082 39.7043 71.4541 39.6308 71.4541C39.5482 71.4541 39.4839 71.4082 39.4839 71.3623C39.4839 71.3072 39.5206 71.2704 39.5665 71.2704C39.6217 71.2704 39.686 71.3072 39.7135 71.3623ZM92.8488 71.7848C92.8488 71.8583 92.6743 72.1798 92.3344 72.7217L92.0221 73.1993L91.517 72.8686C91.2414 72.6757 91.0302 72.5012 91.0577 72.4737C91.122 72.4186 92.6651 71.7481 92.7845 71.7389C92.8212 71.7297 92.8488 71.7572 92.8488 71.7848ZM74.0195 73.0156C74.2032 73.0156 74.2859 73.0707 74.3226 73.2177C74.3594 73.3279 74.3685 73.4381 74.3502 73.4565C74.3318 73.4748 74.0103 73.3279 73.6429 73.135L72.9632 72.7951L73.3306 72.74C73.6337 72.7033 73.7072 72.7217 73.7256 72.8503C73.744 72.9605 73.845 73.0156 74.0195 73.0156ZM54.8688 73.034L55.5117 73.236L54.7677 73.3095C54.3636 73.3463 53.8492 73.3463 53.6288 73.3095L53.2247 73.2452L53.6288 72.9972C53.8584 72.8594 54.088 72.7676 54.134 72.786C54.1891 72.8043 54.5197 72.9146 54.8688 73.034ZM90.3137 73.4748C90.3505 73.5116 90.3045 73.5759 90.1943 73.6126C90.0841 73.6402 90.0014 73.7137 90.0014 73.7596C90.0014 73.98 89.8637 73.8055 89.8453 73.5575C89.8269 73.3095 89.8453 73.2911 90.029 73.3463C90.1392 73.3738 90.2678 73.4381 90.3137 73.4748ZM55.5852 74.5954C55.3923 74.9353 55.0157 75.0271 54.4463 74.8801C54.1432 74.7975 54.1523 74.7975 54.832 74.5587C55.7689 74.2372 55.7965 74.2464 55.5852 74.5954ZM103.136 75.1741C103.136 75.2567 103.053 75.3118 102.906 75.3118C102.622 75.3118 102.603 75.1557 102.888 75.1006C102.998 75.0822 103.099 75.0547 103.118 75.0455C103.127 75.0455 103.136 75.1006 103.136 75.1741ZM101.602 75.4864C101.74 75.5323 101.676 75.5966 101.271 75.7986C100.601 76.1201 100.546 76.1109 100.932 75.7252C101.271 75.3945 101.336 75.3761 101.602 75.4864ZM71.0436 76.6529C71.0344 76.662 70.8782 76.6437 70.6945 76.6161C70.3823 76.5794 70.3455 76.5518 70.3455 76.3038V76.0283L70.6945 76.3314C70.8874 76.5059 71.0436 76.6437 71.0436 76.6529Z" fill="#407A0F"/>
</svg>
