<svg width="120" height="148" viewBox="0 0 120 148" fill="none" xmlns="http://www.w3.org/2000/svg">
<rect width="120" height="120" rx="19" fill="#6AD373"/>
<path d="M17.0137 128.781H19.3379L23.2246 139.484L27.1016 128.781H29.4355L24.1523 143H22.2871L17.0137 128.781ZM15.8418 128.781H18.1172L18.5273 138.615V143H15.8418V128.781ZM28.3223 128.781H30.6074V143H27.9219V138.615L28.3223 128.781ZM37.8926 143.195C37.0918 143.195 36.3724 143.065 35.7344 142.805C35.0964 142.544 34.5527 142.183 34.1035 141.721C33.6608 141.252 33.319 140.708 33.0781 140.09C32.8438 139.465 32.7266 138.794 32.7266 138.078V137.688C32.7266 136.874 32.8438 136.135 33.0781 135.471C33.3125 134.8 33.6445 134.224 34.0742 133.742C34.5039 133.26 35.0182 132.889 35.6172 132.629C36.2161 132.368 36.877 132.238 37.5996 132.238C38.3483 132.238 39.0091 132.365 39.582 132.619C40.1549 132.867 40.6335 133.218 41.0176 133.674C41.4017 134.13 41.6914 134.676 41.8867 135.314C42.082 135.946 42.1797 136.646 42.1797 137.414V138.498H33.8984V136.721H39.6406V136.525C39.6276 136.115 39.5495 135.741 39.4062 135.402C39.263 135.057 39.0417 134.784 38.7422 134.582C38.4427 134.374 38.0553 134.27 37.5801 134.27C37.196 134.27 36.8607 134.354 36.5742 134.523C36.2943 134.686 36.0599 134.921 35.8711 135.227C35.6888 135.526 35.5521 135.884 35.4609 136.301C35.3698 136.717 35.3242 137.18 35.3242 137.688V138.078C35.3242 138.521 35.3828 138.931 35.5 139.309C35.6237 139.686 35.8027 140.015 36.0371 140.295C36.278 140.568 36.5645 140.783 36.8965 140.939C37.235 141.089 37.6191 141.164 38.0488 141.164C38.5892 141.164 39.0775 141.06 39.5137 140.852C39.9564 140.637 40.3405 140.321 40.666 139.904L41.9648 141.252C41.7435 141.577 41.444 141.89 41.0664 142.189C40.6953 142.489 40.2461 142.733 39.7188 142.922C39.1914 143.104 38.5827 143.195 37.8926 143.195ZM49.7188 140.109C49.7188 139.888 49.6602 139.689 49.543 139.514C49.4258 139.338 49.2044 139.178 48.8789 139.035C48.5599 138.885 48.0911 138.745 47.4727 138.615C46.9258 138.498 46.4212 138.352 45.959 138.176C45.4967 138 45.0996 137.788 44.7676 137.541C44.4355 137.287 44.1751 136.991 43.9863 136.652C43.804 136.307 43.7129 135.91 43.7129 135.461C43.7129 135.025 43.8073 134.615 43.9961 134.23C44.1849 133.84 44.4583 133.498 44.8164 133.205C45.1745 132.906 45.6107 132.671 46.125 132.502C46.6393 132.326 47.2188 132.238 47.8633 132.238C48.7617 132.238 49.5332 132.385 50.1777 132.678C50.8288 132.971 51.3268 133.374 51.6719 133.889C52.0169 134.396 52.1895 134.969 52.1895 135.607H49.6113C49.6113 135.327 49.5462 135.074 49.416 134.846C49.2923 134.618 49.1003 134.436 48.8398 134.299C48.5794 134.156 48.2507 134.084 47.8535 134.084C47.4954 134.084 47.1927 134.143 46.9453 134.26C46.7044 134.377 46.5221 134.53 46.3984 134.719C46.2747 134.908 46.2129 135.116 46.2129 135.344C46.2129 135.513 46.2454 135.666 46.3105 135.803C46.3822 135.933 46.4961 136.053 46.6523 136.164C46.8086 136.275 47.0202 136.376 47.2871 136.467C47.5605 136.558 47.8958 136.646 48.293 136.73C49.0807 136.887 49.7676 137.095 50.3535 137.355C50.946 137.609 51.4082 137.948 51.7402 138.371C52.0723 138.794 52.2383 139.335 52.2383 139.992C52.2383 140.461 52.1374 140.891 51.9355 141.281C51.7337 141.665 51.4408 142.001 51.0566 142.287C50.6725 142.574 50.2135 142.798 49.6797 142.961C49.1458 143.117 48.5436 143.195 47.873 143.195C46.903 143.195 46.0827 143.023 45.4121 142.678C44.7415 142.326 44.2337 141.883 43.8887 141.35C43.5436 140.809 43.3711 140.249 43.3711 139.67H45.8418C45.8613 140.08 45.972 140.409 46.1738 140.656C46.3757 140.904 46.6296 141.083 46.9355 141.193C47.248 141.298 47.5768 141.35 47.9219 141.35C48.3125 141.35 48.6413 141.298 48.9082 141.193C49.1751 141.083 49.377 140.936 49.5137 140.754C49.6504 140.565 49.7188 140.35 49.7188 140.109ZM60.0117 140.109C60.0117 139.888 59.9531 139.689 59.8359 139.514C59.7188 139.338 59.4974 139.178 59.1719 139.035C58.8529 138.885 58.3841 138.745 57.7656 138.615C57.2188 138.498 56.7142 138.352 56.252 138.176C55.7897 138 55.3926 137.788 55.0605 137.541C54.7285 137.287 54.4681 136.991 54.2793 136.652C54.097 136.307 54.0059 135.91 54.0059 135.461C54.0059 135.025 54.1003 134.615 54.2891 134.23C54.4779 133.84 54.7513 133.498 55.1094 133.205C55.4674 132.906 55.9036 132.671 56.418 132.502C56.9323 132.326 57.5117 132.238 58.1562 132.238C59.0547 132.238 59.8262 132.385 60.4707 132.678C61.1217 132.971 61.6198 133.374 61.9648 133.889C62.3099 134.396 62.4824 134.969 62.4824 135.607H59.9043C59.9043 135.327 59.8392 135.074 59.709 134.846C59.5853 134.618 59.3932 134.436 59.1328 134.299C58.8724 134.156 58.5436 134.084 58.1465 134.084C57.7884 134.084 57.4857 134.143 57.2383 134.26C56.9974 134.377 56.8151 134.53 56.6914 134.719C56.5677 134.908 56.5059 135.116 56.5059 135.344C56.5059 135.513 56.5384 135.666 56.6035 135.803C56.6751 135.933 56.7891 136.053 56.9453 136.164C57.1016 136.275 57.3132 136.376 57.5801 136.467C57.8535 136.558 58.1888 136.646 58.5859 136.73C59.3737 136.887 60.0605 137.095 60.6465 137.355C61.2389 137.609 61.7012 137.948 62.0332 138.371C62.3652 138.794 62.5312 139.335 62.5312 139.992C62.5312 140.461 62.4303 140.891 62.2285 141.281C62.0267 141.665 61.7337 142.001 61.3496 142.287C60.9655 142.574 60.5065 142.798 59.9727 142.961C59.4388 143.117 58.8366 143.195 58.166 143.195C57.196 143.195 56.3757 143.023 55.7051 142.678C55.0345 142.326 54.5267 141.883 54.1816 141.35C53.8366 140.809 53.6641 140.249 53.6641 139.67H56.1348C56.1543 140.08 56.265 140.409 56.4668 140.656C56.6686 140.904 56.9225 141.083 57.2285 141.193C57.541 141.298 57.8698 141.35 58.2148 141.35C58.6055 141.35 58.9342 141.298 59.2012 141.193C59.4681 141.083 59.6699 140.936 59.8066 140.754C59.9434 140.565 60.0117 140.35 60.0117 140.109ZM70.3145 140.754V135.881C70.3145 135.523 70.2526 135.214 70.1289 134.953C70.0052 134.693 69.8164 134.491 69.5625 134.348C69.3086 134.204 68.9863 134.133 68.5957 134.133C68.2507 134.133 67.9479 134.191 67.6875 134.309C67.4336 134.426 67.2383 134.592 67.1016 134.807C66.9648 135.015 66.8965 135.256 66.8965 135.529H64.3086C64.3086 135.093 64.4128 134.68 64.6211 134.289C64.8294 133.892 65.1257 133.54 65.5098 133.234C65.9004 132.922 66.3659 132.678 66.9062 132.502C67.4531 132.326 68.0651 132.238 68.7422 132.238C69.543 132.238 70.2559 132.375 70.8809 132.648C71.5124 132.915 72.0072 133.319 72.3652 133.859C72.7298 134.4 72.9121 135.08 72.9121 135.9V140.51C72.9121 141.037 72.9447 141.49 73.0098 141.867C73.0814 142.238 73.1855 142.561 73.3223 142.834V143H70.6953C70.5716 142.733 70.4772 142.395 70.4121 141.984C70.347 141.568 70.3145 141.158 70.3145 140.754ZM70.6758 136.564L70.6953 138.098H69.0645C68.6608 138.098 68.306 138.14 68 138.225C67.694 138.303 67.4434 138.42 67.248 138.576C67.0527 138.726 66.9062 138.908 66.8086 139.123C66.7109 139.331 66.6621 139.569 66.6621 139.836C66.6621 140.096 66.7207 140.331 66.8379 140.539C66.9616 140.747 67.1374 140.913 67.3652 141.037C67.5996 141.154 67.873 141.213 68.1855 141.213C68.6413 141.213 69.0384 141.122 69.377 140.939C69.7155 140.751 69.9792 140.523 70.168 140.256C70.3568 139.989 70.4577 139.735 70.4707 139.494L71.2129 140.607C71.1217 140.874 70.985 141.158 70.8027 141.457C70.6204 141.757 70.3861 142.036 70.0996 142.297C69.8132 142.557 69.4681 142.772 69.0645 142.941C68.6608 143.111 68.1921 143.195 67.6582 143.195C66.9746 143.195 66.3626 143.059 65.8223 142.785C65.2819 142.512 64.8555 142.137 64.543 141.662C64.2305 141.187 64.0742 140.646 64.0742 140.041C64.0742 139.481 64.1784 138.986 64.3867 138.557C64.5951 138.127 64.9043 137.766 65.3145 137.473C65.7246 137.173 66.2324 136.949 66.8379 136.799C67.4499 136.643 68.1497 136.564 68.9375 136.564H70.6758ZM81.9551 132.434H84.2988V142.678C84.2988 143.635 84.0905 144.445 83.6738 145.109C83.2637 145.78 82.6875 146.288 81.9453 146.633C81.2031 146.984 80.3405 147.16 79.3574 147.16C78.9342 147.16 78.4753 147.102 77.9805 146.984C77.4922 146.867 77.0202 146.682 76.5645 146.428C76.1152 146.18 75.7409 145.858 75.4414 145.461L76.6035 143.938C76.9551 144.348 77.3522 144.657 77.7949 144.865C78.2376 145.08 78.7161 145.188 79.2305 145.188C79.7513 145.188 80.194 145.09 80.5586 144.895C80.9297 144.706 81.2129 144.426 81.4082 144.055C81.61 143.69 81.7109 143.241 81.7109 142.707V134.846L81.9551 132.434ZM74.8164 137.844V137.639C74.8164 136.831 74.9141 136.099 75.1094 135.441C75.3047 134.777 75.5846 134.208 75.9492 133.732C76.3203 133.257 76.7663 132.889 77.2871 132.629C77.8145 132.368 78.4069 132.238 79.0645 132.238C79.7611 132.238 80.347 132.365 80.8223 132.619C81.304 132.873 81.7012 133.234 82.0137 133.703C82.3327 134.172 82.5801 134.729 82.7559 135.373C82.9382 136.011 83.0781 136.714 83.1758 137.482V138.039C83.0846 138.788 82.9382 139.475 82.7363 140.1C82.541 140.725 82.2806 141.271 81.9551 141.74C81.6296 142.202 81.2259 142.561 80.7441 142.814C80.2624 143.068 79.696 143.195 79.0449 143.195C78.3939 143.195 77.8079 143.062 77.2871 142.795C76.7663 142.528 76.3203 142.154 75.9492 141.672C75.5846 141.19 75.3047 140.624 75.1094 139.973C74.9141 139.322 74.8164 138.612 74.8164 137.844ZM77.3945 137.639V137.844C77.3945 138.299 77.4401 138.726 77.5312 139.123C77.6224 139.52 77.7624 139.872 77.9512 140.178C78.14 140.477 78.3776 140.712 78.6641 140.881C78.9505 141.05 79.2923 141.135 79.6895 141.135C80.2233 141.135 80.6595 141.024 80.998 140.803C81.3431 140.575 81.6035 140.266 81.7793 139.875C81.9616 139.478 82.0788 139.032 82.1309 138.537V137.004C82.0983 136.613 82.0267 136.252 81.916 135.92C81.8118 135.588 81.6654 135.301 81.4766 135.061C81.2878 134.82 81.0469 134.631 80.7539 134.494C80.4609 134.357 80.1126 134.289 79.709 134.289C79.3184 134.289 78.9766 134.377 78.6836 134.553C78.3906 134.722 78.1497 134.96 77.9609 135.266C77.7721 135.572 77.6289 135.926 77.5312 136.33C77.4401 136.734 77.3945 137.17 77.3945 137.639ZM91.3691 143.195C90.5684 143.195 89.849 143.065 89.2109 142.805C88.5729 142.544 88.0293 142.183 87.5801 141.721C87.1374 141.252 86.7956 140.708 86.5547 140.09C86.3203 139.465 86.2031 138.794 86.2031 138.078V137.688C86.2031 136.874 86.3203 136.135 86.5547 135.471C86.7891 134.8 87.1211 134.224 87.5508 133.742C87.9805 133.26 88.4948 132.889 89.0938 132.629C89.6927 132.368 90.3535 132.238 91.0762 132.238C91.8249 132.238 92.4857 132.365 93.0586 132.619C93.6315 132.867 94.11 133.218 94.4941 133.674C94.8783 134.13 95.168 134.676 95.3633 135.314C95.5586 135.946 95.6562 136.646 95.6562 137.414V138.498H87.375V136.721H93.1172V136.525C93.1042 136.115 93.026 135.741 92.8828 135.402C92.7396 135.057 92.5182 134.784 92.2188 134.582C91.9193 134.374 91.5319 134.27 91.0566 134.27C90.6725 134.27 90.3372 134.354 90.0508 134.523C89.7708 134.686 89.5365 134.921 89.3477 135.227C89.1654 135.526 89.0286 135.884 88.9375 136.301C88.8464 136.717 88.8008 137.18 88.8008 137.688V138.078C88.8008 138.521 88.8594 138.931 88.9766 139.309C89.1003 139.686 89.2793 140.015 89.5137 140.295C89.7546 140.568 90.041 140.783 90.373 140.939C90.7116 141.089 91.0957 141.164 91.5254 141.164C92.0658 141.164 92.554 141.06 92.9902 140.852C93.4329 140.637 93.8171 140.321 94.1426 139.904L95.4414 141.252C95.2201 141.577 94.9206 141.89 94.543 142.189C94.1719 142.489 93.7227 142.733 93.1953 142.922C92.668 143.104 92.0592 143.195 91.3691 143.195ZM103.195 140.109C103.195 139.888 103.137 139.689 103.02 139.514C102.902 139.338 102.681 139.178 102.355 139.035C102.036 138.885 101.568 138.745 100.949 138.615C100.402 138.498 99.8978 138.352 99.4355 138.176C98.9733 138 98.5762 137.788 98.2441 137.541C97.9121 137.287 97.6517 136.991 97.4629 136.652C97.2806 136.307 97.1895 135.91 97.1895 135.461C97.1895 135.025 97.2839 134.615 97.4727 134.23C97.6615 133.84 97.9349 133.498 98.293 133.205C98.651 132.906 99.0872 132.671 99.6016 132.502C100.116 132.326 100.695 132.238 101.34 132.238C102.238 132.238 103.01 132.385 103.654 132.678C104.305 132.971 104.803 133.374 105.148 133.889C105.493 134.396 105.666 134.969 105.666 135.607H103.088C103.088 135.327 103.023 135.074 102.893 134.846C102.769 134.618 102.577 134.436 102.316 134.299C102.056 134.156 101.727 134.084 101.33 134.084C100.972 134.084 100.669 134.143 100.422 134.26C100.181 134.377 99.9987 134.53 99.875 134.719C99.7513 134.908 99.6895 135.116 99.6895 135.344C99.6895 135.513 99.722 135.666 99.7871 135.803C99.8587 135.933 99.9727 136.053 100.129 136.164C100.285 136.275 100.497 136.376 100.764 136.467C101.037 136.558 101.372 136.646 101.77 136.73C102.557 136.887 103.244 137.095 103.83 137.355C104.423 137.609 104.885 137.948 105.217 138.371C105.549 138.794 105.715 139.335 105.715 139.992C105.715 140.461 105.614 140.891 105.412 141.281C105.21 141.665 104.917 142.001 104.533 142.287C104.149 142.574 103.69 142.798 103.156 142.961C102.622 143.117 102.02 143.195 101.35 143.195C100.38 143.195 99.5592 143.023 98.8887 142.678C98.2181 142.326 97.7103 141.883 97.3652 141.35C97.0202 140.809 96.8477 140.249 96.8477 139.67H99.3184C99.3379 140.08 99.4486 140.409 99.6504 140.656C99.8522 140.904 100.106 141.083 100.412 141.193C100.725 141.298 101.053 141.35 101.398 141.35C101.789 141.35 102.118 141.298 102.385 141.193C102.652 141.083 102.854 140.936 102.99 140.754C103.127 140.565 103.195 140.35 103.195 140.109Z" fill="white"/>
<ellipse cx="60" cy="55.5" rx="44" ry="36.5" fill="white"/>
<path d="M31.5 66L44.9234 87.75H18.0766L31.5 66Z" fill="white"/>
</svg>
