<svg width="120" height="148" viewBox="0 0 120 148" fill="none" xmlns="http://www.w3.org/2000/svg">
<rect width="120" height="120" rx="19" fill="#33DCEB"/>
<path d="M22.8816 88.75L60.5 24.9093L98.1184 88.75H22.8816Z" stroke="#273F45" stroke-width="6"/>
<path d="M48.9254 88.75L72.8751 46.3416L96.8247 88.75H48.9254Z" stroke="#273F45" stroke-width="6"/>
<path d="M42.35 55.4787C42.35 55.4787 45.2375 51.3334 52.25 52.9915C59.2625 54.6496 66.275 70.4017 74.525 69.5727C82.775 68.7436 82.775 61.6966 82.775 61.6966" stroke="#273F45" stroke-width="4" stroke-linecap="round" stroke-dasharray="6 6"/>
<path d="M6.91602 128.781H9.24023L13.127 139.484L17.0039 128.781H19.3379L14.0547 143H12.1895L6.91602 128.781ZM5.74414 128.781H8.01953L8.42969 138.615V143H5.74414V128.781ZM18.2246 128.781H20.5098V143H17.8242V138.615L18.2246 128.781ZM25.7832 132.434V143H23.1953V132.434H25.7832ZM23.0195 129.67C23.0195 129.286 23.1497 128.967 23.4102 128.713C23.6771 128.459 24.0352 128.332 24.4844 128.332C24.9336 128.332 25.2884 128.459 25.5488 128.713C25.8158 128.967 25.9492 129.286 25.9492 129.67C25.9492 130.048 25.8158 130.363 25.5488 130.617C25.2884 130.871 24.9336 130.998 24.4844 130.998C24.0352 130.998 23.6771 130.871 23.4102 130.617C23.1497 130.363 23.0195 130.048 23.0195 129.67ZM34.9629 132.434H37.3066V142.678C37.3066 143.635 37.0983 144.445 36.6816 145.109C36.2715 145.78 35.6953 146.288 34.9531 146.633C34.2109 146.984 33.3483 147.16 32.3652 147.16C31.9421 147.16 31.4831 147.102 30.9883 146.984C30.5 146.867 30.028 146.682 29.5723 146.428C29.123 146.18 28.7487 145.858 28.4492 145.461L29.6113 143.938C29.9629 144.348 30.36 144.657 30.8027 144.865C31.2454 145.08 31.724 145.188 32.2383 145.188C32.7591 145.188 33.2018 145.09 33.5664 144.895C33.9375 144.706 34.2207 144.426 34.416 144.055C34.6178 143.69 34.7188 143.241 34.7188 142.707V134.846L34.9629 132.434ZM27.8242 137.844V137.639C27.8242 136.831 27.9219 136.099 28.1172 135.441C28.3125 134.777 28.5924 134.208 28.957 133.732C29.3281 133.257 29.7741 132.889 30.2949 132.629C30.8223 132.368 31.4147 132.238 32.0723 132.238C32.7689 132.238 33.3548 132.365 33.8301 132.619C34.3118 132.873 34.709 133.234 35.0215 133.703C35.3405 134.172 35.5879 134.729 35.7637 135.373C35.946 136.011 36.0859 136.714 36.1836 137.482V138.039C36.0924 138.788 35.946 139.475 35.7441 140.1C35.5488 140.725 35.2884 141.271 34.9629 141.74C34.6374 142.202 34.2337 142.561 33.752 142.814C33.2702 143.068 32.7038 143.195 32.0527 143.195C31.4017 143.195 30.8158 143.062 30.2949 142.795C29.7741 142.528 29.3281 142.154 28.957 141.672C28.5924 141.19 28.3125 140.624 28.1172 139.973C27.9219 139.322 27.8242 138.612 27.8242 137.844ZM30.4023 137.639V137.844C30.4023 138.299 30.4479 138.726 30.5391 139.123C30.6302 139.52 30.7702 139.872 30.959 140.178C31.1478 140.477 31.3854 140.712 31.6719 140.881C31.9583 141.05 32.3001 141.135 32.6973 141.135C33.2311 141.135 33.6673 141.024 34.0059 140.803C34.3509 140.575 34.6113 140.266 34.7871 139.875C34.9694 139.478 35.0866 139.032 35.1387 138.537V137.004C35.1061 136.613 35.0345 136.252 34.9238 135.92C34.8197 135.588 34.6732 135.301 34.4844 135.061C34.2956 134.82 34.0547 134.631 33.7617 134.494C33.4688 134.357 33.1204 134.289 32.7168 134.289C32.3262 134.289 31.9844 134.377 31.6914 134.553C31.3984 134.722 31.1576 134.96 30.9688 135.266C30.7799 135.572 30.6367 135.926 30.5391 136.33C30.4479 136.734 30.4023 137.17 30.4023 137.639ZM42.1602 128V143H39.5723V128H42.1602ZM41.75 137.336H40.9883C40.9883 136.6 41.0859 135.923 41.2812 135.305C41.4766 134.686 41.7533 134.149 42.1113 133.693C42.4694 133.231 42.8958 132.873 43.3906 132.619C43.8919 132.365 44.4453 132.238 45.0508 132.238C45.5716 132.238 46.0436 132.313 46.4668 132.463C46.8965 132.606 47.2643 132.837 47.5703 133.156C47.8763 133.475 48.1107 133.892 48.2734 134.406C48.4427 134.914 48.5273 135.533 48.5273 136.262V143H45.9297V136.242C45.9297 135.754 45.8581 135.37 45.7148 135.09C45.5716 134.803 45.3665 134.598 45.0996 134.475C44.8392 134.351 44.5169 134.289 44.1328 134.289C43.7161 134.289 43.3581 134.37 43.0586 134.533C42.7591 134.689 42.5117 134.908 42.3164 135.188C42.1276 135.467 41.9844 135.79 41.8867 136.154C41.7956 136.519 41.75 136.913 41.75 137.336ZM55.8027 132.434V134.289H49.748V132.434H55.8027ZM51.3691 129.836H53.957V139.953C53.957 140.266 53.9993 140.507 54.084 140.676C54.1686 140.845 54.2956 140.959 54.4648 141.018C54.6341 141.076 54.8359 141.105 55.0703 141.105C55.2396 141.105 55.3958 141.096 55.5391 141.076C55.6823 141.057 55.8027 141.037 55.9004 141.018L55.9102 142.951C55.6953 143.023 55.4512 143.081 55.1777 143.127C54.9108 143.173 54.6081 143.195 54.2695 143.195C53.6901 143.195 53.1823 143.098 52.7461 142.902C52.3099 142.701 51.9714 142.378 51.7305 141.936C51.4896 141.486 51.3691 140.894 51.3691 140.158V129.836ZM60.6172 141.828L63.4492 132.434H66.2129L61.9746 144.602C61.877 144.862 61.75 145.145 61.5938 145.451C61.444 145.757 61.2422 146.047 60.9883 146.32C60.7344 146.6 60.4154 146.828 60.0312 147.004C59.6536 147.18 59.1947 147.268 58.6543 147.268C58.4199 147.268 58.2116 147.251 58.0293 147.219C57.847 147.186 57.6549 147.144 57.4531 147.092V145.158C57.5182 145.165 57.5931 145.168 57.6777 145.168C57.7689 145.174 57.847 145.178 57.9121 145.178C58.2897 145.178 58.6022 145.132 58.8496 145.041C59.097 144.956 59.2956 144.816 59.4453 144.621C59.6016 144.432 59.7318 144.185 59.8359 143.879L60.6172 141.828ZM59.2207 132.434L61.6133 140.217L62.0332 142.941L60.2559 143.264L56.4375 132.434H59.2207ZM78.0879 136.662H74.4551L74.4355 134.768H77.5508C78.0846 134.768 78.5306 134.693 78.8887 134.543C79.2467 134.393 79.5169 134.175 79.6992 133.889C79.888 133.602 79.9824 133.254 79.9824 132.844C79.9824 132.388 79.8945 132.017 79.7188 131.73C79.5495 131.444 79.2826 131.236 78.918 131.105C78.5534 130.969 78.0911 130.9 77.5312 130.9H75.3242V143H72.6387V128.781H77.5312C78.3385 128.781 79.0579 128.859 79.6895 129.016C80.3275 129.165 80.8678 129.4 81.3105 129.719C81.7533 130.038 82.0885 130.438 82.3164 130.92C82.5508 131.402 82.668 131.975 82.668 132.639C82.668 133.225 82.5312 133.765 82.2578 134.26C81.9909 134.748 81.5775 135.145 81.0176 135.451C80.4642 135.757 79.7611 135.933 78.9082 135.979L78.0879 136.662ZM77.9707 143H73.6641L74.7871 140.891H77.9707C78.5046 140.891 78.944 140.803 79.2891 140.627C79.6406 140.451 79.901 140.21 80.0703 139.904C80.2461 139.592 80.334 139.234 80.334 138.83C80.334 138.387 80.2559 138.003 80.0996 137.678C79.9499 137.352 79.709 137.102 79.377 136.926C79.0514 136.75 78.6217 136.662 78.0879 136.662H75.2949L75.3145 134.768H78.8691L79.4844 135.5C80.3047 135.507 80.972 135.669 81.4863 135.988C82.0072 136.307 82.3913 136.717 82.6387 137.219C82.8861 137.72 83.0098 138.26 83.0098 138.84C83.0098 139.751 82.8112 140.516 82.4141 141.135C82.0234 141.753 81.4505 142.219 80.6953 142.531C79.9466 142.844 79.0384 143 77.9707 143ZM91.4277 140.49V132.434H94.0254V143H91.584L91.4277 140.49ZM91.7598 138.303L92.5605 138.283C92.5605 138.993 92.4824 139.647 92.3262 140.246C92.1699 140.845 91.9258 141.366 91.5938 141.809C91.2682 142.245 90.8548 142.587 90.3535 142.834C89.8522 143.075 89.2598 143.195 88.5762 143.195C88.0553 143.195 87.5801 143.124 87.1504 142.98C86.7207 142.831 86.3496 142.6 86.0371 142.287C85.7311 141.968 85.4935 141.561 85.3242 141.066C85.1549 140.565 85.0703 139.963 85.0703 139.26V132.434H87.6484V139.279C87.6484 139.631 87.6875 139.924 87.7656 140.158C87.8503 140.393 87.9642 140.585 88.1074 140.734C88.2572 140.878 88.4297 140.982 88.625 141.047C88.8268 141.105 89.0417 141.135 89.2695 141.135C89.8945 141.135 90.3861 141.011 90.7441 140.764C91.1087 140.51 91.3691 140.171 91.5254 139.748C91.6816 139.318 91.7598 138.837 91.7598 138.303ZM102.121 140.109C102.121 139.888 102.062 139.689 101.945 139.514C101.828 139.338 101.607 139.178 101.281 139.035C100.962 138.885 100.493 138.745 99.875 138.615C99.3281 138.498 98.8236 138.352 98.3613 138.176C97.8991 138 97.502 137.788 97.1699 137.541C96.8379 137.287 96.5775 136.991 96.3887 136.652C96.2064 136.307 96.1152 135.91 96.1152 135.461C96.1152 135.025 96.2096 134.615 96.3984 134.23C96.5872 133.84 96.8607 133.498 97.2188 133.205C97.5768 132.906 98.013 132.671 98.5273 132.502C99.0417 132.326 99.6211 132.238 100.266 132.238C101.164 132.238 101.936 132.385 102.58 132.678C103.231 132.971 103.729 133.374 104.074 133.889C104.419 134.396 104.592 134.969 104.592 135.607H102.014C102.014 135.327 101.949 135.074 101.818 134.846C101.695 134.618 101.503 134.436 101.242 134.299C100.982 134.156 100.653 134.084 100.256 134.084C99.8978 134.084 99.5951 134.143 99.3477 134.26C99.1068 134.377 98.9245 134.53 98.8008 134.719C98.6771 134.908 98.6152 135.116 98.6152 135.344C98.6152 135.513 98.6478 135.666 98.7129 135.803C98.7845 135.933 98.8984 136.053 99.0547 136.164C99.2109 136.275 99.4225 136.376 99.6895 136.467C99.9629 136.558 100.298 136.646 100.695 136.73C101.483 136.887 102.17 137.095 102.756 137.355C103.348 137.609 103.811 137.948 104.143 138.371C104.475 138.794 104.641 139.335 104.641 139.992C104.641 140.461 104.54 140.891 104.338 141.281C104.136 141.665 103.843 142.001 103.459 142.287C103.075 142.574 102.616 142.798 102.082 142.961C101.548 143.117 100.946 143.195 100.275 143.195C99.3053 143.195 98.485 143.023 97.8145 142.678C97.1439 142.326 96.6361 141.883 96.291 141.35C95.946 140.809 95.7734 140.249 95.7734 139.67H98.2441C98.2637 140.08 98.3743 140.409 98.5762 140.656C98.778 140.904 99.0319 141.083 99.3379 141.193C99.6504 141.298 99.9792 141.35 100.324 141.35C100.715 141.35 101.044 141.298 101.311 141.193C101.577 141.083 101.779 140.936 101.916 140.754C102.053 140.565 102.121 140.35 102.121 140.109ZM109.133 128V143H106.545V128H109.133ZM108.723 137.336H107.961C107.961 136.6 108.059 135.923 108.254 135.305C108.449 134.686 108.726 134.149 109.084 133.693C109.442 133.231 109.868 132.873 110.363 132.619C110.865 132.365 111.418 132.238 112.023 132.238C112.544 132.238 113.016 132.313 113.439 132.463C113.869 132.606 114.237 132.837 114.543 133.156C114.849 133.475 115.083 133.892 115.246 134.406C115.415 134.914 115.5 135.533 115.5 136.262V143H112.902V136.242C112.902 135.754 112.831 135.37 112.688 135.09C112.544 134.803 112.339 134.598 112.072 134.475C111.812 134.351 111.49 134.289 111.105 134.289C110.689 134.289 110.331 134.37 110.031 134.533C109.732 134.689 109.484 134.908 109.289 135.188C109.1 135.467 108.957 135.79 108.859 136.154C108.768 136.519 108.723 136.913 108.723 137.336Z" fill="white"/>
</svg>
