<svg width="120" height="148" viewBox="0 0 120 148" fill="none" xmlns="http://www.w3.org/2000/svg">
<rect width="120" height="120" rx="19" fill="white"/>
<path d="M42.1973 139.309C42.1973 139.035 42.1549 138.791 42.0703 138.576C41.9922 138.355 41.8457 138.156 41.6309 137.98C41.4225 137.798 41.1263 137.622 40.7422 137.453C40.3646 137.277 39.8763 137.095 39.2773 136.906C38.6133 136.698 37.9948 136.464 37.4219 136.203C36.849 135.943 36.3444 135.64 35.9082 135.295C35.4785 134.95 35.1432 134.553 34.9023 134.104C34.6615 133.648 34.541 133.12 34.541 132.521C34.541 131.936 34.6647 131.402 34.9121 130.92C35.166 130.438 35.5241 130.025 35.9863 129.68C36.4486 129.328 36.9922 129.058 37.6172 128.869C38.2487 128.68 38.9453 128.586 39.707 128.586C40.7617 128.586 41.6732 128.778 42.4414 129.162C43.2161 129.546 43.8151 130.067 44.2383 130.725C44.6615 131.382 44.873 132.121 44.873 132.941H42.1973C42.1973 132.499 42.1029 132.108 41.9141 131.77C41.7318 131.431 41.4518 131.164 41.0742 130.969C40.7031 130.773 40.2344 130.676 39.668 130.676C39.1211 130.676 38.6654 130.757 38.3008 130.92C37.9427 131.083 37.6725 131.304 37.4902 131.584C37.3145 131.864 37.2266 132.176 37.2266 132.521C37.2266 132.782 37.2884 133.016 37.4121 133.225C37.5358 133.426 37.7214 133.618 37.9688 133.801C38.2161 133.977 38.5221 134.143 38.8867 134.299C39.2578 134.449 39.6875 134.598 40.1758 134.748C40.957 134.982 41.6406 135.243 42.2266 135.529C42.819 135.816 43.3105 136.141 43.7012 136.506C44.0983 136.87 44.3945 137.281 44.5898 137.736C44.7917 138.192 44.8926 138.71 44.8926 139.289C44.8926 139.901 44.7721 140.448 44.5312 140.93C44.2904 141.411 43.9453 141.822 43.4961 142.16C43.0469 142.499 42.5065 142.756 41.875 142.932C41.25 143.107 40.5501 143.195 39.7754 143.195C39.0853 143.195 38.4017 143.104 37.7246 142.922C37.054 142.733 36.4453 142.453 35.8984 142.082C35.3516 141.704 34.9154 141.229 34.5898 140.656C34.2643 140.077 34.1016 139.4 34.1016 138.625H36.7969C36.7969 139.074 36.8685 139.458 37.0117 139.777C37.1615 140.09 37.3698 140.347 37.6367 140.549C37.9102 140.744 38.2292 140.887 38.5938 140.979C38.9583 141.07 39.3522 141.115 39.7754 141.115C40.3223 141.115 40.7715 141.04 41.123 140.891C41.4811 140.734 41.748 140.52 41.9238 140.246C42.1061 139.973 42.1973 139.66 42.1973 139.309ZM52.5879 140.754V135.881C52.5879 135.523 52.526 135.214 52.4023 134.953C52.2786 134.693 52.0898 134.491 51.8359 134.348C51.582 134.204 51.2598 134.133 50.8691 134.133C50.5241 134.133 50.2214 134.191 49.9609 134.309C49.707 134.426 49.5117 134.592 49.375 134.807C49.2383 135.015 49.1699 135.256 49.1699 135.529H46.582C46.582 135.093 46.6862 134.68 46.8945 134.289C47.1029 133.892 47.3991 133.54 47.7832 133.234C48.1738 132.922 48.6393 132.678 49.1797 132.502C49.7266 132.326 50.3385 132.238 51.0156 132.238C51.8164 132.238 52.5293 132.375 53.1543 132.648C53.7858 132.915 54.2806 133.319 54.6387 133.859C55.0033 134.4 55.1855 135.08 55.1855 135.9V140.51C55.1855 141.037 55.2181 141.49 55.2832 141.867C55.3548 142.238 55.459 142.561 55.5957 142.834V143H52.9688C52.8451 142.733 52.7507 142.395 52.6855 141.984C52.6204 141.568 52.5879 141.158 52.5879 140.754ZM52.9492 136.564L52.9688 138.098H51.3379C50.9342 138.098 50.5794 138.14 50.2734 138.225C49.9674 138.303 49.7168 138.42 49.5215 138.576C49.3262 138.726 49.1797 138.908 49.082 139.123C48.9844 139.331 48.9355 139.569 48.9355 139.836C48.9355 140.096 48.9941 140.331 49.1113 140.539C49.235 140.747 49.4108 140.913 49.6387 141.037C49.873 141.154 50.1465 141.213 50.459 141.213C50.9147 141.213 51.3118 141.122 51.6504 140.939C51.9889 140.751 52.2526 140.523 52.4414 140.256C52.6302 139.989 52.7311 139.735 52.7441 139.494L53.4863 140.607C53.3952 140.874 53.2585 141.158 53.0762 141.457C52.8939 141.757 52.6595 142.036 52.373 142.297C52.0866 142.557 51.7415 142.772 51.3379 142.941C50.9342 143.111 50.4655 143.195 49.9316 143.195C49.248 143.195 48.6361 143.059 48.0957 142.785C47.5553 142.512 47.1289 142.137 46.8164 141.662C46.5039 141.187 46.3477 140.646 46.3477 140.041C46.3477 139.481 46.4518 138.986 46.6602 138.557C46.8685 138.127 47.1777 137.766 47.5879 137.473C47.998 137.173 48.5059 136.949 49.1113 136.799C49.7233 136.643 50.4232 136.564 51.2109 136.564H52.9492ZM60.8887 143H58.291V131.457C58.291 130.663 58.444 129.995 58.75 129.455C59.056 128.908 59.4922 128.495 60.0586 128.215C60.625 127.935 61.2923 127.795 62.0605 127.795C62.3145 127.795 62.5553 127.811 62.7832 127.844C63.0176 127.876 63.2487 127.922 63.4766 127.98L63.4277 129.943C63.304 129.911 63.1673 129.888 63.0176 129.875C62.8743 129.862 62.7148 129.855 62.5391 129.855C62.1875 129.855 61.888 129.917 61.6406 130.041C61.3932 130.165 61.2044 130.347 61.0742 130.588C60.9505 130.822 60.8887 131.112 60.8887 131.457V143ZM63.0273 132.434V134.289H56.6992V132.434H63.0273ZM70.4395 140.754V135.881C70.4395 135.523 70.3776 135.214 70.2539 134.953C70.1302 134.693 69.9414 134.491 69.6875 134.348C69.4336 134.204 69.1113 134.133 68.7207 134.133C68.3757 134.133 68.0729 134.191 67.8125 134.309C67.5586 134.426 67.3633 134.592 67.2266 134.807C67.0898 135.015 67.0215 135.256 67.0215 135.529H64.4336C64.4336 135.093 64.5378 134.68 64.7461 134.289C64.9544 133.892 65.2507 133.54 65.6348 133.234C66.0254 132.922 66.4909 132.678 67.0312 132.502C67.5781 132.326 68.1901 132.238 68.8672 132.238C69.668 132.238 70.3809 132.375 71.0059 132.648C71.6374 132.915 72.1322 133.319 72.4902 133.859C72.8548 134.4 73.0371 135.08 73.0371 135.9V140.51C73.0371 141.037 73.0697 141.49 73.1348 141.867C73.2064 142.238 73.3105 142.561 73.4473 142.834V143H70.8203C70.6966 142.733 70.6022 142.395 70.5371 141.984C70.472 141.568 70.4395 141.158 70.4395 140.754ZM70.8008 136.564L70.8203 138.098H69.1895C68.7858 138.098 68.431 138.14 68.125 138.225C67.819 138.303 67.5684 138.42 67.373 138.576C67.1777 138.726 67.0312 138.908 66.9336 139.123C66.8359 139.331 66.7871 139.569 66.7871 139.836C66.7871 140.096 66.8457 140.331 66.9629 140.539C67.0866 140.747 67.2624 140.913 67.4902 141.037C67.7246 141.154 67.998 141.213 68.3105 141.213C68.7663 141.213 69.1634 141.122 69.502 140.939C69.8405 140.751 70.1042 140.523 70.293 140.256C70.4818 139.989 70.5827 139.735 70.5957 139.494L71.3379 140.607C71.2467 140.874 71.11 141.158 70.9277 141.457C70.7454 141.757 70.5111 142.036 70.2246 142.297C69.9382 142.557 69.5931 142.772 69.1895 142.941C68.7858 143.111 68.3171 143.195 67.7832 143.195C67.0996 143.195 66.4876 143.059 65.9473 142.785C65.4069 142.512 64.9805 142.137 64.668 141.662C64.3555 141.187 64.1992 140.646 64.1992 140.041C64.1992 139.481 64.3034 138.986 64.5117 138.557C64.7201 138.127 65.0293 137.766 65.4395 137.473C65.8496 137.173 66.3574 136.949 66.9629 136.799C67.5749 136.643 68.2747 136.564 69.0625 136.564H70.8008ZM77.9395 134.592V143H75.3613V132.434H77.8027L77.9395 134.592ZM81.1523 132.365L81.1133 134.768C80.9701 134.742 80.8073 134.722 80.625 134.709C80.4492 134.696 80.2832 134.689 80.127 134.689C79.7298 134.689 79.3815 134.745 79.082 134.855C78.7826 134.96 78.5319 135.113 78.3301 135.314C78.1348 135.516 77.985 135.764 77.8809 136.057C77.7767 136.343 77.7181 136.669 77.7051 137.033L77.1484 136.965C77.1484 136.294 77.2168 135.673 77.3535 135.1C77.4902 134.527 77.6888 134.025 77.9492 133.596C78.2096 133.166 78.5352 132.834 78.9258 132.6C79.3229 132.359 79.7786 132.238 80.293 132.238C80.4362 132.238 80.5892 132.251 80.752 132.277C80.9212 132.297 81.0547 132.326 81.1523 132.365ZM85.3027 132.434V143H82.7148V132.434H85.3027ZM82.5391 129.67C82.5391 129.286 82.6693 128.967 82.9297 128.713C83.1966 128.459 83.5547 128.332 84.0039 128.332C84.4531 128.332 84.8079 128.459 85.0684 128.713C85.3353 128.967 85.4688 129.286 85.4688 129.67C85.4688 130.048 85.3353 130.363 85.0684 130.617C84.8079 130.871 84.4531 130.998 84.0039 130.998C83.5547 130.998 83.1966 130.871 82.9297 130.617C82.6693 130.363 82.5391 130.048 82.5391 129.67Z" fill="white"/>
<circle cx="60" cy="60" r="43" fill="#FE9C48"/>
<path d="M65.9414 68.0977L49.0312 74.6016C46.6523 75.4805 44.5195 73.2422 45.3984 70.9688L51.9023 54.0586C52.2773 53.0625 53.0625 52.2773 54.0586 51.9023L70.9688 45.3984C73.2422 44.5195 75.4805 46.6523 74.6016 49.0312L68.0977 65.9414C67.7227 66.9375 66.9375 67.7227 65.9414 68.0977ZM59.8945 56.25C57.9258 56.25 56.1445 57.9258 56.1445 60C56.1445 62.0742 57.9258 63.75 59.8945 63.75C62.0742 63.75 63.75 62.0742 63.75 60C63.75 57.9258 62.0742 56.25 59.8945 56.25ZM90 60C90 76.5703 76.5703 90 60 90C43.4297 90 30 76.5703 30 60C30 43.4297 43.4297 30 60 30C76.5703 30 90 43.4297 90 60ZM60 35.625C46.5352 35.625 35.625 46.5352 35.625 60C35.625 73.4648 46.5352 84.375 60 84.375C73.4648 84.375 84.375 73.4648 84.375 60C84.375 46.5352 73.4648 35.625 60 35.625Z" fill="white"/>
<line x1="82.6464" y1="38.182" x2="86.182" y2="34.6464" stroke="white"/>
<line x1="34.3536" y1="34.6464" x2="37.8891" y2="38.182" stroke="white"/>
<line x1="83.3536" y1="81.6464" x2="86.8891" y2="85.182" stroke="white"/>
<line x1="33.6464" y1="85.182" x2="37.182" y2="81.6464" stroke="white"/>
<line x1="19" y1="59.5" x2="29" y2="59.5" stroke="white"/>
<line x1="91" y1="59.5" x2="101" y2="59.5" stroke="white"/>
<line x1="59.5" y1="101" x2="59.5" y2="91" stroke="white"/>
<line x1="60.5" y1="29" x2="60.5" y2="19" stroke="white"/>
</svg>
